<?xml version="1.0" encoding="UTF-8"?>
<svg width="2e3" height="2e3" version="1.0" viewBox="0 0 1500 1500" xmlns="http://www.w3.org/2000/svg" zoomAndPan="magnify">
 <defs>
  <clipPath id="f79ad85402">
   <path d="m156 985h868v275.07h-868z"/>
  </clipPath>
  <clipPath id="6d7c011e01">
   <path d="m137.86 519.07h903.75v425.93h-903.75z"/>
  </clipPath>
 </defs>
 <path d="m634.05 973.45v-20.074c0-24.477-19.84-44.316-44.305-44.316-24.48 0-44.32 19.84-44.32 44.316v20.074c0 24.477 19.84 44.316 44.32 44.316 24.445 0 44.305-19.84 44.305-44.316z"/>
 <g clip-path="url(#f79ad85402)">
  <path d="m664.45 997.96c-9.8242 32.141-39.41 55.738-74.703 55.738-35.309 0-64.898-23.598-74.719-55.738h-305.22c-19.266 0-37.469-4.4766-53.801-12.246v202.64c0 39.566 32.379 71.941 71.949 71.941h723.55c39.574 0 71.949-32.375 71.949-71.941v-202.62c-16.348 7.7695-34.535 12.25-53.797 12.25h-305.21z"/>
 </g>
 <g clip-path="url(#6d7c011e01)">
  <path d="m520.52 518.84c-68.117 0-124.6 50.035-135.05 115.25h-172.68c-41.227 0-74.953 32.371-74.953 71.941v166.06c0 39.73 32.215 71.941 71.949 71.941h301.82c1.0234-20.703 9.9107-39.296 23.958-52.749 0.43359-0.41406 0.93801-0.73926 1.3872-1.1338 3.1133-2.8594 6.3506-5.5586 9.8936-7.8984 1.2578-0.84375 2.6953-1.4175 4.0078-2.1753 2.9141-1.6719 5.793-3.418 8.9414-4.7109 2.4648-1.0273 5.1255-1.6172 7.7153-2.3906 2.2305-0.66797 4.355-1.5469 6.6753-2.0156 5.0195-1.0273 10.215-1.5659 15.523-1.5659 5.3242 0 10.504 0.55811 15.523 1.5659 2.3008 0.46875 4.4229 1.3477 6.6533 2.0156 2.5898 0.77344 5.2534 1.3628 7.7183 2.4097 3.1289 1.293 5.9879 3.02 8.9019 4.6919 1.332 0.77344 2.77 1.3521 4.0474 2.1958 3.543 2.3203 6.7612 5.0185 9.8745 7.8779 0.44922 0.41406 0.97369 0.73532 1.4033 1.1689 14.066 13.453 22.933 32.05 23.96 52.749h301.82c39.734 0 71.95-32.21 71.95-71.94v-91.537l-14.903-7.251-55.918 6.6475c-16.871 2.016-33.372-6.0112-42.196-20.531l-29.304-48.12-50.629-24.649c-15.281-7.429-24.812-23.097-24.406-40.074l0.30615-12.523h-30.558c-10.434-65.219-66.934-115.25-135.05-115.25h-138.38zm0.00586 67.336h138.38c30.758 0 56.604 20.195 65.78 47.914h-269.94c9.1719-27.719 35.019-47.914 65.776-47.914z"/>
 </g>
 <g transform="translate(-1.9578 -9.1789)">
  <path d="m1246.9 555.99c0 13.969-4.9336 27.496-13.918 38.195l-47.465 56.59c-8.9844 10.699-21.434 17.879-35.191 20.32l-72.734 12.82c-13.777 2.4414-27.941-0.0703-40.039-7.0547l-63.98-36.926c-12.098-6.9844-21.348-18.02-26.121-31.141l-25.254-69.414c-4.7734-13.121-4.7734-27.516 0-40.637l25.254-69.41c4.7734-13.121 14.023-24.141 26.121-31.125l63.98-36.941c12.098-6.9883 26.262-9.4805 40.039-7.0586l72.734 12.84c13.758 2.4219 26.207 9.6211 35.191 20.32l47.465 56.57c8.9844 10.699 13.918 24.227 13.918 38.199zm95.883-130.57-41.664-37.934-14.551-54.395c-4.3711-16.43-17.934-28.773-34.699-31.621l-55.527-9.3555-41.664-37.934c-12.574-11.422-30.648-14.5-46.262-7.7969l-51.816 22.121-55.531-9.3516c-16.762-2.8477-33.633 4.3672-43.164 18.426l-31.605 46.633-51.797 22.141c-15.613 6.6836-25.906 21.859-26.312 38.852l-1.3984 56.309-31.582 46.633c-9.5352 14.059-9.9922 32.398-1.1523 46.918l29.285 48.117-1.3789 56.309c-0.40625 16.977 9.125 32.645 24.406 40.074l50.629 24.648 29.305 48.121c8.8242 14.52 25.324 22.547 42.195 20.531l55.918-6.6484 50.664 24.652c15.281 7.4258 33.496 5.2695 46.598-5.5547l43.469-35.828 55.938-6.6484c16.871-2 31.016-13.672 36.215-29.852l17.172-53.637 43.469-35.848c13.105-10.805 18.711-28.277 14.309-44.688l-14.539-54.414 17.191-53.656c5.1797-16.16 0.4414-33.883-12.117-45.324"/>
  <path d="m998.65 536.2 44.23 44.227c4.2422 4.2461 9.8672 6.5977 15.844 6.5977 5.9609 0 11.582-2.3516 15.844-6.5977l91.27-91.27c4.3164-3.9609 6.7031-9.5469 6.7031-15.719 0-6.0508-2.3672-11.762-6.4883-15.672-4.2969-4.3125-9.9219-6.6641-15.898-6.6641-5.9609 0-11.602 2.3516-15.848 6.5938l-75.492 75.496-28.418-28.438c-4.2461-4.2422-9.8867-6.5781-15.848-6.5781-5.957 0-11.602 2.3359-15.844 6.5781-4.2266 4.2266-6.543 9.8164-6.543 15.758 0 6.0469 2.3516 11.762 6.4883 15.688"/>
 </g>
</svg>
