<?xml version="1.0" encoding="UTF-8"?>
<svg width="2e3" height="2e3" version="1.0" viewBox="0 0 1500 1500" xmlns="http://www.w3.org/2000/svg" zoomAndPan="magnify">
 <defs>
  <clipPath id="a2fd389adc">
   <path d="m173.05 732h548.95v380h-548.95z"/>
  </clipPath>
  <clipPath id="a359778a61">
   <path d="m283 333.88h381v380.12h-381z"/>
  </clipPath>
  <clipPath id="b93c538fff">
   <path d="m727 786h600v380.38h-600z"/>
  </clipPath>
 </defs>
 <g clip-path="url(#a2fd389adc)">
  <path d="m640.91 732.21c-45.895 37.152-104.29 59.25-167.54 59.25-63.617 0-122.02-22.098-167.91-59.25-79.52 53.785-131.97 145.21-131.97 248.4v79.887c0 28.41 23.066 51.477 51.477 51.477h424.08v-77.094c0-83.043 26.832-159.77 72.359-222.18-10.562-15.906-22.824-30.598-36.18-43.953-13.355-13.352-28.41-25.859-44.312-36.543z"/>
 </g>
 <g clip-path="url(#a359778a61)">
  <path d="m473.24 713.64c104.89 0 189.88-84.988 189.88-189.88 0-104.9-84.988-189.88-189.88-189.88-104.9 0-189.88 84.984-189.88 189.88 0 104.89 84.984 189.88 189.88 189.88z"/>
 </g>
 <g clip-path="url(#b93c538fff)">
  <path d="m1195.1 786.61c-45.891 37.152-104.53 59.25-168.15 59.25-63.375 0-122.02-22.098-167.91-59.25-79.523 53.664-131.97 145.09-131.97 248.4v79.887c0 28.41 23.434 51.48 51.84 51.48h496.44c28.41 0 51.48-23.07 51.48-51.48v-79.887c0-83.043-33.391-157.95-87.656-212.22-13.477-13.477-28.168-25.617-44.074-36.18z"/>
 </g>
 <path d="m1027.1 767.91c104.89 0 189.88-84.988 189.88-189.88 0-104.9-84.988-189.88-189.88-189.88-104.9 0-189.88 84.984-189.88 189.88 0 104.89 84.984 189.88 189.88 189.88z"/>
</svg>
