<?xml version="1.0" encoding="UTF-8"?>
<svg width="2e3" height="2e3" version="1.0" viewBox="0 0 1500 1500" xmlns="http://www.w3.org/2000/svg" zoomAndPan="magnify">
 <defs>
  <clipPath id="ffc60904ed">
   <path d="m110.34 366.2h1279.5v767.25h-1279.5z"/>
  </clipPath>
 </defs>
 <g clip-path="url(#ffc60904ed)">
  <path d="m1227.2 681.52-474.88 182.59c-204.07-79.312-411.06-153.45-613.84-235.68-13.281-5.5039-35.629-8.418-25.59-27.195l632.62-235.03h9.7188l633.27 235.36c3.2383 4.207 2.9141 16.188-2.9141 18.453l-123.09 47.266-3.8867 4.8555v189.06c34.012 13.922 34.336 56.977 3.8867 75.754 10.691 24.281 18.789 49.855 23.648 76.078 4.5352 24.281 10.043 59.242 11.012 83.848 0.64844 11.328-4.8555 16.832-13.277 23.633-22.676 18.129-55.07 18.453-78.715 1.6172-19.113-13.922-15.227-24.926-13.281-45.969 4.5352-45.973 12.633-94.855 31.422-136.94-4.8594-7.7695-13.281-12.301-17.168-21.043-10.043-21.363-1.2969-46.617 20.73-55.031v-180.64z"/>
 </g>
 <path d="m410.29 767.63c5.1836-1.6172 19.434 5.1797 25.59 7.1211 97.824 34.641 195.65 81.258 293.48 113.63 21.379 7.1211 23.969 6.4727 45.348-0.32422 100.09-33.344 199.21-83.199 299.3-116.54 5.5078-1.9453 11.016-4.8555 16.844-3.8867 5.832 1.9414 14.578 45.648 16.523 53.742 6.8008 31.402 13.602 68.305 17.492 100.03 0.96875 8.418 2.9141 15.863-1.6211 23.957-5.1836 9.0625-41.785 28.488-53.125 34.641-67.699 37.227-147.06 71.543-220.91 94.852-40.816 12.949-81.305 28.164-124.39 19.75-96.855-18.777-236.79-78.344-321.66-129.17-18.141-11.008-26.887-10.359-25.914-33.992 1.6172-36.582 13.605-92.262 22.027-128.84 1.293-6.1523 6.1523-33.344 11.012-34.965z"/>
</svg>
