<?xml version="1.0" encoding="UTF-8"?>
<svg width="2e3" height="2e3" version="1.0" viewBox="0 0 1500 1500" xmlns="http://www.w3.org/2000/svg" zoomAndPan="magnify">
 <defs>
  <clipPath id="406f008d10">
   <path d="m105.02 298h378.98v108h-378.98z"/>
  </clipPath>
  <clipPath id="90015b5420">
   <path d="m678 1072h120v242.39h-120z"/>
  </clipPath>
  <clipPath id="ecf4d804f6">
   <path d="m702 185.64h95v94.355h-95z"/>
  </clipPath>
 </defs>
 <g>
  <path d="m811.3 761.11c9.6719-4.4375 22.172-8.8711 33.457-15.523 27.816-16.324 29.43-47.566 3.6289-67.523-22.777-17.535-49.785-21.363-77.398-23.984-43.738-4.4336-88.082-6.8516-131.02-15.723-21.973-4.4336-43.738-18.141-61.477-32.652-62.887-51.602-46.562-147.54 30.031-177.58 22.777-8.8672 48.375-12.898 72.965-14.711 21.973-1.6133 38.297 13.102 51.398 29.629 6.8555 8.4648-0.40234 14.309-6.6484 17.738-18.141 9.6719-37.695 15.922-57.852 8.0625-33.66-13.102-52.605 2.6172-61.273 23.18-15.316 36.281-11.086 58.25 14.914 75.785 29.43 19.957 63.09 26.004 97.758 27.816 38.098 2.2188 76.594 2.0156 113.28 14.715 42.734 14.914 74.98 39.707 84.051 87.277 6.8555 35.875-12.293 74.98-45.551 90.5-3.2266 1.4102-8.4648 1.2109-11.691-0.40234-16.93-8.668-33.258-18.141-48.574-26.605z"/>
  <path d="m830.04 385.59c2.0156 1.207 3.832 2.6211 9.8789 6.4492h-86.469c3.625-8.0625 7.457-16.328 10.883-24.59 3.6289-8.2656 9.0703-12.297 18.945-13.102 52.809-4.2344 63.695-39.305 62.484-79.012-0.19922-9.6758-1.6133-19.555-1.4102-29.227 0.40234-28.625 15.52-44.547 44.141-42.531 18.344 1.2109 37.691 4.4336 54.02 12.297 45.754 22.172 90.098 47.164 135.05 70.949 11.691 6.2461 6.4492 12.496-0.40234 17.738-17.941 13.301-39.105 18.945-60.871 18.742-23.383-0.40234-46.766-4.4336-70.145-6.8516-4.8398-0.40234-9.6758-1.0078-15.52 1.0078 9.6719 4.0312 19.348 7.8594 28.621 11.691-20.359 32.047-50.191 23.379-79.414 17.938-0.20312 1.4102-0.60547 2.8242-0.80859 4.0312 6.8555 3.2266 13.504 6.4492 21.973 10.281-23.383 9.0703-39.711 34.871-69.742 19.148-0.40234 1.6133-0.80469 3.4258-1.2109 5.0391z"/>
  <path d="m660.73 392.65c3.2227-4.2344 4.8359-6.25 6.2461-8.2656-29.629 11.488-46.156-13.301-69.539-23.18 8.668-3.6289 15.52-6.4492 22.574-9.4727 0.20312-1.4102 0.20312-2.8203 0.40625-4.0312-29.43 3.2266-61.074 15.32-80.625-18.543 8.668-3.6289 18.34-7.457 27.816-11.289-53.414 4.2344-107.64 20.359-154.8-21.363 1.6133-3.2266 1.8125-5.0391 2.8203-5.6445 51.801-33.66 104.41-65.91 164.68-82.641 12.5-3.4258 26.406-5.6445 39.105-4.2344 27.211 3.2266 38.699 23.582 35.676 54.223-1.6133 15.922-1.6133 32.449 0.80469 48.172 4.0312 26 23.582 43.336 49.586 47.164 25.395 3.832 33.457 11.895 38.094 39.105h-82.84z"/>
  <path d="m677.46 663.14c-8.0625 4.8359-16.324 9.0703-23.582 14.715-27.211 21.363-24.992 52.004 4.6367 69.137 24.793 14.309 52.406 19.148 80.625 19.551 31.441 0.40234 62.684 1.8125 91.508 17.133 37.09 19.754 56.641 58.453 49.184 99.773-1.4141 8.0625-4.6367 16.125-8.8711 22.977-14.914 23.785-22.977 25.398-46.762 12.297-7.2578-4.0312-14.715-7.8633-23.785-12.496 4.4336-2.0156 7.457-3.4297 10.684-4.8398 12.898-5.6445 26.203-11.891 27.211-27.816 1.2109-17.332-4.4336-33.258-19.352-43.938-17.133-12.297-37.086-15.523-57.242-15.32-34.465 0.20312-68.73-0.40234-101.59-12.297-9.6758-3.4258-19.352-7.2539-28.219-12.094-52.609-28.621-64.5-93.32-26.406-139.28 5.0391-6.0469 9.0703-7.8633 17.133-4.8398 17.738 6.6523 36.082 11.492 54.824 17.336z"/>
 </g>
 <g clip-path="url(#406f008d10)">
  <path d="m105.02 361.41c101.59-12.297 198.94-32.453 294.48-62.688 17.133 33.863 49.988 32.051 83.648 35.074-6.0469 3.0234-9.875 5.2383-14.109 7.0547-71.555 28.418-144.52 52.203-221.31 61.676-37.09 4.6367-74.578 5.6445-109.85-10.48-13.504-6.4492-24.188-15.32-32.855-30.637z"/>
 </g>
 <g>
  <path d="m1393 361.2c-21.766 26.203-47.566 38.699-77.598 42.129-40.516 4.6328-80.023-3.4297-119.32-11.895-61.277-13.102-120.54-32.855-181.81-57.242 33.457-3.6289 66.512-0.80859 84.855-35.074 94.734 29.227 191.89 50.191 293.88 62.082z"/>
  <path d="m821.38 593c17.133-7.0547 36.078-12.699 52.605-22.371 34.668-19.754 38.5-66.922 9.2734-93.93-12.902-12.094-27.211-16.73-44.344-9.6758-19.551 8.0625-38.5 5.0391-57.043-3.0234-19.352-8.4648-20.559-16.527-5.8438-31.039 19.148-18.949 41.52-22.574 67.723-18.141 37.289 6.2461 72.965 15.52 96.145 47.566 37.09 50.996 28.422 126.18-43.535 162.26-2.8242 1.4141-7.457 0.60547-10.48-0.80469-21.77-10.078-43.336-20.559-64.5-30.84z"/>
  <path d="m642.79 806.05c15.52 5.4453 31.043 10.887 48.375 16.73-15.52 10.887-26 23.785-27.613 42.531-1.0078 12.699 2.8203 22.172 13.305 28.621 18.543 11.488 39.102 14.715 60.668 14.109 25.195-0.80469 49.785 2.8203 72.359 15.32 48.176 26.605 55.43 94.328 13.91 126.38-7.6602 5.8438-13.91 7.0547-22.375 2.0156-7.457-4.4336-15.922-6.6523-25.598-10.48 7.0547-3.832 13.504-6.8555 19.352-10.684 30.234-19.352 29.629-56.84-2.0156-73.57-10.281-5.4414-23.18-6.25-35.074-7.6602-25.598-3.2266-52.406-2.2188-76.793-9.0703-64.5-18.141-82.035-82.438-38.5-134.24z"/>
  <path d="m553.09 358.79c-75.18 72.562-274.52 109.05-332.57 58.855 15.52-2.6211 29.629-5.0391 43.535-7.6602 80.828-15.922 159.64-38.699 234.21-74.777 12.496-6.0469 23.785-2.418 34.066 5.8438 7.0547 5.8477 13.906 11.895 20.758 17.738z"/>
  <path d="m942.31 361.61c11.086-9.2695 18.547-15.719 26.203-21.766 10.078-8.0625 21.164-9.8789 32.855-4.2344 86.27 41.117 177.17 66.918 271.71 80.828 0.40234 0 0.60156 0.60156 3.8281 3.8281-17.938 5.6445-33.66 11.691-50.188 15.52-67.727 15.926-131.22-1.6133-192.7-27.816-30.836-13.504-60.062-30.234-91.711-46.359z"/>
  <path d="m870.96 392.45c9.6758-6.6523 15.52-11.086 21.77-15.117 18.543-11.891 35.07-14.715 56.637-1.6133 58.453 35.273 121.14 61.477 191.08 73.168-15.723 14.109-33.863 17.738-52.609 19.352-44.34 3.8281-85.66-6.8555-124.77-26.809-30.234-15.117-59.66-31.645-92.113-48.98z"/>
  <path d="m623.24 393.25c-47.367 27.613-93.324 58.047-147.95 70.547-30.438 7.0547-61.273 8.6641-91.508-0.80859-8.668-2.6211-16.531-7.457-28.824-12.898 78.004-13.707 144.32-43.336 207.81-80.828 4.6367-2.6211 12.094-4.6367 16.527-2.8203 15.523 6.2461 30.438 14.109 45.555 21.566-0.60547 1.6133-1.0078 3.4258-1.6133 5.2422z"/>
  <path d="m666.17 945.94c12.496 4.4336 23.984 8.668 35.473 12.699-29.828 39.906-18.141 70.746 30.641 82.84 14.711 3.6289 30.031 4.6367 44.543 8.668 41.723 11.691 58.656 54.824 36.684 90.906-13.102 21.363-24.793 24.59-48.574 11.488 5.2383-3.2266 10.078-5.8477 14.512-8.668 14.914-9.6758 21.164-23.984 17.332-41.926-3.2227-15.723-15.316-22.371-29.227-25.195-14.914-3.0234-30.23-3.0234-44.945-6.4492-34.066-8.2656-61.879-24.59-71.152-61.879-5.4414-22.574 2.418-42.129 14.715-62.484z"/>
 </g>
 <g clip-path="url(#90015b5420)">
  <path d="m719.59 1080.4c-24.793 22.777-21.77 50.594 7.2539 66.312 9.8789 5.2422 20.965 8.2656 31.242 12.5 31.848 12.898 45.555 41.117 36.281 73.77-5.6445 19.957-18.141 30.84-40.109 30.84-1.2109 17.336-2.2188 34.062-3.4258 50.996h-3.0234c-0.60547-7.8633-1.2109-15.723-1.8164-23.582-1.207-13.91 0.60547-26.609-19.551-32.453-21.164-6.25-28.621-44.949-16.93-68.934 2.6211-5.2422 6.2461-9.8789 10.078-15.723 5.4414 2.418 10.48 4.8359 15.723 7.2578-27.012 32.852-23.383 68.531 7.457 77.195 0-12.094 0.19922-24.188 0-36.281-0.20312-11.688-1.0078-23.379-1.6133-35.875h13.504c0.60547 0.60156 1.2109 1.0078 1.2109 1.4102v71.152c13.906-1.8164 21.969-9.8789 25.195-21.973 4.4336-16.73 4.8359-34.266-9.0703-46.762-8.2656-7.457-19.957-11.289-30.234-16.527-15.52-7.8633-33.059-13.305-46.16-24.188-17.535-14.512-19.953-36.684-14.711-58.254 5.4414-22.574 9.6719-23.379 38.699-10.883z"/>
 </g>
 <g clip-path="url(#ecf4d804f6)">
  <path d="m749.62 279.97c-24.992 0-46.559-21.766-46.965-46.961-0.19922-26.203 21.367-47.973 47.367-47.773 25.398 0 46.562 21.164 46.965 46.766 0.40234 25.598-21.77 47.969-47.367 47.969z"/>
 </g>
 <g>
  <path d="m768.97 584.33h-36.684v-27.211c0-14.711 1.0078-29.426-0.20312-44.141-2.2188-25.398 3.8281-48.375 17.535-70.344 31.242 43.738 12.297 93.32 19.352 141.7z"/>
  <path d="m744.38 307.99c-12.699-5.2422-25.801-9.8789-27.211-26.203h64.094c-0.40234 12.898-0.80469 13.504-25.598 27.211 19.352 11.488 17.336 35.879-5.0391 67.32-22.777-24.387-25.395-52.004-6.2461-68.328z"/>
  <path d="m764.33 757.48h-20.156c-2.8203 0-5.6445-0.60547-9.875-1.0078v-92.316h30.23c-0.19922 30.637-0.19922 60.871-0.19922 93.324z"/>
  <path d="m798.8 403.93c21.77-2.6172 43.539-5.6406 65.309-7.6562 3.4258-0.40625 7.2539 2.418 10.684 4.2305 42.527 22.375 84.855 44.746 131.21 69.34-16.527 1.8125-30.438 4.0312-44.344 4.6328-2.8203 0.20312-6.6523-4.8359-9.0703-8.0625-35.879-47.77-84.254-64.094-141.9-57.445-3.832 0.40625-7.8633-0.40234-11.691-0.60156-0.20312-1.8164-0.20312-3.2266-0.20312-4.4375z"/>
  <path d="m700.23 407.36c-2.6211 0.40234-5.2383 1.207-7.8594 0.80469-60.871-6.25-111.87 11.488-149.56 61.477-2.0156 2.6211-6.4492 4.8359-9.4727 4.6367-12.5-1.0078-24.996-2.8242-37.695-7.2578 35.477-18.141 71.355-35.273 106.02-54.422 20.762-11.488 40.512-19.148 64.5-12.496 10.883 3.0234 22.777 2.2188 34.266 3.0234 0 1.4102 0 2.8203-0.20312 4.2344z"/>
  <path d="m736.11 823.59h26v80.824h-26v-80.824z"/>
  <path d="m738.53 952.59h21.367c0 25.797 0.60156 51.195-0.80859 76.391-0.19922 3.2266-11.488 5.6445-20.559 9.6758v-86.066z"/>
  <path d="m757.48 1147.7h-16.121c-1.0078-21.566-1.8164-42.328-2.8242-64.5h18.945v64.5z"/>
  <path d="m755.87 398.29c12.898 3.8281 25.598 7.6562 40.914 12.293-14.512 11.691-25.195 20.359-38.898 31.645-2.4219-14.109-4.4375-26.605-6.4531-39.305 1.4141-1.6094 3.0234-3.2227 4.4375-4.6328z"/>
  <path d="m748.61 397.29c-2.6211 16.527-4.2305 27.613-6.0469 40.312-12.496-9.6758-22.777-17.738-37.086-29.027 14.715-3.8281 26.605-7.0547 43.133-11.285z"/>
 </g>
</svg>
