<?xml version="1.0" encoding="UTF-8"?>
<svg width="2e3" height="2e3" version="1.0" viewBox="0 0 1500 1500" xmlns="http://www.w3.org/2000/svg" zoomAndPan="magnify">
 <defs>
  <clipPath id="9e779584d6">
   <path d="m262.19 806h239.81v239.7h-239.81z"/>
  </clipPath>
  <clipPath id="776531c223">
   <path d="m820 806h240.19v239.7h-240.19z"/>
  </clipPath>
  <clipPath id="c85aaa59db">
   <path d="m820 247.7h240.19v240.3h-240.19z"/>
  </clipPath>
  <clipPath id="05d898c8c0">
   <path d="m262.19 247.7h239.81v240.3h-239.81z"/>
  </clipPath>
  <clipPath id="037278a9c8">
   <path d="m882.12 896.61h355.5v355.5h-355.5z"/>
  </clipPath>
 </defs>
 <g transform="translate(.097639 .09764)">
  <g clip-path="url(#9e779584d6)">
   <path d="m474.99 1045.7h-133c-1.3047 0-2.6094-0.031-3.9141-0.098-1.3047-0.062-2.6055-0.1602-3.9062-0.2852-1.3008-0.1289-2.5977-0.2891-3.8867-0.4805-1.293-0.1914-2.5781-0.414-3.8594-0.6679-1.2812-0.2578-2.5547-0.543-3.8242-0.8594-1.2656-0.3164-2.5234-0.668-3.7734-1.0469s-2.4883-0.7851-3.7188-1.2265c-1.2305-0.4415-2.4492-0.9102-3.6524-1.4102-1.207-0.5-2.4023-1.0273-3.582-1.5859-1.1797-0.5586-2.3476-1.1485-3.5-1.7618-1.1523-0.6171-2.2852-1.2617-3.4062-1.9296-1.1211-0.6719-2.2226-1.3711-3.3086-2.0977s-2.1562-1.4766-3.2031-2.2539c-1.0508-0.7774-2.0781-1.582-3.0898-2.4102-1.0078-0.8281-1.9961-1.6797-2.9648-2.5586s-1.9141-1.7773-2.8359-2.6992c-0.92188-0.9258-1.8242-1.8711-2.6992-2.8398-0.87891-0.9649-1.7305-1.9532-2.5586-2.9649-0.82813-1.0078-1.6328-2.039-2.4102-3.0859-0.77734-1.0508-1.5312-2.1172-2.2578-3.2031-0.72266-1.086-1.4219-2.1875-2.0938-3.3086-0.67188-1.1211-1.3164-2.2578-1.9297-3.4102-0.61719-1.1523-1.2031-2.3164-1.7617-3.4961-0.55859-1.1836-1.0898-2.375-1.5859-3.582-0.5-1.207-0.97265-2.4258-1.4102-3.6562-0.44141-1.2266-0.85156-2.4688-1.2305-3.7188s-0.72656-2.5078-1.043-3.7734c-0.32031-1.2656-0.60547-2.5391-0.85937-3.8203-0.25391-1.2812-0.47657-2.5664-0.66797-3.8594-0.19141-1.293-0.35157-2.5898-0.48047-3.8867-0.12891-1.3008-0.22656-2.6016-0.28906-3.9062s-0.0977-2.6094-0.0977-3.918v-133c0-0.87109 0.043-1.7383 0.12891-2.6055 0.0859-0.86719 0.21484-1.7266 0.38281-2.582 0.17187-0.85547 0.38281-1.6992 0.63672-2.5312 0.25-0.83594 0.54297-1.6562 0.8789-2.4609 0.33203-0.80468 0.70313-1.5898 1.1172-2.3594 0.41016-0.76563 0.85547-1.5156 1.3398-2.2383 0.48438-0.72266 1.0039-1.4219 1.5547-2.0977 0.55469-0.67187 1.1367-1.3164 1.7539-1.9336 0.61719-0.61719 1.2617-1.1992 1.9336-1.7539 0.67578-0.55078 1.3711-1.0703 2.0977-1.5547 0.72265-0.48437 1.4688-0.92968 2.2383-1.3398s1.5547-0.78516 2.3594-1.1172c0.80469-0.33203 1.625-0.625 2.457-0.8789 0.83593-0.25391 1.6797-0.46485 2.5352-0.63672 0.85156-0.16797 1.7148-0.29688 2.582-0.38282 0.86719-0.082 1.7344-0.125 2.6055-0.125 0.8711 0 1.7422 0.043 2.6094 0.125 0.86328 0.0859 1.7266 0.21485 2.582 0.38672 0.85156 0.16797 1.6953 0.37891 2.5312 0.63282 0.83203 0.2539 1.6523 0.54687 2.457 0.8789s1.5898 0.70703 2.3594 1.1172c0.76954 0.41016 1.5156 0.85547 2.2383 1.3398 0.72656 0.48438 1.4258 1.0039 2.0976 1.5547 0.67188 0.55469 1.3164 1.1367 1.9336 1.7539 0.61718 0.61718 1.1992 1.2617 1.7539 1.9336 0.55078 0.67578 1.0703 1.375 1.5547 2.0977 0.48437 0.72265 0.92969 1.4726 1.3438 2.2383 0.41016 0.76953 0.78125 1.5547 1.1133 2.3594 0.33594 0.80469 0.62891 1.625 0.87891 2.4609 0.2539 0.83203 0.46484 1.6758 0.63672 2.5312 0.16796 0.85547 0.29687 1.7148 0.38281 2.582 0.0859 0.86719 0.1289 1.7344 0.1289 2.6055v133c0 0.87109 0.043 1.7422 0.125 2.6094 0.0859 0.86718 0.21485 1.7266 0.38672 2.582 0.16797 0.85156 0.37891 1.6992 0.63282 2.5312 0.2539 0.83203 0.54687 1.6523 0.8789 2.457s0.70703 1.5938 1.1172 2.3594c0.41016 0.76953 0.85547 1.5156 1.3398 2.2383 0.48438 0.72657 1.0039 1.4258 1.5547 2.0977 0.55469 0.67578 1.1367 1.3203 1.7539 1.9336 0.61718 0.61719 1.2617 1.2031 1.9336 1.7539 0.67578 0.55469 1.375 1.0703 2.0977 1.5547 0.72656 0.48437 1.4726 0.93359 2.2383 1.3438 0.76953 0.41015 1.5547 0.78125 2.3594 1.1133 0.80469 0.33594 1.625 0.62891 2.4609 0.88281 0.83203 0.25 1.6758 0.46485 2.5312 0.63281 0.85547 0.17188 1.7148 0.29688 2.582 0.38282 0.86719 0.0859 1.7344 0.1289 2.6055 0.1289h133c0.87109 0 1.7422 0.043 2.6094 0.12891 0.86718 0.0859 1.7266 0.21094 2.582 0.38281 0.85547 0.16797 1.6992 0.37891 2.5312 0.63281 0.83203 0.25391 1.6523 0.54688 2.457 0.87891 0.80469 0.33594 1.5938 0.70703 2.3594 1.1172 0.76953 0.41015 1.5156 0.85937 2.2383 1.3398 0.72657 0.48438 1.4258 1.0039 2.0977 1.5586 0.67578 0.55078 1.3203 1.1367 1.9336 1.75 0.61719 0.6171 1.2031 1.2617 1.7539 1.9335 0.55469 0.6758 1.0703 1.375 1.5547 2.0977 0.48437 0.7266 0.93359 1.4727 1.3438 2.2383 0.41015 0.7695 0.78125 1.5547 1.1172 2.3633 0.33203 0.8047 0.625 1.6211 0.8789 2.457 0.25 0.832 0.46485 1.6758 0.63281 2.5312 0.17188 0.8555 0.29688 1.7149 0.38282 2.5821 0.0859 0.8672 0.1289 1.7344 0.1289 2.6054 0 0.8711-0.043 1.7422-0.1289 2.6094s-0.21094 1.7266-0.38282 2.5821c-0.16796 0.8554-0.38281 1.6992-0.63281 2.5312-0.2539 0.8359-0.54687 1.6524-0.8789 2.457-0.33594 0.8047-0.70704 1.5938-1.1172 2.3594-0.41016 0.7695-0.85938 1.5156-1.3438 2.2422-0.48438 0.7227-1 1.4219-1.5547 2.0938-0.55078 0.6757-1.1367 1.3203-1.7539 1.9375-0.61328 0.6132-1.2578 1.1992-1.9336 1.75-0.67187 0.5546-1.3711 1.0742-2.0977 1.5546-0.72265 0.4844-1.4688 0.9336-2.2383 1.3438-0.76562 0.4101-1.5547 0.7812-2.3594 1.1172-0.80469 0.332-1.625 0.625-2.457 0.8789s-1.6758 0.4648-2.5312 0.6328c-0.85547 0.1719-1.7148 0.2969-2.582 0.3828-0.86719 0.086-1.7383 0.1289-2.6094 0.1289z"/>
  </g>
  <g clip-path="url(#776531c223)">
   <path d="m980.39 1045.7h-133c-0.87109 0-1.7422-0.043-2.6094-0.1289-0.86719-0.086-1.7266-0.2109-2.582-0.3828-0.85547-0.168-1.6992-0.3789-2.5312-0.6328s-1.6524-0.5469-2.457-0.8789c-0.80469-0.336-1.5938-0.7071-2.3594-1.1172-0.76953-0.4102-1.5156-0.8594-2.2422-1.3438-0.72265-0.4804-1.4219-1-2.0938-1.5546-0.67578-0.5508-1.3203-1.1368-1.9336-1.75-0.61719-0.6172-1.2031-1.2618-1.7539-1.9375-0.55468-0.6719-1.0703-1.3711-1.5547-2.0938-0.48438-0.7266-0.9336-1.4727-1.3438-2.2422-0.41016-0.7656-0.78125-1.5547-1.1172-2.3594-0.33203-0.8046-0.625-1.6211-0.87891-2.457-0.25-0.832-0.46484-1.6758-0.63281-2.5312-0.17187-0.8555-0.29687-1.7149-0.38281-2.5821-0.0859-0.8672-0.12891-1.7383-0.12891-2.6094 0-0.871 0.043-1.7382 0.12891-2.6054 0.0859-0.8672 0.21094-1.7266 0.38281-2.5821 0.16797-0.8554 0.38281-1.6992 0.63281-2.5312 0.25391-0.8359 0.54688-1.6523 0.87891-2.457 0.33594-0.8086 0.70703-1.5938 1.1172-2.3633 0.41015-0.7656 0.85937-1.5117 1.3438-2.2383 0.48437-0.7227 1-1.4219 1.5547-2.0977 0.55079-0.6718 1.1367-1.3164 1.7539-1.9335 0.61328-0.61333 1.2578-1.1993 1.9336-1.75 0.67188-0.55469 1.3711-1.0742 2.0938-1.5586 0.72657-0.48047 1.4727-0.92969 2.2422-1.3398 0.76563-0.41016 1.5547-0.78125 2.3594-1.1172 0.80468-0.33203 1.625-0.625 2.457-0.87891 0.83203-0.2539 1.6758-0.46484 2.5312-0.63281 0.85547-0.17187 1.7148-0.29687 2.582-0.38281 0.86719-0.0859 1.7383-0.12891 2.6094-0.12891h133c0.8711 0 1.7383-0.043 2.6055-0.1289 0.86719-0.0859 1.7266-0.21094 2.582-0.38282 0.85547-0.16796 1.6992-0.38281 2.5312-0.63281 0.83594-0.2539 1.6562-0.54687 2.4609-0.88281 0.80469-0.33203 1.5898-0.70313 2.3594-1.1133 0.76562-0.41016 1.5117-0.85938 2.2383-1.3438 0.72265-0.48438 1.4219-1 2.0976-1.5547 0.67188-0.55078 1.3164-1.1367 1.9336-1.7539 0.61328-0.61328 1.1992-1.2578 1.7539-1.9336 0.5508-0.67187 1.0703-1.3711 1.5547-2.0977 0.4844-0.72265 0.9297-1.4688 1.3399-2.2383 0.4101-0.76562 0.7851-1.5547 1.1171-2.3594 0.3321-0.80469 0.625-1.625 0.8789-2.457 0.254-0.83203 0.4649-1.6797 0.6329-2.5312 0.1718-0.85547 0.3007-1.7148 0.3828-2.582 0.086-0.86719 0.1289-1.7383 0.1289-2.6094v-133c0-0.87109 0.043-1.7383 0.1289-2.6055 0.086-0.86719 0.2148-1.7266 0.3828-2.582 0.1719-0.85547 0.3828-1.6992 0.6328-2.5312 0.2539-0.83594 0.5469-1.6562 0.8828-2.4609 0.3321-0.80468 0.7031-1.5898 1.1133-2.3594 0.4102-0.76563 0.8594-1.5156 1.3438-2.2383 0.4843-0.72266 1-1.4219 1.5546-2.0977 0.5508-0.67187 1.1368-1.3164 1.7539-1.9336 0.6133-0.61719 1.2618-1.1992 1.9336-1.7539 0.6719-0.55078 1.3711-1.0703 2.0977-1.5547 0.7227-0.48437 1.4687-0.92968 2.2383-1.3398 0.7695-0.41016 1.5547-0.78516 2.3594-1.1172 0.8046-0.33203 1.625-0.625 2.457-0.8789 0.8359-0.25391 1.6797-0.46485 2.5312-0.63672 0.8555-0.16797 1.7149-0.29688 2.5821-0.38282 0.8672-0.082 1.7383-0.125 2.6093-0.125 0.8711 0 1.7383 0.043 2.6055 0.125 0.8672 0.0859 1.7305 0.21485 2.582 0.38672 0.8555 0.16797 1.6993 0.37891 2.5352 0.63282 0.832 0.2539 1.6523 0.54687 2.457 0.8789s1.5899 0.70703 2.3594 1.1172 1.5156 0.85547 2.2383 1.3398c0.7266 0.48438 1.4219 1.0039 2.0976 1.5547 0.6719 0.55469 1.3165 1.1367 1.9336 1.7539 0.6172 0.61718 1.1993 1.2617 1.7539 1.9336 0.5508 0.67578 1.0704 1.375 1.5547 2.0977 0.4844 0.72265 0.9297 1.4726 1.3399 2.2383 0.414 0.76953 0.7851 1.5547 1.1172 2.3594 0.332 0.80469 0.6289 1.625 0.8789 2.4609 0.2539 0.83203 0.4648 1.6758 0.6367 2.5312 0.168 0.85547 0.2969 1.7148 0.3828 2.582 0.086 0.86719 0.125 1.7344 0.125 2.6055v133c0 1.3086-0.031 2.6133-0.094 3.918-0.067 1.3047-0.1602 2.6055-0.2891 3.9062-0.1289 1.2969-0.2891 2.5938-0.4805 3.8867-0.1914 1.2891-0.414 2.5781-0.6679 3.8594-0.254 1.2812-0.543 2.5547-0.8594 3.8203-0.3164 1.2656-0.6641 2.5234-1.043 3.7734s-0.7891 2.4922-1.2305 3.7227c-0.4375 1.2266-0.9101 2.4453-1.4101 3.6523s-1.0274 2.3984-1.586 3.582c-0.5585 1.1797-1.1445 2.3438-1.7617 3.4961-0.6133 1.1524-1.2578 2.2891-1.9297 3.4102-0.6718 1.1211-1.3711 2.2226-2.0937 3.3086-0.7266 1.0859-1.4805 2.1523-2.2578 3.2031-0.7774 1.0469-1.5821 2.0781-2.4102 3.0859-0.8281 1.0117-1.6797 2-2.5586 2.9649-0.875 0.9687-1.7773 1.914-2.6992 2.8398-0.9219 0.9219-1.8672 1.8203-2.8359 2.6992-0.9688 0.8789-1.9571 1.7305-2.9649 2.5586-1.0117 0.8282-2.039 1.6328-3.0898 2.4102-1.0469 0.7773-2.1172 1.5273-3.2031 2.2539-1.086 0.7266-2.1875 1.4258-3.3086 2.0977-1.1211 0.6679-2.2539 1.3125-3.4063 1.9296-1.1523 0.6133-2.3203 1.2032-3.5 1.7618s-2.375 1.0859-3.582 1.5859c-1.2031 0.5-2.4219 0.9687-3.6524 1.4102-1.2304 0.4414-2.4687 0.8476-3.7187 1.2265s-2.5078 0.7305-3.7774 1.0469c-1.2656 0.3164-2.5391 0.6016-3.8203 0.8594-1.2812 0.2539-2.5664 0.4765-3.8594 0.6679-1.293 0.1914-2.5859 0.3516-3.8867 0.4805-1.3008 0.125-2.6016 0.2227-3.9062 0.2852-1.3047 0.066-2.6094 0.098-3.9141 0.098z"/>
  </g>
  <g clip-path="url(#c85aaa59db)">
   <path d="m1033.6 487.09c-0.871 0-1.7421-0.0391-2.6093-0.125s-1.7266-0.21484-2.5821-0.38281c-0.8515-0.17188-1.6953-0.38282-2.5312-0.63672-0.832-0.25-1.6524-0.54688-2.457-0.87891-0.8047-0.33203-1.5899-0.70312-2.3594-1.1172-0.7696-0.41015-1.5156-0.85546-2.2383-1.3398-0.7266-0.48437-1.4258-1.0039-2.0977-1.5547-0.6718-0.55468-1.3203-1.1367-1.9336-1.7539-0.6171-0.61719-1.2031-1.2617-1.7539-1.9336-0.5546-0.67578-1.0703-1.3711-1.5546-2.0976-0.4844-0.72266-0.9336-1.4688-1.3438-2.2383-0.4102-0.76954-0.7812-1.5547-1.1133-2.3594-0.3359-0.80469-0.6289-1.625-0.8828-2.457-0.25-0.83594-0.4609-1.6797-0.6328-2.5352-0.168-0.85156-0.2969-1.7148-0.3828-2.582-0.086-0.86719-0.1289-1.7344-0.1289-2.6055v-133c0-0.87109-0.043-1.7422-0.1289-2.6094-0.082-0.86719-0.211-1.7266-0.3828-2.582-0.168-0.85157-0.3789-1.6953-0.6329-2.5312-0.2539-0.83203-0.5468-1.6524-0.8789-2.457-0.332-0.80469-0.707-1.5898-1.1171-2.3594-0.4102-0.76953-0.8555-1.5156-1.3399-2.2383-0.4844-0.72656-1.0039-1.4258-1.5547-2.0977-0.5547-0.67187-1.1406-1.3203-1.7539-1.9336-0.61719-0.61719-1.2617-1.2031-1.9336-1.7539-0.67578-0.55468-1.375-1.0703-2.0976-1.5547-0.72656-0.48438-1.4727-0.9336-2.2383-1.3438-0.76953-0.41016-1.5547-0.78125-2.3594-1.1133-0.80469-0.33593-1.625-0.6289-2.4609-0.88281-0.83203-0.25-1.6758-0.46094-2.5312-0.63281-0.85546-0.16797-1.7148-0.29688-2.582-0.38281-0.86718-0.0859-1.7344-0.12891-2.6055-0.12891h-133c-0.87109 0-1.7422-0.043-2.6094-0.12891-0.86719-0.082-1.7266-0.21093-2.582-0.38281-0.85547-0.16797-1.6992-0.3789-2.5312-0.63281s-1.6524-0.54688-2.457-0.87891c-0.80469-0.33203-1.5938-0.70703-2.3594-1.1172-0.76953-0.41016-1.5156-0.85547-2.2422-1.3398-0.72265-0.48437-1.4219-1.0039-2.0938-1.5547-0.67578-0.55468-1.3203-1.1406-1.9336-1.7539-0.61719-0.61719-1.2031-1.2617-1.7539-1.9336-0.55468-0.67578-1.0703-1.375-1.5547-2.0976-0.48438-0.72656-0.9336-1.4727-1.3438-2.2383-0.41016-0.76953-0.78125-1.5547-1.1172-2.3594-0.33203-0.80469-0.625-1.625-0.87891-2.4609-0.25-0.83203-0.46484-1.6758-0.63281-2.5312-0.17187-0.85546-0.29687-1.7148-0.38281-2.582-0.0859-0.86718-0.12891-1.7344-0.12891-2.6055 0-0.87109 0.043-1.7422 0.12891-2.6094 0.0859-0.86719 0.21094-1.7266 0.38281-2.582 0.16797-0.85547 0.38281-1.6992 0.63281-2.5312 0.25391-0.83203 0.54688-1.6524 0.87891-2.457 0.33594-0.80469 0.70703-1.5938 1.1172-2.3594 0.41015-0.76953 0.85937-1.5156 1.3438-2.2422 0.48437-0.72265 1-1.4219 1.5547-2.0938 0.55079-0.67578 1.1367-1.3203 1.7539-1.9336 0.61328-0.61719 1.2578-1.2031 1.9336-1.7539 0.67188-0.55468 1.3711-1.0703 2.0938-1.5547 0.72657-0.48438 1.4727-0.9336 2.2422-1.3438 0.76563-0.41016 1.5547-0.78125 2.3594-1.1172 0.80468-0.33203 1.625-0.625 2.457-0.87891 0.83203-0.25 1.6758-0.46484 2.5312-0.63281 0.85547-0.17187 1.7148-0.29687 2.582-0.38281 0.86719-0.0859 1.7383-0.12891 2.6094-0.12891h133c1.3047 0 2.6094 0.0312 3.9141 0.0977 1.3047 0.0625 2.6055 0.16015 3.9062 0.28515 1.3008 0.12891 2.5938 0.28907 3.8867 0.48047 1.293 0.19141 2.5781 0.41407 3.8594 0.67188 1.2812 0.2539 2.5547 0.53906 3.8203 0.85547 1.2696 0.32031 2.5274 0.66797 3.7774 1.0469 1.25 0.37891 2.4883 0.78906 3.7187 1.2266 1.2305 0.44141 2.4493 0.91016 3.6524 1.4102 1.207 0.5 2.4023 1.0312 3.582 1.5859 1.1797 0.55859 2.3477 1.1484 3.5 1.7617 1.1524 0.61718 2.2852 1.2617 3.4063 1.9297 1.1211 0.67188 2.2226 1.3711 3.3086 2.0977 1.0859 0.72656 2.1562 1.4766 3.2031 2.2539 1.0508 0.77734 2.0781 1.582 3.0898 2.4102 1.0078 0.82813 1.9961 1.6836 2.9649 2.5586 0.9687 0.8789 1.914 1.7773 2.8359 2.7031 0.9219 0.92188 1.8242 1.8672 2.6992 2.8359 0.8789 0.96484 1.7305 1.957 2.5586 2.9648 0.8281 1.0078 1.6328 2.0391 2.4102 3.0859 0.7773 1.0508 1.5312 2.1172 2.2578 3.2031 0.7226 1.0859 1.4219 2.1914 2.0937 3.3086 0.6719 1.1211 1.3164 2.2578 1.9297 3.4102 0.6172 1.1523 1.2032 2.3164 1.7617 3.4961 0.5586 1.1836 1.086 2.375 1.586 3.582s0.9726 2.4258 1.4101 3.6562c0.4414 1.2266 0.8516 2.4688 1.2305 3.7188s0.7266 2.5078 1.043 3.7734c0.3164 1.2656 0.6054 2.5391 0.8594 3.8203 0.2539 1.2812 0.4765 2.5703 0.6679 3.8594 0.1914 1.293 0.3516 2.5898 0.4805 3.8867 0.1289 1.3008 0.2226 2.6055 0.2891 3.9062 0.062 1.3047 0.094 2.6133 0.094 3.918v133c0 0.8711-0.039 1.7383-0.125 2.6055s-0.2148 1.7305-0.3828 2.582c-0.1719 0.85547-0.3828 1.6992-0.6367 2.5352-0.25 0.83203-0.5469 1.6523-0.8789 2.457-0.3321 0.80469-0.7032 1.5898-1.1172 2.3594-0.4102 0.76953-0.8555 1.5156-1.3399 2.2383-0.4843 0.72656-1.0039 1.4219-1.5547 2.0976-0.5546 0.67188-1.1367 1.3164-1.7539 1.9336-0.6171 0.61718-1.2617 1.1992-1.9336 1.7539-0.6757 0.55078-1.371 1.0703-2.0976 1.5547-0.7227 0.48438-1.4688 0.92969-2.2383 1.3398-0.7695 0.41407-1.5547 0.78516-2.3594 1.1172s-1.625 0.62891-2.457 0.87891c-0.8359 0.2539-1.6797 0.46484-2.5352 0.63672-0.8515 0.16797-1.7148 0.29687-2.582 0.38281-0.8672 0.0859-1.7344 0.125-2.6055 0.125z"/>
  </g>
  <g clip-path="url(#05d898c8c0)">
   <path d="m288.79 487.09c-0.87109 0-1.7383-0.0391-2.6055-0.125-0.86718-0.0859-1.7305-0.21484-2.582-0.38281-0.85547-0.17188-1.6992-0.38282-2.5352-0.63672-0.83204-0.25-1.6524-0.54688-2.457-0.87891-0.80468-0.33203-1.5898-0.70312-2.3594-1.1172-0.76953-0.41015-1.5156-0.85546-2.2383-1.3398-0.72656-0.48437-1.4219-1.0039-2.0977-1.5547-0.67187-0.55468-1.3164-1.1367-1.9336-1.7539-0.61719-0.61719-1.1992-1.2617-1.7539-1.9336-0.55078-0.67578-1.0703-1.3711-1.5547-2.0976-0.48437-0.72266-0.92968-1.4688-1.3398-2.2383-0.41406-0.76954-0.78516-1.5547-1.1172-2.3594-0.33593-0.80469-0.6289-1.625-0.8789-2.457-0.25391-0.83594-0.46485-1.6797-0.63672-2.5352-0.16797-0.85156-0.29688-1.7148-0.38281-2.582-0.0859-0.86719-0.12891-1.7344-0.12891-2.6055v-133c0-1.3047 0.0352-2.6133 0.0977-3.918 0.0625-1.3008 0.16015-2.6055 0.28906-3.9062 0.1289-1.2969 0.28906-2.5938 0.48047-3.8867 0.1914-1.2891 0.41406-2.5781 0.66797-3.8594 0.2539-1.2812 0.53906-2.5547 0.85937-3.8203 0.31641-1.2656 0.66406-2.5234 1.043-3.7734s0.78906-2.4922 1.2305-3.7188c0.4375-1.2305 0.91015-2.4492 1.4102-3.6562 0.4961-1.207 1.0274-2.3984 1.5859-3.582 0.5586-1.1797 1.1445-2.3438 1.7617-3.4961 0.61328-1.1524 1.2578-2.2891 1.9297-3.4102 0.67187-1.1172 1.3711-2.2227 2.0938-3.3086 0.72656-1.0859 1.4805-2.1524 2.2578-3.2031 0.77734-1.0469 1.582-2.0781 2.4102-3.0859 0.82812-1.0078 1.6797-2 2.5586-2.9648 0.875-0.96875 1.7773-1.9141 2.6992-2.8359 0.92187-0.92578 1.8672-1.8242 2.8359-2.7031 0.96875-0.875 1.957-1.7305 2.9648-2.5586 1.0117-0.82812 2.0391-1.6328 3.0898-2.4102 1.0469-0.77735 2.1172-1.5274 3.2031-2.2539s2.1875-1.4258 3.3086-2.0977c1.1211-0.66796 2.2539-1.3125 3.4062-1.9297 1.1524-0.61328 2.3203-1.2031 3.5-1.7617 1.1797-0.55469 2.375-1.0859 3.582-1.5859 1.2031-0.5 2.4219-0.96875 3.6524-1.4102 1.2305-0.4375 2.4688-0.84765 3.7188-1.2266 1.25-0.3789 2.5078-0.72656 3.7734-1.0469 1.2695-0.31641 2.543-0.60157 3.8242-0.85547 1.2812-0.25781 2.5664-0.48047 3.8594-0.67188 1.2891-0.1914 2.5859-0.35156 3.8867-0.48047 1.3008-0.125 2.6016-0.22265 3.9062-0.28515 1.3047-0.0664 2.6094-0.0977 3.9141-0.0977h133c0.87109 0 1.7422 0.043 2.6094 0.12891 0.86718 0.0859 1.7266 0.21094 2.582 0.38281 0.85547 0.16797 1.6992 0.38281 2.5312 0.63281 0.83203 0.25391 1.6523 0.54688 2.457 0.87891 0.80469 0.33594 1.5938 0.70703 2.3594 1.1172 0.76953 0.41015 1.5156 0.85937 2.2383 1.3438 0.72657 0.48437 1.4258 1 2.0977 1.5547 0.67578 0.55079 1.3203 1.1367 1.9336 1.7539 0.61719 0.61328 1.2031 1.2578 1.7539 1.9336 0.55469 0.67188 1.0703 1.3711 1.5547 2.0938 0.48437 0.72657 0.93359 1.4727 1.3438 2.2422 0.41015 0.76563 0.78125 1.5547 1.1172 2.3594 0.33203 0.80468 0.625 1.625 0.8789 2.457 0.25 0.83203 0.46485 1.6758 0.63281 2.5312 0.17188 0.85547 0.29688 1.7148 0.38282 2.582 0.0859 0.86719 0.1289 1.7383 0.1289 2.6094 0 0.8711-0.043 1.7383-0.1289 2.6055-0.0859 0.86719-0.21094 1.7266-0.38282 2.582-0.16796 0.85547-0.38281 1.6992-0.63281 2.5312-0.2539 0.83594-0.54687 1.6562-0.8789 2.4609-0.33594 0.80469-0.70704 1.5898-1.1172 2.3594-0.41016 0.76562-0.85938 1.5117-1.3438 2.2383-0.48438 0.72265-1 1.4219-1.5547 2.0976-0.55078 0.67188-1.1367 1.3164-1.7539 1.9336-0.61328 0.61328-1.2578 1.1992-1.9336 1.7539-0.67187 0.55079-1.3711 1.0703-2.0977 1.5547-0.72265 0.48438-1.4688 0.92969-2.2383 1.3398-0.76562 0.41015-1.5547 0.78515-2.3594 1.1172s-1.625 0.625-2.457 0.87891-1.6758 0.46484-2.5312 0.63281c-0.85547 0.17188-1.7148 0.30078-2.582 0.38281-0.86719 0.0859-1.7383 0.12891-2.6094 0.12891h-133c-0.87109 0-1.7383 0.043-2.6055 0.12891-0.86719 0.0859-1.7266 0.21484-2.582 0.38281-0.85547 0.17187-1.6992 0.38281-2.5312 0.63281-0.83594 0.25391-1.6562 0.54688-2.4609 0.88281-0.80468 0.33204-1.5898 0.70313-2.3594 1.1133-0.76563 0.41015-1.5117 0.85937-2.2383 1.3438-0.72266 0.48437-1.4219 1-2.0977 1.5547-0.67187 0.55078-1.3164 1.1367-1.9336 1.7539-0.61719 0.61328-1.1992 1.2617-1.7539 1.9336-0.55078 0.67188-1.0703 1.3711-1.5547 2.0977-0.48437 0.72266-0.92968 1.4688-1.3398 2.2383s-0.78516 1.5547-1.1172 2.3594c-0.33203 0.80468-0.625 1.625-0.8789 2.457-0.25391 0.83593-0.46485 1.6797-0.63282 2.5312-0.17187 0.85547-0.30078 1.7148-0.38672 2.582-0.082 0.86719-0.125 1.7383-0.125 2.6094v133c0 0.8711-0.043 1.7383-0.1289 2.6055s-0.21485 1.7305-0.38281 2.582c-0.17188 0.85547-0.38282 1.6992-0.63672 2.5352-0.25 0.83203-0.54297 1.6523-0.87891 2.457-0.33203 0.80469-0.70312 1.5898-1.1133 2.3594-0.41406 0.76953-0.85938 1.5156-1.3438 2.2383-0.48438 0.72656-1.0039 1.4219-1.5547 2.0976-0.55469 0.67188-1.1367 1.3164-1.7539 1.9336-0.61719 0.61718-1.2617 1.1992-1.9336 1.7539-0.67187 0.55078-1.3711 1.0703-2.0976 1.5547-0.72266 0.48438-1.4688 0.92969-2.2383 1.3398-0.76953 0.41407-1.5547 0.78516-2.3594 1.1172s-1.625 0.62891-2.457 0.87891c-0.83594 0.2539-1.6797 0.46484-2.5312 0.63672-0.85547 0.16797-1.7188 0.29687-2.582 0.38281-0.86719 0.0859-1.7383 0.125-2.6094 0.125z"/>
  </g>
  <path d="m820.79 540.3c0 2.6094-0.0625 5.2227-0.1914 7.8281-0.12891 2.6094-0.32032 5.2148-0.57813 7.8125-0.25391 2.6016-0.57422 5.1914-0.95703 7.7773-0.38281 2.582-0.83203 5.1562-1.3398 7.7188-0.50782 2.5586-1.082 5.1094-1.7148 7.6406-0.63672 2.5352-1.332 5.0508-2.0898 7.5508s-1.5781 4.9805-2.457 7.4375c-0.88282 2.4609-1.8203 4.8945-2.8203 7.3086-1 2.4141-2.0586 4.8008-3.1758 7.1641-1.1172 2.3594-2.2891 4.6914-3.5195 6.9961-1.2344 2.3047-2.5195 4.5742-3.8633 6.8164-1.3438 2.2383-2.7383 4.4453-4.1914 6.6172-1.4492 2.1719-2.9531 4.3047-4.5078 6.4024-1.5586 2.1016-3.1641 4.1602-4.8203 6.1758-1.6562 2.0195-3.3633 3.9961-5.1172 5.9336-1.7539 1.9336-3.5547 3.8281-5.4023 5.6719-1.8477 1.8476-3.7383 3.6484-5.6719 5.4023-1.9375 1.7539-3.9141 3.4609-5.9336 5.1172s-4.0781 3.2617-6.1758 4.8203c-2.0977 1.5547-4.2305 3.0586-6.4024 4.5117-2.1719 1.4492-4.3789 2.8477-6.6211 4.1875-2.2383 1.3438-4.5117 2.6328-6.8125 3.8633-2.3047 1.2305-4.6367 2.4062-7 3.5195-2.3594 1.1172-4.7461 2.1758-7.1602 3.1758-2.4141 1-4.8476 1.9414-7.3086 2.8203-2.4609 0.8789-4.9375 1.6992-7.4375 2.457-2.5 0.75781-5.0156 1.4531-7.5508 2.0898-2.5352 0.63281-5.082 1.207-7.6445 1.7148-2.5586 0.51172-5.1328 0.95704-7.7148 1.3398-2.5859 0.38281-5.1758 0.70312-7.7773 0.96094-2.5977 0.2539-5.2031 0.44531-7.8125 0.57421-2.6094 0.12891-5.2188 0.19141-7.832 0.19141-2.6094 0-5.2188-0.0625-7.8281-0.19141-2.6094-0.1289-5.2148-0.32031-7.8125-0.57421-2.6016-0.25782-5.1914-0.57813-7.7773-0.96094-2.582-0.38281-5.1562-0.82813-7.7148-1.3398-2.5625-0.50781-5.1094-1.082-7.6445-1.7148-2.5352-0.63672-5.0508-1.332-7.5508-2.0898-2.5-0.75782-4.9766-1.5781-7.4375-2.457-2.4609-0.87891-4.8945-1.8203-7.3086-2.8203s-4.8008-2.0586-7.1602-3.1758c-2.3633-1.1133-4.6953-2.2891-7-3.5195-2.3008-1.2305-4.5742-2.5195-6.8164-3.8633-2.2383-1.3398-4.4453-2.7383-6.6172-4.1875-2.1719-1.4531-4.3047-2.957-6.4023-4.5117-2.0977-1.5586-4.1562-3.1641-6.1758-4.8203-2.0195-1.6562-3.9961-3.3633-5.9336-5.1172-1.9336-1.7539-3.8242-3.5547-5.6719-5.4023-1.8477-1.8438-3.6484-3.7383-5.4024-5.6719-1.7539-1.9375-3.4609-3.9141-5.1172-5.9336-1.6562-2.0156-3.2617-4.0742-4.8203-6.1758-1.5547-2.0977-3.0586-4.2305-4.5078-6.4024-1.4531-2.1719-2.8516-4.3789-4.1914-6.6172-1.3438-2.2422-2.6328-4.5117-3.8633-6.8164s-2.4023-4.6367-3.5195-6.9961c-1.1172-2.3633-2.1758-4.75-3.1758-7.1641-1-2.4141-1.9375-4.8476-2.8203-7.3086-0.87891-2.457-1.6992-4.9375-2.457-7.4375-0.75782-2.5-1.4531-5.0156-2.0898-7.5508-0.63281-2.5312-1.207-5.082-1.7148-7.6406-0.51172-2.5625-0.95703-5.1367-1.3398-7.7188-0.38282-2.5859-0.70313-5.1758-0.95704-7.7773-0.25781-2.5977-0.44921-5.2031-0.57812-7.8125-0.12891-2.6055-0.19141-5.2188-0.19141-7.8281 0-2.6133 0.0625-5.2226 0.19141-7.832 0.12891-2.6094 0.32031-5.2148 0.57812-7.8125 0.25391-2.6016 0.57422-5.1914 0.95704-7.7734 0.38281-2.5859 0.82812-5.1562 1.3398-7.7188 0.50781-2.5625 1.082-5.1094 1.7148-7.6445 0.63672-2.5352 1.332-5.0508 2.0898-7.5508 0.75781-2.5 1.5781-4.9766 2.457-7.4375 0.88281-2.457 1.8203-4.8945 2.8203-7.3086s2.0586-4.8008 3.1758-7.1602c1.1172-2.3633 2.2891-4.6953 3.5195-6.9961 1.2305-2.3047 2.5195-4.5781 3.8633-6.8164 1.3398-2.2422 2.7383-4.4492 4.1914-6.6211 1.4492-2.1719 2.9531-4.3047 4.5078-6.4023 1.5586-2.0977 3.1641-4.1562 4.8203-6.1758 1.6562-2.0195 3.3633-3.9961 5.1172-5.9336 1.7539-1.9336 3.5547-3.8242 5.4024-5.6719 1.8476-1.8477 3.7383-3.6484 5.6719-5.4024 1.9375-1.7539 3.9141-3.457 5.9336-5.1172 2.0195-1.6562 4.0781-3.2617 6.1758-4.8164 2.0976-1.5586 4.2305-3.0625 6.4023-4.5117 2.1719-1.4531 4.3789-2.8477 6.6172-4.1914 2.2422-1.3438 4.5156-2.6289 6.8164-3.8633 2.3047-1.2305 4.6367-2.4023 7-3.5195 2.3594-1.1172 4.7461-2.1758 7.1602-3.1758s4.8477-1.9375 7.3086-2.8203c2.4609-0.87891 4.9375-1.6992 7.4375-2.457 2.5-0.75782 5.0156-1.4531 7.5508-2.0859 2.5352-0.63672 5.082-1.207 7.6445-1.7188 2.5586-0.50781 5.1328-0.95703 7.7148-1.3398 2.5859-0.38281 5.1758-0.70312 7.7773-0.95703 2.5977-0.25781 5.2031-0.44922 7.8125-0.57812 2.6094-0.12891 5.2188-0.19141 7.8281-0.19141 2.6133 0 5.2227 0.0625 7.832 0.19141 2.6094 0.1289 5.2148 0.32031 7.8125 0.57812 2.6016 0.25391 5.1914 0.57422 7.7773 0.95703 2.582 0.38282 5.1562 0.83204 7.7148 1.3398 2.5625 0.51172 5.1094 1.082 7.6445 1.7188 2.5352 0.63281 5.0508 1.3281 7.5508 2.0859 2.5 0.75781 4.9766 1.5781 7.4375 2.457 2.4609 0.88281 4.8945 1.8203 7.3086 2.8203 2.4141 1 4.8008 2.0586 7.1602 3.1758 2.3633 1.1172 4.6953 2.2891 7 3.5195 2.3008 1.2344 4.5742 2.5195 6.8125 3.8633 2.2422 1.3438 4.4492 2.7383 6.6211 4.1914 2.1719 1.4492 4.3047 2.9531 6.4024 4.5117 2.0976 1.5547 4.1562 3.1602 6.1758 4.8164 2.0195 1.6602 3.9961 3.3633 5.9336 5.1172 1.9336 1.7539 3.8242 3.5547 5.6719 5.4024 1.8476 1.8476 3.6484 3.7383 5.4023 5.6719 1.7539 1.9375 3.4609 3.9141 5.1172 5.9336 1.6562 2.0195 3.2617 4.0781 4.8203 6.1758 1.5547 2.0976 3.0586 4.2305 4.5078 6.4023 1.4531 2.1719 2.8477 4.3789 4.1914 6.6211 1.3438 2.2383 2.6289 4.5117 3.8633 6.8164 1.2305 2.3008 2.4024 4.6328 3.5195 6.9961 1.1172 2.3594 2.1758 4.7461 3.1758 7.1602s1.9375 4.8516 2.8203 7.3086c0.8789 2.4609 1.6992 4.9375 2.457 7.4375s1.4531 5.0156 2.0898 7.5508c0.63281 2.5352 1.207 5.082 1.7148 7.6445 0.50781 2.5625 0.95703 5.1328 1.3398 7.7188 0.38281 2.582 0.70312 5.1719 0.95703 7.7734 0.25781 2.5977 0.44922 5.2031 0.57813 7.8125 0.1289 2.6094 0.1914 5.2188 0.1914 7.832z"/>
  <path d="m900.59 886.09c0 0.87109-0.043 1.7422-0.1289 2.6094-0.0859 0.86719-0.21094 1.7266-0.38282 2.582-0.16796 0.85546-0.38281 1.6992-0.63281 2.5312-0.2539 0.83593-0.54687 1.6523-0.8789 2.457-0.33594 0.80468-0.70704 1.5938-1.1172 2.3594-0.41016 0.76953-0.85938 1.5156-1.3438 2.2422-0.48438 0.72266-1 1.4219-1.5547 2.0938-0.55078 0.67578-1.1367 1.3203-1.7539 1.9375-0.61328 0.61328-1.2578 1.1992-1.9336 1.75-0.67187 0.55469-1.3711 1.0742-2.0977 1.5547-0.72265 0.48437-1.4688 0.93359-2.2383 1.3438-0.76562 0.41015-1.5547 0.78125-2.3594 1.1172-0.80469 0.33204-1.625 0.625-2.457 0.87891s-1.6797 0.46484-2.5312 0.63281c-0.85547 0.17188-1.7148 0.29688-2.582 0.38282-0.86719 0.0859-1.7383 0.1289-2.6094 0.1289h-425.6c-0.87109 0-1.7422-0.043-2.6094-0.1289s-1.7266-0.21094-2.582-0.38282c-0.85547-0.16797-1.6992-0.3789-2.5312-0.63281s-1.6524-0.54687-2.457-0.87891c-0.80469-0.33593-1.5938-0.70703-2.3594-1.1172-0.76953-0.41016-1.5156-0.85938-2.2422-1.3438-0.72265-0.48047-1.4219-1-2.0938-1.5547-0.67578-0.55078-1.3203-1.1367-1.9336-1.75-0.61719-0.61719-1.2031-1.2617-1.7539-1.9375-0.55468-0.67188-1.0703-1.3711-1.5547-2.0938-0.48438-0.72656-0.9336-1.4727-1.3438-2.2422-0.41016-0.76562-0.78125-1.5547-1.1172-2.3594-0.33203-0.80469-0.625-1.6211-0.87891-2.457-0.25-0.83204-0.46484-1.6758-0.63281-2.5312-0.17187-0.85547-0.29687-1.7148-0.38281-2.582-0.0859-0.86718-0.12891-1.7383-0.12891-2.6094 0-4.5898 0.13281-9.1758 0.39844-13.758 0.26562-4.582 0.66406-9.1524 1.1914-13.711 0.52734-4.5625 1.1836-9.1016 1.9726-13.625 0.78906-4.5195 1.7109-9.0156 2.7578-13.484 1.0469-4.4688 2.2227-8.9062 3.5234-13.309 1.3047-4.3984 2.7305-8.7617 4.2852-13.078 1.5547-4.3203 3.2305-8.5898 5.0312-12.816 1.7969-4.2227 3.7188-8.3867 5.7578-12.5s4.1914-8.1641 6.4648-12.152c2.2734-3.9883 4.6562-7.9102 7.1524-11.758 2.5-3.8516 5.1055-7.6289 7.8203-11.332 2.7148-3.6992 5.5312-7.3203 8.457-10.859 2.9219-3.5391 5.9453-6.9922 9.0664-10.359 3.1211-3.3633 6.3359-6.6367 9.6445-9.8164 3.3125-3.1797 6.7109-6.2656 10.195-9.25 3.4883-2.9844 7.0586-5.8672 10.711-8.6445 2.4258 2.2774 4.9023 4.5 7.4297 6.6641 2.5312 2.1602 5.1094 4.2617 7.7383 6.3047 2.6289 2.0391 5.3008 4.0195 8.0234 5.9336 2.7226 1.9141 5.4883 3.7656 8.2969 5.5469 2.8086 1.7852 5.6562 3.5039 8.5469 5.1524 2.8906 1.6523 5.8164 3.2305 8.7812 4.7461 2.9648 1.5117 5.9648 2.9531 8.9961 4.3203 3.0312 1.3711 6.0938 2.6719 9.1875 3.8945 3.0938 1.2266 6.2148 2.3789 9.3633 3.4609 3.1484 1.0781 6.3203 2.082 9.5156 3.0117 3.1953 0.92578 6.4102 1.7812 9.6445 2.5586 3.2383 0.77735 6.4883 1.4766 9.7578 2.1016s6.5508 1.1719 9.8438 1.6406c3.2969 0.46875 6.6016 0.85938 9.9141 1.1758 3.3125 0.3125 6.6289 0.54688 9.9531 0.70313s6.6523 0.23437 9.9766 0.23437c3.3281 0 6.6562-0.0781 9.9805-0.23437 3.3242-0.15625 6.6406-0.39063 9.9531-0.70313 3.3125-0.3164 6.6172-0.70703 9.9141-1.1758 3.293-0.46875 6.5742-1.0156 9.8438-1.6406 3.2695-0.625 6.5195-1.3242 9.7578-2.1016 3.2344-0.77734 6.4492-1.6328 9.6445-2.5586 3.1953-0.92969 6.3672-1.9336 9.5156-3.0117 3.1484-1.082 6.2695-2.2344 9.3633-3.4609 3.0938-1.2226 6.1562-2.5234 9.1875-3.8945 3.0312-1.3672 6.0312-2.8086 8.9961-4.3203 2.9648-1.5156 5.8906-3.0938 8.7812-4.7461 2.8906-1.6484 5.7383-3.3672 8.5469-5.1524 2.8086-1.7812 5.5742-3.6328 8.2969-5.5469s5.3945-3.8945 8.0234-5.9336c2.6289-2.043 5.207-4.1445 7.7383-6.3047 2.5273-2.1641 5.0039-4.3867 7.4297-6.6641 3.6523 2.7774 7.2226 5.6602 10.711 8.6445 3.4844 2.9844 6.8828 6.0703 10.195 9.25 3.3086 3.1797 6.5234 6.4531 9.6445 9.8164 3.1211 3.3672 6.1445 6.8203 9.0664 10.359 2.9258 3.5391 5.7422 7.1602 8.457 10.859 2.7148 3.7031 5.3203 7.4805 7.8203 11.332 2.4961 3.8477 4.8789 7.7695 7.1523 11.758 2.2734 3.9883 4.4258 8.0391 6.4648 12.152 2.0391 4.1133 3.9609 8.2773 5.7578 12.5 1.8008 4.2266 3.4766 8.4961 5.0312 12.816 1.5547 4.3164 2.9805 8.6797 4.2852 13.078 1.3008 4.4023 2.4766 8.8398 3.5234 13.309 1.0469 4.4688 1.9688 8.9648 2.7578 13.484 0.78907 4.5234 1.4453 9.0625 1.9727 13.625 0.52734 4.5586 0.92578 9.1289 1.1914 13.711 0.26562 4.582 0.39843 9.168 0.39843 13.758z"/>
  <g clip-path="url(#037278a9c8)">
   <path d="m1060 896.61c98.27 0 177.88 79.648 177.88 177.88 0 98.27-79.609 177.88-177.88 177.88-98.227 0-177.88-79.606-177.88-177.88 0-98.23 79.648-177.88 177.88-177.88zm-113.29 173.98 2.8359-3.0899c7.2344-7.8711 19.594-8.4219 27.465-1.1836l46.133 42.445c2.6211 2.4141 6.7266 2.2461 9.1406-0.3789l109.32-119.05c7.2344-7.9141 19.551-8.4219 27.422-1.1836l3.0899 2.8359c7.914 7.2344 8.4218 19.551 1.1875 27.465l-129.63 141.23c-7.2344 7.8711-19.594 8.4219-27.465 1.1836l-68.309-62.844c-7.8711-7.2382-8.4219-19.555-1.1836-27.426z" fill-rule="evenodd"/>
  </g>
 </g>
</svg>
