<?xml version="1.0" encoding="UTF-8"?>
<svg width="2e3" height="2e3" version="1.0" viewBox="0 0 1500 1500" xmlns="http://www.w3.org/2000/svg" zoomAndPan="magnify">
 <defs>
  <clipPath id="1450b80f18">
   <path d="m293 200.88h914v1098h-914z"/>
  </clipPath>
 </defs>
 <g clip-path="url(#1450b80f18)">
  <path d="m1192.7 332.44c-323.66-58.438-431.84-128.74-432.95-129.43-0.03125-0.03125-0.066407-0.03125-0.13672-0.03125-1.7852-1.168-3.707-1.9219-5.6992-2.3711-0.44531-0.066407-0.85547-0.10156-1.3047-0.16797-2.8828-0.41406-5.7305 0.066406-8.4102 1.0977-1.168 0.44531-2.3711 0.71875-3.4688 1.4414-0.035157 0-0.066407 0.03125-0.10156 0.03125-1.0664 0.72266-109.29 70.992-432.91 129.43-8.1719 1.4727-14.109 8.5781-14.109 16.879v413.19c0.13672 13.383 8.582 330.29 449.39 534.01 2.3359 1.0977 4.8086 1.5781 7.2109 1.5781s4.875-0.51562 7.2109-1.5781c440.91-203.71 449.25-520.62 449.39-534.18v-413.02c0-8.3008-5.9375-15.406-14.109-16.879z"/>
 </g>
 <path d="m640.91 881.93-142.16-142.16-48.238 48.238 190.4 190.4 409.09-409.09-48.238-48.238z"/>
</svg>
