<?xml version="1.0" encoding="UTF-8"?>
<svg width="2e3" height="2e3" version="1.0" viewBox="0 0 1500 1500" xmlns="http://www.w3.org/2000/svg" zoomAndPan="magnify">
 <defs>
  <clipPath id="500d6be5a7">
   <path d="m197.43 494h542.25v513.89h-542.25z"/>
  </clipPath>
  <clipPath id="20ce0fcc67">
   <path d="m786.35 507h502.65v500.89h-502.65z"/>
  </clipPath>
 </defs>
 <g clip-path="url(#500d6be5a7)">
  <path d="m654.43 789.36c0 9.6328-6.168 18.18-15.312 21.238-43.629 14.484-103.98 23.445-170.6 23.445-66.598 0-126.95-8.9609-170.6-23.445-9.1211-3.0586-15.309-11.605-15.309-21.238v-186.07c0-11.277 9.1406-20.41 20.449-20.41h330.95c11.305 0 20.426 9.1328 20.426 20.41zm0 89.648c0 22.73-21.523 41.172-48.051 41.172h-59.996c-14.02 0-18.504-16.168-5.9727-21.566l95.43-41.016c8.5312-3.668 18.59 1.6406 18.59 9.8359zm-263.78 41.172h-59.996c-26.531 0-48.051-18.441-48.051-41.172v-11.574c0-8.1953 10.059-13.504 18.59-9.8359l95.43 41.016c12.531 5.3984 8.0469 21.566-5.9727 21.566zm-20.559-393.48c0-3.3672 2.7305-6.0781 6.0781-6.0781h184.71c3.3516 0 6.0586 2.7109 6.0586 6.0781v29.367c0 3.3633-2.707 6.0742-6.0586 6.0742h-184.71c-3.3477 0-6.0781-2.7109-6.0781-6.0742zm359.89 97.695h-5.7305v-5.125c0-9.6133-7.8242-17.434-17.453-17.434h-21.57v-49.879c0-6.5547-1.4414-12.781-3.9805-18.398-5.9062-13.109-18.348-22.027-32.457-24.824-2.625-0.52344-5.2461-1.0234-7.8516-1.5078-83.289-15.316-172.42-12.039-172.42-12.039s-89.129-3.2773-172.39 12.039c-2.625 0.48438-5.2266 0.98438-7.8516 1.5078-14.109 2.7969-26.555 11.715-32.484 24.824-2.5117 5.6172-3.957 11.844-3.957 18.398v49.879h-21.566c-9.6289 0-17.457 7.8203-17.457 17.434v5.125h-5.7305c-5.2891 0-9.5781 4.2852-9.5781 9.5703v74.844c0 5.2852 4.2891 9.5703 9.5781 9.5703h24.586c5.2891 0 9.5781-4.2852 9.5781-9.5703v-74.844c0-5.2852-4.2891-9.5703-9.5781-9.5703h-5.7305v-5.125c0-2.3828 1.9414-4.3164 4.332-4.3164h21.566v289.95c0 23.441 13.945 43.602 33.984 52.715v38.84c0 6.3281 5.1328 11.453 11.465 11.453h59.625c6.332 0 11.465-5.125 11.465-11.453v-33.652h200.32v33.652c0 6.3281 5.1328 11.453 11.465 11.453h59.625c6.332 0 11.465-5.125 11.465-11.453v-38.84c20.039-9.1133 33.98-29.273 33.98-52.715v-289.95h21.57c2.3867 0 4.3281 1.9336 4.3281 4.3164v5.125h-5.7266c-5.293 0-9.582 4.2852-9.582 9.5703v74.844c0 5.2852 4.2891 9.5703 9.582 9.5703h24.582c5.293 0 9.582-4.2852 9.582-9.5703v-74.844c0-5.2852-4.2891-9.5703-9.582-9.5703" fill="#100f0d"/>
 </g>
 <g clip-path="url(#20ce0fcc67)">
  <path d="m1283.1 512.25c-18.699-18.676-92.965 17.742-117.85 42.645l-64.348 64.352-279.6-49.34c-2.1328-0.38281-4.3281 0.30078-5.8633 1.8359l-26.566 26.586c-1.5156 1.5156-2.2188 3.668-1.8789 5.7812 0.34375 2.1094 1.6641 3.9219 3.582 4.8828l218.81 109.4-92.668 118.57-82.133-14.5c-2.1523-0.33984-4.3281 0.30078-5.8633 1.8359l-19.938 19.934c-1.4727 1.4727-2.1953 3.582-1.8984 5.6523 0.34375 2.1094 1.5781 3.9219 3.4336 4.8828l67.633 36.418-17.27 34.52c-1.2773 2.5586-0.76562 5.6523 1.2578 7.6562 1.3008 1.2773 2.9844 1.918 4.7109 1.918 1.0039 0 2.0273-0.21094 2.9648-0.67969l34.523-17.273 36.418 67.637c1 1.832 2.8125 3.1094 4.8828 3.4531 0.32031 0.042969 0.61719 0.042969 0.95703 0.042969 1.75 0 3.4336-0.66016 4.7148-1.9219l19.934-19.957c1.5352-1.5352 2.2188-3.707 1.8555-5.8203l-14.5-82.176 118.57-92.668 109.41 218.81c0.95703 1.918 2.793 3.2383 4.8828 3.582 0.36328 0.0625 0.70312 0.082032 1.1094 0.082032 1.7461 0 3.3906-0.67969 4.668-1.9375l26.609-26.59c1.4922-1.5352 2.2188-3.7109 1.8359-5.8633l-49.34-279.6 64.352-64.348c24.902-24.883 61.301-99.109 42.602-117.81z"/>
 </g>
</svg>
