<?xml version="1.0" encoding="UTF-8"?>
<svg width="1980" height="1980" version="1.0" viewBox="0 0 1485 1485" xmlns="http://www.w3.org/2000/svg" zoomAndPan="magnify">
 <defs>
  <clipPath id="9bd65b839a">
   <path d="m1109 168.8h167v181.2h-167z"/>
  </clipPath>
  <clipPath id="f53541c851">
   <path d="m251.07 168.8h982.5v982.5h-982.5z"/>
  </clipPath>
  <clipPath id="1c92b390bd">
   <path d="m248.15 124.61h988.5v988.5h-988.5z"/>
  </clipPath>
  <clipPath id="53db7aba2f">
   <path d="m462 191.43h552v855h-552z"/>
  </clipPath>
 </defs>
 <g transform="translate(-.91641 -31.4)">
  <g>
   <path d="m930.02 1346.6s-150.6-174.76-327.16-125.93c-81.211 33.156-129.02 56.543-155.23 61.684-25.957 4.625-87.121 9.5078-124.39-15.68 68.363 62.453 131.84 66.309 178.62 57.566 46.773-8.9922 93.547-47.031 105.62-56.797 12.336-9.5078 56.797-62.449 143.15-28.27 62.449 29.297 141.87 115.39 155.23 130.81l24.156-23.387"/>
   <path d="m601.84 1217.3c-0.25782 0-69.906 29.297-69.906 29.297-40.863 17.477-67.848 28.785-85.066 32.125-7.9648 1.543-79.41 13.621-121.56-15.164l-4.3711 5.3984c0 0.2578 0.25782 0.5117 0.25782 0.5117 55.77 50.629 116.68 70.164 181.44 58.082 31.098-5.9101 67.078-24.926 106.66-57.055 0.51172-0.2579 5.1367-4.3672 5.1367-4.3672 16.191-14.648 59.113-53.715 134.93-23.645 60.395 28.27 137.75 110.77 153.69 129.79l2.5703 2.8281 29.297-28.27-2.3125-2.5703c-1.543-1.8008-153.94-175.79-330.75-126.96zm-153.43 68.359c17.73-3.3398 44.973-14.906 86.094-32.637l69.645-29.043c164.48-45.488 307.36 107.43 321 122.33-3.5977 3.5976-15.422 14.906-19.273 18.504-19.789-22.613-94.062-101-153.95-128.76-79.926-31.863-125.16 9.2539-142.38 24.93l-4.1133 3.8555c-39.062 31.356-74.016 50.117-104.34 55.77-55.254 10.535-107.68-4.3711-156.51-41.637 43.434 15.164 96.633 7.9688 103.83 6.6836"/>
   <path d="m569.19 1212.7s-97.148 20.816-133.64 31.356c-36.492 10.793-159.85 12.848-231.8-96.633 57.055 46.773 126.96 46.773 154.97 45.746 28.273-0.7735 101 10.023 136.73 16.703-0.77344-6.6797-36.75-14.648-47.547-20.301-10.793-5.6562-41.117-14.652-77.871-94.836-12.336-24.414-14.391-38.035-22.871-45.488 15.418 2.3125 45.488 34.695 54.742 44.461 9.25 9.7657 65.277 74.27 97.145 90.719 31.867 16.707 47.547 24.672 70.16 28.27"/>
   <path d="m344.84 1052.1c4.625 3.8555 7.1953 10.024 11.051 19.531l11.051 24.672c34.18 74.789 62.707 88.41 76.328 95.09l2.8281 1.2852 19.789 7.1953c2.0547 0.7734 4.8828 1.8007 7.4531 2.5703-36.75-5.9102-90.465-13.363-114.62-12.59-62.453 1.7969-113.85-13.367-152.66-45.234l-5.3945 4.8828c69.387 105.11 190.95 111.28 235.93 97.918 35.723-10.539 132.36-30.84 133.38-31.098l-0.25782-6.9414c-22.355-3.8555-38.035-11.82-69.133-28.012-26.98-14.137-72.73-64.504-89.949-83.524l-6.168-6.6836-2.3125-2.3125c-19.273-20.301-40.863-41.117-54.484-42.918l-2.8281 6.1679zm123.11 141.09-18.504-6.6836-3.0859-1.543c-12.078-5.6523-39.836-19.273-72.988-91.746 0-0.2578-11.051-24.418-11.051-24.418-2.0547-5.3946-4.625-7.9649-6.9375-11.82 14.133 8.2227 33.41 28.012 41.633 36.75l2.3125 2.3125 5.9102 6.6836c17.477 19.016 63.996 70.418 92.266 85.066 24.156 12.594 39.32 20.301 55.512 24.93-29.043 6.4219-90.98 19.789-118.48 28.012-40.863 12.078-146.75 6.6797-214.85-78.387 37.523 24.16 84.039 36.234 139.3 34.438 26.984-0.7695 97.145 9.2539 135.7 16.449l4.625 1.0274-0.51563-4.8828c0-1.0274-2.0547-1.8008-2.8242-2.8281l-0.25781-0.2579c-3.3398-4.1093-11.051-7.7109-27.754-13.105"/>
   <path d="m389.81 1173.6s-48.828-13.363-85.066-18.504c-36.492-4.8828-163.71-37.008-213.31-186.33 50.113 58.34 61.422 61.937 90.719 76.586 29.555 14.648 118.48 65.277 149.32 93.035l8.9961 5.1367s3.082-3.8515-10.539-15.418c-13.105-11.82-58.082-52.688-65.02-144.18-5.6523-40.348-14.648-77.098-17.477-81.984 20.305 11.566 44.203 58.34 49.086 71.449 4.8828 13.363 37.781 105.62 42.148 116.68 4.1133 10.793 30.84 69.391 51.145 83.523"/>
   <path d="m244.34 903.54c2.3125 4.1133 11.305 39.836 16.961 80.957 3.3398 42.918 17.477 103.31 66.305 146.23 0.25781 0 0.25781 0 0.25781 0.2578-33.926-28.012-114.62-74.016-144.18-88.664l-4.625-2.5703c-25.441-12.594-38.293-18.762-84.809-73.246l-6.168 3.3438c53.969 162.68 199.69 186.84 216.14 188.89 35.723 4.625 84.035 18.504 84.551 18.504l3.0859-6.168c-18.762-13.363-44.977-69.133-50.117-82.238l-41.891-116.42c-4.625-12.078-28.785-60.91-50.629-73.504l-4.8828 4.6289zm98.945 242.1c0.76953-0.7734 1.0273-1.8008 1.0273-3.0859 0-3.3399-2.3125-8.7383-12.078-16.961-46.777-41.633-60.652-99.973-63.738-141.87-3.8555-27.754-9.5078-54.738-13.879-70.418 16.961 16.965 34.438 50.371 38.551 61.426l42.148 116.68c2.8281 7.4531 23.902 53.715 43.691 75.816-16.449-4.1133-48.062-12.078-74.016-15.422-14.906-2.0547-143.66-24.926-201.49-164.22 34.953 38.809 49.344 47.289 72.215 58.598l4.8828 2.3125c30.586 15.422 118.22 65.277 148.55 92.52 0.51563 0.5156 9.7656 5.6563 9.7656 5.6563l2.5703 1.5429 1.8008-2.5703"/>
   <path d="m253.85 1051.8s-61.164-35.726-94.832-61.941c-33.668-26.469-128.24-95.344-118.48-217.68 14.648 39.578 38.551 75.559 64.508 97.402 25.957 22.102 72.988 91.492 84.293 107.68 11.055 16.191 18.762 20.562 18.762 20.562s3.5976-7.9688-8.9922-21.848c-9.2539-14.902-25.957-49.855-16.965-126.18 11.309-70.934 15.422-87.895 13.363-98.945 9.7695 24.926 22.617 78.641 27.5 162.68 2.8281 47.547 8.2226 84.297 14.391 100.49 6.4258 15.934 16.449 37.777 16.449 37.777"/>
   <path d="m192.17 751.66c0.25781 1.5391 0.25781 3.3398 0.25781 5.3945 0 7.9688-2.0586 20.562-6.4258 47.289l-7.1953 44.977c-1.8008 15.164-2.8281 29.043-2.8281 42.148 0 35.98 6.6836 65.02 20.047 86.352 4.3672 4.625 6.4258 8.2227 7.707 11.309-3.082-3.0859-6.9375-7.1992-11.562-13.879 0 0-3.8555-5.3984-3.8555-5.3984-15.422-22.613-57.055-82.496-80.957-102.8-25.441-21.586-49.086-57.309-63.734-96.117l-6.6836 1.0312c-9.5078 119.76 78.387 188.12 115.91 217.68l3.8555 2.8281c33.41 26.215 94.578 62.195 95.09 62.449l5.1406-4.3672-16.191-37.781c-6.168-16.449-11.566-53.457-14.391-99.461-5.9102-101.77-22.617-151.11-27.5-163.71l-6.6797 2.0547zm0.76953 53.711c2.8281-16.191 4.3711-26.473 5.3984-34.695 6.9375 24.16 16.703 69.391 21.074 143.15 2.8281 46.52 8.2226 84.297 14.906 101.52 0 0 7.1953 16.707 11.82 28.016-18.246-11.051-59.625-36.496-85.066-56.285l-3.8555-3.082c-34.695-27.242-113.85-88.922-113.85-194.29v-3.8555c15.164 34.953 35.723 66.566 59.367 86.609 23.387 19.531 64.508 79.156 79.926 101.52l3.5977 5.3984c11.566 16.445 19.789 21.328 20.047 21.586l3.5977 2.0547 1.2852-3.8516c0.77344-1.0312 4.1133-10.539-9.5078-25.703-16.961-27.238-22.359-68.875-15.934-123.1l7.1953-44.977"/>
   <path d="m152.08 881.43s-21.074-32.895-40.094-54.484c-19.016-21.074-103.05-116.16-59.625-276.54 0 37.266 5.1406 58.336 8.9961 71.703 4.3672 13.105 46.004 102.54 50.117 126.7 4.1094 24.16 11.051 69.648 20.816 74.789 3.5977-2.3125-0.51562-10.281-1.8008-17.734-1.5391-7.1953-13.621-69.387 22.875-136.98 33.152-59.367 39.32-65.02 44.203-85.582 1.5391 38.809-11.051 115.65-21.074 148.03-9.7656 32.125-36.238 106.91-24.418 150.09"/>
   <path d="m109.41 829.52c18.504 20.816 39.578 53.453 39.578 53.711l6.4258-2.8242c-10.281-37.523 10.023-101.77 20.816-136.47l3.5977-11.566c9.5117-30.84 22.875-108.71 21.332-149.31l-6.9375-0.77343c-3.6016 14.137-7.4531 21.332-21.074 44.719l-22.875 40.348c-21.586 39.836-26.469 78.129-26.469 104.86 0 15.68 1.7969 26.473 2.8242 32.125-4.625-15.676-8.7383-38.551-11.051-50.887l-0.76953-5.1367c-2.8281-16.965-22.359-62.453-36.75-95.605l-13.109-31.609c-3.8516-12.336-8.9922-33.41-8.9922-70.676l-6.9414-1.0274c-28.527 105.11-6.9375 204.57 60.395 280.13zm5.1406-4.8828c-46.773-52.172-70.676-116.42-70.676-186.07 0-19.531 2.5703-39.32 6.168-59.367 1.8008 20.816 5.1406 34.695 7.9688 43.949l13.621 32.379c13.363 30.84 33.668 77.871 36.238 93.805l0.76953 5.3984c6.4258 36.238 12.336 66.82 22.102 71.957l1.8008 0.77344 1.7969-1.0274c2.0586-1.2852 2.8281-3.6016 2.8281-5.9141 0-2.8242-0.76953-5.9102-1.8008-8.9922l-1.5391-6.168c-1.0273-4.6289-3.0859-16.449-3.0859-33.414 0-25.699 4.8828-62.707 25.957-101.26l22.617-40.09c6.4219-11.309 10.793-18.762 13.875-25.445-2.0547 41.637-12.336 99.461-20.043 125.16l-3.5976 11.566c-9.5117 30.066-24.16 76.074-24.16 113.85 0 4.1133 1.0273 7.7109 1.543 11.566-7.9688-11.566-20.305-29.043-32.383-42.664"/>
   <path d="m116.87 686.37s-12.59-51.141-28.012-92.004c-15.418-41.121-44.977-136.47 31.609-235.93-16.191 39.578-9.7656 65.277-9.7656 69.648 0 4.3672 9.5078 92.262 9.7656 114.11 0.25782 28.012-4.8828 76.328-4.8828 76.328s1.8008 5.9102 5.6562 0c2.3125-3.5976 7.4492-66.051 44.973-103.31 34.695-34.695 62.965-60.91 70.676-75.301 0 25.441-14.648 62.965-26.73 83.266-11.82 20.559-60.906 87.895-72.215 110.51-11.051 22.875-21.074 49.859-21.074 52.688"/>
   <path d="m85.516 595.65c15.16 40.094 27.754 91.234 28.012 91.75l6.9375-0.76953c0.25782-2.8281 9.5117-28.27 20.816-51.145 6.4258-13.363 26.215-42.402 43.949-68.102l28.012-42.406c13.105-22.359 26.984-59.879 26.984-85.066l-6.4258-1.8008c-6.168 11.566-26.215 31.355-51.914 56.539l-18.246 17.992c-31.098 30.84-40.609 79.152-44.203 97.145 0 0-0.77344 4.1133-1.0312 5.9141 1.2852-6.4258 5.3984-73.504 5.3984-73.504l-7.1953-90.207-2.5703-27.242c-0.51562-3.0859-1.0273-7.9688-1.0273-14.391 0-11.824 2.0547-29.043 10.535-50.629l-5.9102-3.5976c-54.227 70.676-65.02 151.12-32.125 239.52zm6.6797-2.5703c-12.078-32.379-18.246-63.734-18.246-93.805 0-42.145 12.594-81.723 36.238-118.99-2.8281 11.82-4.1133 22.359-4.1133 30.07 0 6.6797 0.51562 11.82 0.77344 15.16 0.51172 2.5703 2.5664 27.242 2.5664 27.242l7.4531 89.438-4.8828 75.812c0.51562 2.3164 1.8008 6.168 5.3984 6.4258 2.5703 0.51563 4.8828-1.0273 6.6836-4.1094l2.3125-9.2539c3.5976-17.477 12.594-63.992 42.148-93.289l18.504-18.246c21.074-20.82 35.465-35.727 44.715-47.805-3.3398 24.16-15.16 53.711-24.672 69.902l-27.754 41.891c-17.734 25.699-37.781 55-44.461 68.621-6.6836 13.621-13.363 30.066-17.477 41.633-4.8828-17.477-14.137-51.656-25.187-80.699"/>
   <path d="m138.97 512.14s5.6562-14.137 0.51562-71.191c-5.3984-57.055-7.7109-134.92 80.699-187.35-22.105 37.008-25.703 43.434-32.383 73.758-6.6836 30.07-14.137 78.387-26.215 105.63-4.8828 13.363-7.9688 23.902-5.6524 25.184 2.0547 1.2852 3.082-1.0273 4.625-5.6523 2.0547-4.625 20.047-45.488 56.539-71.445 36.492-25.961 69.391-51.918 81.727-77.617-5.3984 47.547-23.387 64.508-41.375 88.41-19.535 25.957-89.695 80.184-101.52 97.914-12.082 17.477-16.965 22.359-16.965 22.359"/>
   <path d="m135.88 441.2c5.1406 54.738-0.2539 69.387-0.2539 69.387l5.6523 4.1133 17.477-23.129c5.3984-7.9688 24.414-24.676 44.203-42.406 23.129-20.305 47.031-41.375 57.312-55.254l7.1953-9.2539c15.422-19.789 30.07-38.551 34.953-80.695l-6.6836-2.0586c-12.336 25.445-46 51.656-80.699 76.328-26.469 18.762-43.176 44.977-51.656 60.652 0.51563-1.8008 0.76953-2.3125 1.543-4.625 9.25-20.562 15.418-52.941 21.332-81.211l4.8828-24.93c6.6797-29.297 9.7656-35.207 32.121-72.73l-4.8828-4.8828c-95.09 56.539-86.863 143.92-82.496 190.7zm9.2539 41.375c0-10.539-0.51563-24.16-2.3125-41.891-1.0274-11.051-2.0586-24.418-2.0586-39.062 0-41.633 12.336-93.293 66.824-133.38-13.621 23.129-17.734 33.152-23.133 58.34l-5.3945 24.926c-5.3984 28.012-11.824 59.879-20.816 80.184-4.8828 13.109-6.6836 20.305-6.6836 24.418 0 2.8281 1.0273 4.1094 2.5703 5.1406l1.2852 0.76953 3.082-0.25781c2.8281-1.0274 4.1133-4.1133 5.3984-8.2227 1.8008-4.1133 20.047-44.461 55.254-69.648 29.043-20.559 56.539-42.402 72.988-63.992-5.9102 28.012-17.219 43.688-30.324 60.652l-7.1992 8.9961c-10.023 13.363-34.438 35.207-56.281 54.484-21.074 18.758-39.578 34.949-45.488 43.688 0 0-4.1133 5.6523-8.2266 11.051 0.25782-4.3672 0.51563-9.25 0.51563-16.191"/>
   <path d="m205.02 360.76s11.562-60.395 34.691-96.117c23.133-35.723 71.191-67.336 121.82-83.012-17.734 14.906-28.527 28.27-34.695 39.062-6.168 10.535-44.461 70.418-61.938 89.438-17.992 19.016-46.773 36.234-59.879 50.625"/>
   <path d="m236.64 262.58c-23.133 35.98-34.438 95.086-34.953 97.402l6.168 3.082 25.699-21.844 33.668-28.785c18.246-19.531 56.797-79.672 62.707-89.949 7.1953-12.594 18.504-25.445 33.926-38.297l-3.3398-5.9102c-53.457 16.449-100.75 48.828-123.88 84.297zm6.168 3.8555c19.531-30.328 58.594-57.824 103.31-75.047-8.9961 9.2539-16.961 18.504-22.359 27.5-5.9102 10.023-43.945 69.645-61.68 88.922 0 0-43.43 36.75-51.398 43.43 4.3672-18.504 15.164-58.594 32.125-84.809"/>
   <path d="m570.21 1351.2s146.23-178.62 323.82-134.16c82.238 31.098 130.3 53.199 156.77 57.312 26.215 4.3711 87.121 7.711 123.87-18.762-66.82 64.254-130.3 69.906-177.07 62.195-47.031-7.7109-94.578-44.461-106.91-53.969-12.336-9.5078-58.594-60.91-143.66-24.672-62.195 30.84-139.3 118.73-152.14 134.67l-24.672-22.617"/>
   <path d="m567.39 1348.9-2.0547 2.5703 30.066 27.5 2.3164-3.0859c15.676-19.274 91.234-103.83 150.86-133.64 74.785-31.867 118.73 6.168 135.18 20.559l4.625 3.8555c40.863 31.098 77.102 49.602 108.71 54.742 64.766 10.277 125.42-10.797 179.64-62.707 0.2539-0.2579 0.2539-0.2579 0.2539-0.5157l-4.3672-5.3984c-41.633 29.812-113.34 19.531-121.3 18.246-17.219-2.8242-43.945-13.363-84.551-29.551l-71.449-27.758c-178.1-44.719-326.39 133.38-327.94 135.18zm325.88-128.5 70.934 27.758c41.117 16.191 68.102 26.984 86.094 29.812 6.6797 1.0273 57.309 7.9648 99.457-6.4258-46.773 36.492-97.402 51.398-151.63 42.66-30.066-4.8828-65.535-22.613-104.86-52.941-0.51172-0.2539-4.8828-3.8516-4.8828-3.8516-17.477-15.164-63.734-55.254-142.89-21.332-58.852 29.043-131.58 109.22-150.86 132.61-3.8555-3.3398-15.934-14.648-19.531-17.73 13.105-15.422 152.14-171.93 318.16-130.56"/>
   <path d="m927.71 1208.3s97.66 17.988 134.16 27.754c36.75 9.7657 160.37 8.7383 229.77-102.54-56.027 48.316-126.19 50.117-154.2 49.859-28.012-0.2578-100.74 12.336-135.95 20.047 0.5156-6.9414 36.234-15.676 47.031-21.59 10.539-5.9102 40.606-15.676 75.301-96.887 12.078-24.676 13.621-38.551 22.102-46.004-15.418 2.8281-44.719 35.98-53.711 45.746-9.2539 10.277-63.738 76.07-95.094 93.289-31.352 17.734-47.027 25.699-69.387 30.324"/>
   <path d="m1092.2 1079.6-2.5703 2.8242-6.9414 7.711c-16.703 19.273-60.906 70.418-87.121 84.809-31.867 17.992-47.031 25.445-68.621 29.812v6.9414c0.77344 0.2539 97.918 18.246 134.16 27.754 45.23 12.336 166.79 3.082 233.36-104.09l-5.1367-4.3672c-38.297 32.894-89.438 49.344-151.63 48.828-24.418-0.2578-77.617 8.4805-114.62 15.676 2.5664-1.0274 5.3945-2.0547 7.707-2.8282l19.277-7.707 3.0821-1.543c12.336-6.1679 41.375-21.074 74.016-96.891l10.535-24.926c3.6015-9.5117 6.1679-15.934 10.281-19.789l-2.8281-6.168c-13.363 2.3125-34.18 23.387-52.938 43.945zm-93.293 101.77c27.242-15.418 70.676-65.277 89.18-86.606l6.6836-7.4531 2.8242-3.086c7.9688-8.7383 26.473-28.527 40.094-37.266-2.0586 3.8555-4.625 6.6836-6.6836 12.082l-10.277 24.414c-31.613 73.762-59.113 87.637-70.934 93.805l-3.0859 1.543-18.246 7.1953c-16.703 5.9101-24.156 9.7656-27.496 13.879l-0.2578 0.2578c-0.77345 1.0273-2.5703 2.0547-2.8281 3.082l-0.25781 4.8828 4.625-1.2851c32.898-7.1953 106.4-20.047 135.18-19.789 55.254 0.2578 101.52-12.848 138.52-38.293-66.309 87.121-171.93 95.09-213.05 84.039-27.496-7.4531-89.949-19.531-119.25-24.93 15.676-5.1406 30.582-12.848 55.254-26.473z"/>
   <path d="m1106.3 1164.6s48.059-14.906 84.297-20.562c36.492-5.9101 162.94-41.375 208.68-191.98-48.57 59.625-59.621 63.48-88.664 79.156-29.043 15.164-116.93 67.848-147.26 96.375l-8.9922 5.3946s-2.5703-3.5977 10.277-15.418c13.109-12.078 57.055-54.227 61.938-145.98 4.6289-40.348 12.852-77.102 15.68-82.496-20.047 12.336-42.922 59.879-47.547 72.988-4.625 13.363-35.465 106.4-39.32 117.45-4.1133 11.051-29.297 70.16-49.086 85.066"/>
   <path d="m1191.4 961.11-39.32 117.45c-5.1406 13.621-29.812 69.644-48.062 83.266l3.0859 6.168c0.5118 0 48.57-14.906 84.297-20.562 16.191-2.5664 161.39-30.324 211.51-194.29l-6.1679-3.3398c-45.742 56.023-57.566 62.195-83.266 75.813l-4.625 2.3164c-28.785 15.418-107.17 62.707-141.35 91.746 47.547-44.461 60.394-104.86 62.707-147.77 4.625-41.375 12.594-76.844 15.164-80.957l-5.1407-4.8828c-21.586 13.363-44.461 62.965-48.828 75.043zm-32.641 119.76 39.32-117.45c3.8555-11.309 20.562-44.977 37.008-62.449-3.8554 15.676-8.7383 42.145-12.078 70.16-3.3398 60.906-23.644 109.23-60.652 143.92-8.9961 8.2266-11.562 13.621-11.562 16.965 0 1.2813 0.2539 2.5664 1.0273 3.3399l1.7969 2.3125 11.566-6.9375c30.066-28.016 116.68-80.188 147-96.375l4.3672-2.3164c22.875-12.078 37.008-20.816 71.191-60.906-54.227 140.84-182.47 166.79-197.63 169.36-25.703 4.1094-57.055 12.594-73.504 17.477 19.273-22.359 38.805-67.848 42.148-77.102"/>
   <path d="m1239.2 1039.5s60.137-37.52 93.289-64.762c32.898-26.984 125.93-98.172 113.34-220.25-13.879 39.832-36.754 76.328-62.195 98.945-25.445 22.613-70.676 93.289-81.469 109.73-11.051 16.449-18.504 21.074-18.504 21.074s-3.8554-7.9648 8.4805-22.355c8.7383-14.648 24.926-50.371 13.879-126.19-12.852-70.934-17.219-87.637-15.68-98.43-8.9922 24.926-20.559 78.641-23.387 162.94-1.5391 47.805-6.4258 84.555-12.336 100.75-5.9102 16.445-15.418 38.551-15.418 38.551"/>
   <path d="m1263.3 900.2c-1.543 46-6.168 83.266-12.078 99.457l-15.164 38.551 5.1406 4.3711c0.5117-0.5156 60.652-38.035 93.547-65.02l3.8554-3.0859c36.75-30.324 123.1-100.74 110.77-220.5l-6.9375-0.77343c-13.621 39.578-35.98 75.301-61.168 97.66-23.387 20.816-63.477 81.727-78.641 104.86l-3.5977 5.6523c-4.625 6.6836-8.2226 10.797-11.051 13.879 1.0274-2.8242 2.8282-6.4258 6.6836-11.051 12.336-20.559 18.504-48.059 18.504-81.469 0-14.906-1.0273-30.84-3.5976-47.543 0-0.25781-8.4805-45.746-8.4805-45.746-5.1406-27.242-7.4531-39.578-7.4531-47.289 0-1.543 0-3.082 0.2539-4.3672l-6.6797-1.8008c-4.8828 12.852-20.305 62.707-23.902 164.22zm-5.3985 102.03c6.168-16.965 11.051-54.996 12.594-101.77 2.5703-73.762 11.309-118.99 17.734-143.41 1.0274 7.9688 2.8243 18.246 5.9102 33.668l8.4805 45.488c2.3125 16.707 3.5976 32.383 3.5976 46.773 0 31.867-5.9101 58.082-17.219 77.102-7.711 8.9961-9.5078 16.191-9.5078 20.559 0 2.8281 0.7695 4.6289 1.0273 4.8828l1.543 3.8555 3.3398-2.0547c0.5156-0.25782 8.4805-5.3984 19.531-22.102l3.8554-5.6562c14.906-22.871 54.484-83.266 77.356-103.31 22.875-20.559 42.664-52.688 56.797-87.895 0.2578 2.8281 0.5156 5.9102 0.5156 8.7383 0 102.29-75.816 164.48-109.48 191.98l-3.8554 3.0859c-24.93 20.559-65.535 47.031-83.524 58.594 4.3672-11.051 11.309-28.527 11.309-28.527"/>
   <path d="m1336.8 866.27s20.301-33.41 38.809-55.254c18.504-21.59 100.48-118.99 53.195-278.07 0.7734 37.266-3.5977 58.594-7.4532 71.957-3.8554 13.109-43.176 103.57-46.773 127.73-3.8555 24.418-9.7656 69.906-19.531 75.301-3.3398-2.0547 0.7696-10.277 1.8008-17.473 1.2852-7.4531 11.82-70.164-26.215-136.47-34.438-58.34-40.863-64.25-46.004-84.555-0.7696 38.809 13.879 115.39 24.16 147.26 10.793 32.125 39.062 106.14 28.012 149.57"/>
   <path d="m1425.3 532.94v9.5078c0 24.414-2.3125 44.461-7.1953 61.422l-12.852 33.156c-13.363 33.152-31.609 78.641-34.18 95.09l-1.0273 6.9375c-1.8008 12.594-5.1406 33.926-9.2539 48.832 0.7695-5.1406 2.0547-13.879 2.0547-26.73 0-26.73-5.1367-67.074-29.297-108.97l-23.902-39.836c-13.879-22.871-17.988-30.066-21.586-43.688l-7.1992 0.76953c-0.5117 40.094 14.652 117.71 24.672 148.55l4.1133 11.82c11.562 34.184 33.41 97.918 23.902 135.7l6.4219 2.5703c0.2578-0.25391 20.305-33.41 38.551-54.738 65.535-77.102 84.555-177.07 53.715-281.42l-6.9414 1.0312zm-68.363 278.07c9.7696-5.3984 14.906-35.469 20.047-70.934l1.0273-6.6836c2.5704-15.934 21.332-62.707 33.668-93.805l13.109-33.668c2.5703-8.9961 5.1406-24.672 6.4219-45.742 5.1406 22.871 8.2265 45.488 8.2265 67.59 0 66.82-22.359 129.27-66.309 180.93-11.562 13.621-23.387 31.098-31.098 42.922 0.2578-2.8281 1.0312-5.1406 1.0312-7.9688 0-38.035-16.191-85.582-26.73-116.16l-4.1133-11.824c-8.2227-25.699-19.531-82.754-22.613-124.13 3.3398 6.4219 7.4531 13.621 14.133 24.414l23.902 39.836c23.129 40.605 28.016 79.41 28.016 105.11 0 14.391-1.543 24.926-2.0586 28.781-0.2578 0-1.7969 6.6836-1.7969 6.6836-0.5156 3.0859-1.543 5.9102-1.543 8.4805 0 2.5703 0.7696 4.8828 3.0821 6.168l1.8008 1.0273 1.8007-1.0273"/>
   <path d="m1367.4 670.7s11.566-51.66 25.957-93.035c14.394-41.375 41.637-137.24-37.008-234.89 16.965 39.062 11.309 65.02 11.566 69.387 0 4.3711-7.7109 92.523-7.1953 114.36 0.2578 28.016 6.6836 76.074 6.6836 76.074s-1.8008 5.9102-5.6563 0.25781c-2.5703-3.8555-8.9961-66.051-47.289-102.29-35.723-33.668-64.504-59.109-72.473-73.504 0.5156 25.699 16.191 62.449 28.527 82.754 12.336 20.047 62.965 86.352 74.785 108.71 11.566 22.355 22.106 49.086 22.106 52.168"/>
   <path d="m1353 344.3c10.281 22.875 12.078 41.121 12.078 52.941 0 5.1406-0.2578 8.9961-0.5117 11.566l-2.0586 25.699-5.3946 92.008s4.1094 46.773 5.9102 67.074c-4.3711-19.789-14.648-65.793-46.262-95.344 0-0.25781-19.531-18.762-19.531-18.762-25.699-24.16-46-43.176-52.172-54.227l-6.6796 1.7969c0.5117 25.188 15.418 62.195 29.039 84.555l29.301 42.148c18.246 24.926 38.551 53.453 45.234 66.305 12.078 22.871 21.586 48.059 21.844 50.887l7.1953 0.51172c0-0.51172 11.566-51.914 25.699-92.773 31.098-88.41 18.504-168.59-37.777-238.24l-5.9141 3.8555zm12.594 264.45c3.5977-0.51562 4.8828-4.3711 5.1406-5.1406 0-2.8281-6.6836-77.102-6.6836-77.102l5.6524-91.234 1.5429-23.129c0.2579-3.8555 0.7735-8.7383 0.7735-14.648 0-8.4805-1.8008-20.305-5.1406-33.152 25.699 38.035 39.32 79.152 39.32 123.36 0 28.527-5.3985 58.078-16.191 88.664-10.281 29.551-19.02 63.992-23.129 81.469-4.3711-11.309-11.309-27.5-18.504-41.121-7.1992-13.363-27.758-41.891-45.746-67.074l-29.043-41.891c-11.309-18.25-22.871-46.262-26.727-69.133 9.5078 11.566 24.156 25.957 45.488 46.258l19.789 18.25c30.07 28.527 39.836 73.242 43.945 92.262l2.5703 9.25c2.0586 3.0859 4.3711 4.3711 6.9414 4.1133"/>
   <path d="m1341.5 496.7s-5.9102-13.875-2.0547-70.93c3.8554-57.312 4.3672-135.18-85.066-185.55 22.871 36.75 26.469 43.176 33.922 73.246 7.4532 29.809 16.191 77.871 28.785 104.86 5.1406 13.363 8.7383 23.641 6.4258 24.93-2.3125 1.543-3.3399-1.0273-5.1406-5.3984-1.7969-4.625-21.074-44.977-57.824-69.902-37.266-25.188-70.676-50.371-83.523-75.559 6.168 47.289 24.672 63.734 43.176 87.121 20.047 25.445 91.492 77.871 103.83 95.094 12.594 17.473 17.477 22.102 17.477 22.102"/>
   <path d="m1251.3 242.28c23.129 37.008 26.473 42.922 33.668 71.961l5.3945 23.645c6.4258 28.527 13.621 60.906 23.391 81.98 0.5118 1.2852 1.5391 3.8555 2.3125 5.9141-8.2265-14.906-25.445-41.891-53.715-60.91-35.207-23.645-69.644-49.344-82.238-74.016l-6.6836 2.0586c5.6563 41.891 20.559 60.137 36.75 79.668l7.1953 8.9961c10.797 13.875 35.469 34.438 58.856 54.484 20.301 16.961 39.32 32.895 44.973 40.863l17.992 22.355 5.6523-4.1094c-0.2539 0-5.6523-14.395-1.7969-69.133 3.0821-47.289 8.9961-134.93-86.867-188.9zm74.016 203.8c1.5391-0.76953 2.3125-2.3125 2.3125-4.625 0-4.1133-2.3125-11.309-7.1953-24.414-9.5117-20.305-16.965-53.973-23.133-80.699l-5.6523-23.902c-6.168-25.184-10.535-34.953-24.414-58.082 56.539 39.062 69.902 89.949 69.902 139.55 0 10.793-0.5157 21.332-1.0274 31.609-1.0312 14.391-1.2851 25.957-1.2851 35.207 0 10.281 0.2539 17.219 1.0273 22.875-4.3711-5.3984-8.7383-10.797-8.7383-10.797-6.1679-8.4805-24.672-24.156-46.258-42.145-22.359-18.762-47.547-40.094-58.082-53.199l-7.1953-9.2539c-13.367-16.445-24.934-31.609-31.613-59.367 15.68 19.789 41.121 39.578 74.531 61.938 38.035 25.957 56.539 68.105 56.797 68.363 1.543 4.1133 2.5703 6.9414 5.3984 7.7109l1.543 0.76953 3.082-1.5391"/>
   <path d="m1271.8 347.13s-12.848-59.879-37.004-95.09c-23.644-35.207-72.477-65.535-123.36-79.926 17.988 14.391 29.039 27.496 35.465 38.035 6.4258 10.535 46.258 69.391 64.25 87.895 18.25 18.762 47.547 34.953 60.652 49.086"/>
  </g>
  <g clip-path="url(#9bd65b839a)">
   <path d="m1109.1 174.95c19.535 15.16 29.555 28.527 34.695 37.004 6.168 10.281 46.262 69.648 65.02 88.668l34.438 28.012 26.215 20.816 5.9102-3.0859c-0.5118-2.5703-13.363-60.906-37.52-96.375-23.902-34.949-71.961-66.047-125.41-81.211l-3.3438 6.168zm138.27 148.03-33.664-27.5c-17.992-18.246-57.824-77.613-63.738-87.121-5.3984-8.7383-13.621-17.734-23.129-26.984 45.23 16.191 84.809 42.66 105.11 72.73 17.476 25.699 29.297 65.277 33.922 83.781-7.707-6.4258-18.504-14.906-18.504-14.906"/>
  </g>
  <g>
   <g clip-path="url(#f53541c851)">
    <path d="m1233.7 674.41c-0.6447 5.7041-1.3897 11.395-2.2324 17.076-1.1875 8.0039-2.5704 15.973-4.1485 23.906-1.5781 7.9336-3.3481 15.824-5.313 23.672-1.9687 7.8476-4.124 15.646-6.4716 23.388-2.3477 7.7422-4.8877 15.422-7.6143 23.039-2.7227 7.6172-5.6328 15.164-8.7305 22.636-3.0976 7.4766-6.375 14.871-9.832 22.184-3.4609 7.3125-7.0977 14.536-10.91 21.672s-7.8003 14.171-11.96 21.113c-4.1563 6.9375-8.4839 13.77-12.98 20.496-4.4922 6.7266-9.1523 13.34-13.969 19.84-4.8204 6.4961-9.7969 12.875-14.93 19.129-5.1328 6.2539-10.415 12.375-15.848 18.371-5.4336 5.9961-11.011 11.851-16.73 17.574-5.7226 5.7188-11.579 11.298-17.575 16.731-5.9922 5.4336-12.117 10.714-18.371 15.847-6.2539 5.1328-12.629 10.11-19.129 14.927-6.5 4.8203-13.109 9.4756-19.836 13.972s-13.563 8.8212-20.5 12.981c-6.9414 4.1602-13.976 8.144-21.113 11.96-7.1328 3.8125-14.36 7.4487-21.672 10.906-7.3125 3.461-14.707 6.7388-22.184 9.8364-7.4727 3.0938-15.019 6.0039-22.636 8.7305s-15.297 5.2612-23.039 7.6128c-7.7422 2.3477-15.536 4.5039-23.383 6.4688-7.8477 1.9648-15.737 3.7392-23.675 5.3173-7.9336 1.5782-15.902 2.961-23.906 4.1485-8 1.1875-16.028 2.1748-24.079 2.9677-8.0547 0.793-16.117 1.3912-24.199 1.7857-8.082 0.3984-16.168 0.5976-24.258 0.5976s-16.175-0.1992-24.253-0.5976c-8.082-0.3945-16.148-0.9927-24.199-1.7857-8.0508-0.7929-16.078-1.7802-24.082-2.9677-8.0039-1.1875-15.973-2.5703-23.906-4.1485-7.9336-1.5781-15.824-3.3525-23.672-5.3173-7.8516-1.9649-15.644-4.1211-23.386-6.4688-7.7422-2.3516-15.422-4.8862-23.039-7.6128s-15.165-5.6367-22.638-8.7305c-7.4766-3.0976-14.871-6.3754-22.184-9.8364-7.3125-3.457-14.534-7.0932-21.671-10.906-7.1367-3.8165-14.172-7.8003-21.11-11.96-6.9414-4.1602-13.774-8.4853-20.5-12.981s-13.34-9.1514-19.84-13.972c-6.4961-4.8164-12.871-9.794-19.125-14.927-6.2539-5.1328-12.379-10.413-18.375-15.847-5.9922-5.4336-11.851-11.013-17.574-16.731-5.7188-5.7227-11.296-11.578-16.73-17.574-5.4336-5.9961-10.715-12.117-15.848-18.371-5.1328-6.2539-10.109-12.633-14.925-19.129-4.8203-6.5-9.477-13.113-13.973-19.84-4.4961-6.7266-8.8198-13.559-12.98-20.496-4.1602-6.9414-8.1455-13.976-11.962-21.113-3.8125-7.1367-7.4487-14.36-10.906-21.672-3.4609-7.3125-6.7388-14.707-9.8364-22.184-3.0938-7.4726-6.0039-15.019-8.7305-22.636-2.7266-7.6172-5.2608-15.297-7.6084-23.039-2.3516-7.7422-4.5083-15.54-6.4732-23.388-1.9648-7.8477-3.7378-15.738-5.3159-23.672-1.5781-7.9336-2.9609-15.902-4.1484-23.906-0.84148-5.6716-1.5838-11.354-2.2266-17.049 0.0951 3.3044 0.22451 6.6077 0.38672 9.9097 0.39453 8.0312 0.98779 16.05 1.7768 24.054 0.78516 8.0039 1.769 15.984 2.9487 23.941 1.1797 7.9531 2.5547 15.875 4.125 23.761 1.5703 7.8906 3.332 15.735 5.2852 23.536 1.9531 7.8008 4.0976 15.55 6.4336 23.246 2.3359 7.6992 4.8564 15.333 7.5674 22.903 2.707 7.5742 5.6011 15.074 8.6792 22.507 3.0781 7.4297 6.3359 14.778 9.7734 22.052 3.4414 7.2695 7.0542 14.448 10.847 21.542 3.7891 7.0938 7.7544 14.09 11.887 20.988 4.1367 6.8984 8.438 13.691 12.907 20.379 4.4648 6.6836 9.0977 13.259 13.887 19.72 4.793 6.4609 9.7373 12.796 14.839 19.015 5.1016 6.2148 10.356 12.304 15.754 18.265 5.4024 5.957 10.946 11.782 16.633 17.47s11.511 11.23 17.468 16.629c5.9609 5.4024 12.046 10.656 18.265 15.757 6.2148 5.1015 12.556 10.047 19.017 14.84 6.457 4.789 13.031 9.418 19.718 13.887 6.6875 4.4688 13.48 8.7686 20.379 12.905 6.8984 4.1328 13.895 8.0981 20.988 11.887 7.0898 3.793 14.274 7.4067 21.543 10.844 7.2695 3.4414 14.621 6.6983 22.05 9.7764s14.934 5.9697 22.504 8.6807c7.5742 2.7109 15.206 5.2299 22.901 7.5659 7.6992 2.3359 15.445 4.4804 23.25 6.4336 7.8008 1.9531 15.645 3.7148 23.531 5.2851 7.8906 1.5664 15.812 2.9409 23.766 4.1206 7.957 1.1836 15.938 2.1641 23.941 2.9532 8.0039 0.789 16.021 1.3837 24.056 1.7783 8.0312 0.3945 16.07 0.5888 24.113 0.5888 8.043 0 16.078-0.1943 24.113-0.5888 8.0312-0.3946 16.052-0.9893 24.056-1.7783 8.0039-0.7891 15.984-1.7696 23.937-2.9532 7.957-1.1797 15.879-2.5542 23.766-4.1206 7.8867-1.5703 15.735-3.332 23.536-5.2851 7.8008-1.9532 15.55-4.0977 23.246-6.4336 7.6953-2.336 15.333-4.855 22.903-7.5659 7.5742-2.711 15.073-5.6026 22.503-8.6807 7.4297-3.0781 14.782-6.335 22.052-9.7764 7.2695-3.4375 14.453-7.0512 21.546-10.844 7.0938-3.7891 14.085-7.7544 20.984-11.887 6.8985-4.1367 13.691-8.4365 20.379-12.905 6.6875-4.4687 13.262-9.0977 19.723-13.887 6.457-4.793 12.797-9.7388 19.012-14.84 6.2187-5.1016 12.308-10.355 18.265-15.757 5.961-5.3984 11.782-10.941 17.47-16.629s11.23-11.513 16.632-17.47c5.4023-5.9609 10.653-12.05 15.754-18.265 5.1015-6.2188 10.051-12.554 14.84-19.015 4.793-6.4609 9.4209-13.036 13.89-19.72 4.4687-6.6875 8.7695-13.48 12.902-20.379 4.1367-6.8984 8.0986-13.895 11.892-20.988 3.7891-7.0938 7.4053-14.272 10.843-21.542 3.4375-7.2734 6.6953-14.622 9.7734-22.052 3.0781-7.4336 5.9727-14.933 8.6836-22.507 2.707-7.5703 5.2315-15.204 7.5674-22.903 2.332-7.6953 4.4761-15.445 6.4292-23.246 1.957-7.8008 3.7187-15.645 5.2851-23.536 1.5704-7.8867 2.9454-15.808 4.125-23.761 1.1797-7.957 2.1641-15.938 2.9532-23.941 0.789-8.0039 1.3794-16.023 1.7739-24.054 0.1626-3.3108 0.2922-6.6228 0.3882-9.936z"/>
   </g>
   <path d="m395.42 777.1c6.5938 36.238 170.54-35.93 366.15-161.18 1.25-0.77734 2.4922-1.5977 3.7422-2.375-2.8438 1.8242-5.6992 3.6797-8.5859 5.5156-210.64 135.09-385.98 214.73-391.67 177.86-5.3359-34.633 141.21-159.86 333.8-286.96-176.66 117.13-309.58 233.32-303.44 267.13z"/>
   <path d="m1120.5 458.64c4.8399 31.492-115.89 137.93-282.69 252.54 153.85-106.32 264.3-205.96 258.66-236.85-6.3008-34.656-156.43 29.801-340.59 145.02 198.4-124.58 359.18-195.98 364.61-160.71z"/>
   <g clip-path="url(#53db7aba2f)">
    <path d="m958.27 625.15c18.477-1.918 37.004-3.793 55.484-6.1914-36.285-4.6562-74.445-7.8008-110.73-12.359-34.172-4.8477-69.859-9.2852-99.617-27.5 20.207-35.855 49.004-66.43 73.676-99.285-31.992 25.246-63.668 54.91-99.426 74.734-2.8086-5.0898-4.9922-10.824-6.8398-16.656-6.625-21.934-9.5508-44.879-12.383-67.699-6.793-60.621-9.793-124.34-13.777-185.44-1.9688-31.008-3.9844-62.012-6.6953-93.02-8.0625 92.273-10.414 186.45-20.445 278.46-1.7774 15.336-3.9844 30.598-6.9141 45.598-2.7344 13.102-5.9492 27.07-12.359 38.707-35.781-19.82-67.34-49.438-99.375-74.66 24.691 32.832 53.492 63.406 73.699 99.285-13.824 8.5898-29.641 14.184-45.453 17.996-35.137 8.4961-73.363 11.664-109.46 15.625-18.48 1.918-36.984 3.793-55.461 6.2148 36.262 4.6328 74.441 7.7773 110.73 12.336 34.176 4.8476 69.863 9.2852 99.621 27.527-20.207 35.828-49.031 66.402-73.699 99.258 31.988-25.246 63.691-54.887 99.426-74.734 2.832 5.0898 4.9883 10.824 6.8633 16.656 6.6211 21.934 9.5273 44.879 12.383 67.699 6.7656 60.621 9.7891 124.34 13.75 185.44 1.9922 31.008 4.0078 62.012 6.6953 93.02 8.0898-92.273 10.441-186.45 20.473-278.46 1.7734-15.332 3.9844-30.598 6.9102-45.598 2.7344-13.102 5.9297-27.043 12.359-38.707 35.758 19.848 67.34 49.438 99.379 74.66-24.695-32.832-53.492-63.406-73.723-99.285 13.844-8.5898 29.66-14.184 45.453-17.996 35.156-8.4961 73.363-11.641 109.46-15.625zm-220.31 60.094c-16.824-35.809-30.477-49.461-66.285-66.285 35.809-16.848 49.461-30.5 66.285-66.309 16.848 35.809 30.504 49.461 66.285 66.309-35.781 16.824-49.438 30.477-66.285 66.285z"/>
   </g>
   <g>
    <path d="m606.9 938.12c-4.5703 0-5.3633-4.6289-5.7031-6.6055-0.28906-1.6875-0.61719-4.0742-1.0703-7.375-0.53125-3.8633-1.2578-9.1484-2.2422-15.555-3.3867-20.469-4.5938-21.258-19.445-25.219-4.9258-1.2109-8.9062-2.0898-12.105-2.793-8.1719-1.8008-11.551-2.543-11.551-7.168-4e-3 -4.6211 3.3789-5.3711 11.543-7.1719 3.1992-0.71094 7.1836-1.5898 12.203-2.832 14.746-3.9219 15.949-4.707 19.355-25.262 0.97265-6.3438 1.6953-11.633 2.2266-15.492 0.44922-3.3008 0.77734-5.6875 1.0664-7.375 0.33593-1.9805 1.1328-6.6094 5.6992-6.6094 4.5703 0 5.3633 4.6289 5.7031 6.6055 0.28906 1.6836 0.61719 4.0703 1.0703 7.375 0.53125 3.8594 1.2578 9.1484 2.2422 15.555 3.3828 20.445 4.5898 21.254 19.398 25.203 5 1.2344 8.9688 2.1055 12.156 2.8086 8.168 1.8008 11.547 2.543 11.551 7.168 0 4.6211-3.3789 5.3672-11.543 7.1719-3.1992 0.70703-7.1836 1.5898-12.207 2.832-14.742 3.9219-15.949 4.7109-19.355 25.266-0.97266 6.3398-1.6953 11.625-2.2227 15.484-0.45312 3.3047-0.78125 5.6953-1.0703 7.3789-0.33594 1.9766-1.1289 6.6094-5.6992 6.6094zm-26.629-64.723c0.22656 0.0547 0.45312 0.10938 0.68359 0.16797 17.852 4.7578 22.285 8.8281 25.941 27.867 3.6719-19.07 8.1016-23.137 25.836-27.855 0.26172-0.0625 0.51954-0.125 0.77735-0.19141-0.23047-0.0547-0.45703-0.10937-0.6875-0.16796l-0.0898-0.0234c-17.766-4.7383-22.191-8.8047-25.848-27.848-3.6719 19.074-8.1055 23.141-25.84 27.859-0.25781 0.0664-0.51953 0.1289-0.77343 0.1914z"/>
    <path d="m895.94 375.76c-17.309-4.6133-19.512-7.3867-23.145-29.34-5.1719-33.652-2.8555-33.66-8.0117 0-3.6367 21.949-5.8242 24.746-23.133 29.352-26.535 6.5586-26.539 3.6211 0 10.164 17.305 4.6133 19.512 7.3867 23.141 29.336 5.1719 33.656 2.8555 33.66 8.0156 4e-3 3.6367-21.949 5.8242-24.746 23.129-29.352 26.539-6.5625 26.543-3.6211 4e-3 -10.164z"/>
    <path d="m564.96 958.09c-10.531-2.8086-11.875-4.4961-14.086-17.852-3.1445-20.48-1.7344-20.484-4.875-4e-3 -2.2148 13.355-3.543 15.059-14.074 17.863-16.148 3.9922-16.152 2.2031-4e-3 6.1836 10.531 2.8086 11.875 4.4961 14.086 17.852 3.1445 20.48 1.7344 20.484 4.875 0 2.2148-13.355 3.543-15.059 14.074-17.859 16.148-3.9922 16.152-2.2031 4e-3 -6.1836z"/>
    <path d="m951.71 281.78c-10.531-2.8086-11.871-4.4961-14.082-17.855-3.1484-20.477-1.7383-20.48-4.875 0-2.2148 13.355-3.5469 15.059-14.078 17.859-16.148 3.9922-16.148 2.207 0 6.1875 10.531 2.8047 11.875 4.4922 14.082 17.852 3.1484 20.477 1.7383 20.48 4.875 0 2.2148-13.355 3.5469-15.059 14.078-17.859 16.148-3.9922 16.148-2.2031 0-6.1836z"/>
   </g>
  </g>
 </g>
</svg>
