<?xml version="1.0" encoding="UTF-8"?>
<svg width="2e3" height="2e3" version="1.0" viewBox="0 0 1500 1500" xmlns="http://www.w3.org/2000/svg" zoomAndPan="magnify">
 <defs>
  <clipPath id="dbf89e9a9f">
   <path d="m183.7 183.7h1132.5v1132.5h-1132.5z"/>
  </clipPath>
  <clipPath id="764190f4de">
   <path d="m604 247.12h287v443.25h-287z"/>
  </clipPath>
 </defs>
 <g clip-path="url(#dbf89e9a9f)">
  <path d="m735.34 183.73c-305.86 7.7578-551.64 258.39-551.64 566.11 0 231.5 139.16 430.64 338.3 518.42-40.637-50.445-64.988-114.57-64.988-184.34 0-21.215 2.3125-41.895 6.5859-61.84-109.98-85.809-180.8-219.56-180.8-369.76 0-254.2 202.64-461.35 455.12-468.59-0.84766 0.019532-1.7109-0.019531-2.5586 0zm51.914 1.082c242.11 18.25 433.09 220.73 433.09 467.48 0 150.53-71.098 284.57-181.49 370.36 4.1914 19.766 6.4883 40.246 6.4883 61.254 0 69.051-23.828 132.56-63.711 182.77 197.22-88.586 334.66-286.76 334.69-516.84 0-300.07-233.8-545.82-529.05-565.02zm-37.266 542.02c-95.234 0-177.68 55.141-217.18 135.18 17.973-20.848 28.203-35 63.02-35 39.328 0 71.184 31.953 71.184 71.277l0.29297 19.172s1.6953 81.289-8.1602 124.96c-11.172 38.094-17.359 63.867-71.969 48.957-37.766-14.16-73.266-33.035-105.69-55.941-3 16.266-4.5234 33.012-4.5234 50.145 0 78.156 32.617 148.61 85.043 198.5 58.828 20.719 122.1 32.055 187.98 32.055 66.035 0 129.43-11.441 188.38-32.25 52.5-49.879 85.336-120.22 85.336-198.3 0-16.559-1.5039-32.82-4.3242-48.57-15.508 10.816-31.672 20.777-48.469 29.691-49.152 17.637-77.617-11.438-86.52-37.066-8.9609-25.801-0.39062-52.082-0.39062-61.645v-128.4c0-80.164-43.617-112.77-134.01-112.77z"/>
 </g>
 <path d="m569.95 550.73c3.4141 18.789 88.371-18.625 189.74-83.551 0.64844-0.40625 1.293-0.83203 1.9414-1.2344-1.4727 0.94922-2.9531 1.9062-4.4492 2.8594-109.16 70.031-200.02 111.32-202.97 92.207-2.7656-17.957 73.176-82.875 172.98-148.76-91.547 60.723-160.43 120.95-157.24 138.48z" fill="#231f20"/>
 <path d="m945.71 385.64c2.5078 16.324-60.055 71.504-146.49 130.91 79.723-55.117 136.96-106.77 134.04-122.78-3.2617-17.965-81.062 15.449-176.5 75.176 102.81-64.582 186.13-101.59 188.95-83.309z" fill="#231f20"/>
 <g clip-path="url(#764190f4de)">
  <path d="m861.62 471.96c9.5781-0.99609 19.18-1.9688 28.754-3.2109-18.805-2.4141-38.578-4.043-57.379-6.4062-17.711-2.5156-36.203-4.8164-51.625-14.258 10.473-18.586 25.395-34.438 38.18-51.469-16.578 13.09-32.996 28.465-51.523 38.742-1.457-2.6367-2.5859-5.6133-3.5469-8.6367-3.4297-11.371-4.9492-23.262-6.4141-35.094-3.5195-31.426-5.0742-64.457-7.1406-96.133-1.0195-16.07-2.0625-32.145-3.4688-48.219-4.1797 47.836-5.3984 96.652-10.598 144.35-0.91797 7.9492-2.0625 15.863-3.582 23.637-1.4141 6.793-3.082 14.035-6.4023 20.066-18.543-10.273-34.898-25.625-51.5-38.703 12.797 17.02 27.723 32.871 38.191 51.469-7.1641 4.4531-15.359 7.3516-23.555 9.332-18.207 4.4023-38.016 6.043-56.723 8.0977-9.5742 0.99609-19.164 1.9648-28.738 3.2227 18.789 2.4023 38.578 4.0312 57.379 6.3945 17.711 2.5117 36.203 4.8125 51.625 14.27-10.473 18.574-25.406 34.422-38.191 51.457 16.578-13.09 33.004-28.453 51.523-38.742 1.4688 2.6367 2.5859 5.6094 3.5586 8.6328 3.4297 11.371 4.9336 23.266 6.4141 35.098 3.5078 31.426 5.0742 64.453 7.1289 96.129 1.0312 16.074 2.0742 32.148 3.4688 48.223 4.1914-47.836 5.4102-96.656 10.609-144.35 0.91797-7.9492 2.0625-15.863 3.5781-23.641 1.418-6.7891 3.0742-14.02 6.4062-20.066 18.531 10.289 34.898 25.629 51.5 38.703-12.797-17.02-27.723-32.867-38.203-51.465 7.1758-4.457 15.371-7.3555 23.551-9.332 18.223-4.4062 38.02-6.0352 56.723-8.0977zm-114.16 31.148c-8.7188-18.559-15.793-25.641-34.352-34.359 18.559-8.7344 25.633-15.812 34.352-34.375 8.7305 18.562 15.805 25.641 34.348 34.375-18.543 8.7188-25.617 15.801-34.348 34.359z" fill="#231f20"/>
 </g>
 <g fill="#231f20">
  <path d="m679.54 634.21c-2.3633 0-2.7773-2.3984-2.9531-3.4258-0.14844-0.87109-0.32031-2.1094-0.55469-3.8242-0.27344-2-0.65234-4.7422-1.1602-8.0625-1.7539-10.609-2.3828-11.02-10.078-13.07-2.5508-0.62891-4.6172-1.0859-6.2734-1.4492-4.2344-0.93359-5.9844-1.3203-5.9883-3.7148 0-2.3984 1.7539-2.7852 5.9844-3.7188 1.6602-0.36719 3.7227-0.82422 6.3242-1.4688 7.6406-2.0352 8.2656-2.4414 10.031-13.098 0.50391-3.2891 0.87891-6.0273 1.1523-8.0273 0.23438-1.7148 0.40234-2.9531 0.55469-3.8242 0.17188-1.0273 0.58594-3.4258 2.9531-3.4297 2.3672 0 2.7773 2.4023 2.9531 3.4258 0.15234 0.875 0.32031 2.1094 0.55469 3.8242 0.27734 2 0.65234 4.7422 1.1641 8.0625 1.75 10.602 2.3789 11.02 10.051 13.066 2.5898 0.63672 4.6484 1.0898 6.3008 1.457 4.2305 0.93359 5.9844 1.3164 5.9844 3.7148 0 2.3945-1.75 2.7812-5.9805 3.7188-1.6602 0.36719-3.7227 0.82422-6.3281 1.4648-7.6367 2.0352-8.2617 2.4414-10.027 13.098-0.50391 3.2891-0.87891 6.0312-1.1523 8.0312-0.23438 1.7109-0.40625 2.9492-0.55469 3.8242-0.17578 1.0234-0.58594 3.4258-2.9531 3.4258zm-13.797-33.555c0.11719 0.03125 0.23438 0.058594 0.35547 0.089844 9.25 2.4648 11.547 4.5742 13.441 14.445 1.9023-9.8867 4.1992-11.996 13.391-14.441 0.13281-0.03125 0.26953-0.066406 0.40234-0.097656-0.12109-0.027344-0.23828-0.058594-0.35547-0.085938l-0.050781-0.011719c-9.2031-2.457-11.5-4.5664-13.395-14.438-1.9023 9.8867-4.1992 11.996-13.387 14.441-0.13672 0.035156-0.26953 0.066406-0.40234 0.097656z"/>
  <path d="m829.33 342.68c-8.9688-2.3906-10.109-3.8281-11.992-15.207-2.6797-17.449-1.4805-17.449-4.1523-0.003906-1.8867 11.379-3.0195 12.832-11.988 15.219-13.75 3.3984-13.754 1.875 0 5.2656 8.9688 2.3945 10.113 3.832 11.992 15.211 2.6797 17.445 1.4805 17.449 4.1523 0 1.8867-11.379 3.0195-12.828 11.988-15.215 13.754-3.4023 13.754-1.8789 0-5.2695z"/>
  <path d="m657.81 644.55c-5.457-1.4531-6.1523-2.3281-7.2969-9.2539-1.6289-10.617-0.89844-10.617-2.5273 0-1.1445 6.9219-1.8359 7.8047-7.293 9.2578-8.3672 2.0703-8.3711 1.1445 0 3.207 5.457 1.457 6.1523 2.332 7.2969 9.2539 1.6328 10.617 0.90234 10.617 2.5273 0 1.1484-6.9219 1.8359-7.8047 7.293-9.2578 8.3672-2.0703 8.3711-1.1406 0-3.207z"/>
  <path d="m858.23 293.95c-5.457-1.4531-6.1562-2.3281-7.3008-9.2539-1.6289-10.617-0.89844-10.617-2.5273 0-1.1445 6.9219-1.8359 7.8047-7.293 9.2578-8.3672 2.0703-8.3672 1.1445 0 3.207 5.457 1.457 6.1523 2.332 7.2969 9.2539 1.6328 10.617 0.90234 10.617 2.5273 0 1.1484-6.9219 1.8359-7.8047 7.293-9.2578 8.3711-2.0703 8.3711-1.1406 0.003906-3.207z"/>
 </g>
</svg>
