<?xml version="1.0" encoding="UTF-8"?>
<svg width="2e3" height="2e3" version="1.0" viewBox="0 0 1500 1500" xmlns="http://www.w3.org/2000/svg" zoomAndPan="magnify">
 <defs>
  <clipPath id="b05d9f1cea">
   <path d="m354.13 295.19h792v792h-792z"/>
  </clipPath>
  <clipPath id="bdd6be3dd5">
   <path d="m595 1127h535v150.84h-535z"/>
  </clipPath>
  <clipPath id="bf496693b2">
   <path d="m1070 221.84h146v158.16h-146z"/>
  </clipPath>
  <clipPath id="79bf8aec9d">
   <path d="m959 518h105.36v52h-105.36z"/>
  </clipPath>
  <clipPath id="327e19dbcf">
   <path d="m430.61 423h105.39v68h-105.39z"/>
  </clipPath>
  <clipPath id="670029335c">
   <path d="m430.61 468h105.39v449.84h-105.39z"/>
  </clipPath>
  <clipPath id="f1bb3aadd9">
   <path d="m558 468h47v449.84h-47z"/>
  </clipPath>
  <clipPath id="ec4bdc4503">
   <path d="m628 283h105v634.84h-105z"/>
  </clipPath>
  <clipPath id="851688f441">
   <path d="m756 283h105v634.84h-105z"/>
  </clipPath>
  <clipPath id="77ff3c3933">
   <path d="m959 554h105.36v363.84h-105.36z"/>
  </clipPath>
  <clipPath id="5c3025ab3f">
   <path d="m884 554h53v363.84h-53z"/>
  </clipPath>
 </defs>
 <g transform="translate(-.78378 7.8732)">
  <g clip-path="url(#bf496693b2)">
   <path d="m1070 227.2c17.047 13.234 25.797 24.898 30.281 32.301 5.3867 8.9727 40.379 60.793 56.754 77.395l30.062 24.449 22.879 18.172 5.1602-2.6914c-0.4492-2.2422-11.664-53.164-32.75-84.125-20.863-30.508-62.812-57.652-109.47-70.887zm120.69 129.21-29.387-24c-15.703-15.93-50.473-67.75-55.637-76.047-4.7109-7.6289-11.887-15.48-20.188-23.555 39.48 14.133 74.027 37.238 91.75 63.484 15.254 22.434 25.574 56.98 29.613 73.129-6.7305-5.6055-16.152-13.008-16.152-13.008"/>
  </g>
  <g clip-path="url(#b05d9f1cea)">
   <path d="m359.94 623.45c-0.55688 3.2048-1.0747 6.4156-1.5513 9.6343-0.9492 6.41-1.7422 12.84-2.3789 19.293-0.63673 6.449-1.1133 12.91-1.4297 19.383-0.3164 6.473-0.47607 12.949-0.47607 19.43 0 6.481 0.15966 12.958 0.47607 19.431 0.3164 6.477 0.79297 12.937 1.4297 19.386 0.6367 6.449 1.4297 12.879 2.3789 19.289s2.0581 12.793 3.3237 19.153c1.2617 6.356 2.6841 12.676 4.2583 18.961 1.5742 6.289 3.3013 12.531 5.1841 18.734 1.8829 6.203 3.9145 12.355 6.0981 18.457 2.1836 6.102 4.5156 12.145 6.9961 18.133 2.4805 5.989 5.1055 11.911 7.875 17.77 2.7695 5.859 5.6831 11.644 8.7378 17.358 3.0547 5.719 6.2495 11.356 9.5815 16.915 3.3316 5.559 6.7973 11.032 10.399 16.422 3.5972 5.387 7.3305 10.684 11.19 15.891 3.8593 5.203 7.8481 10.312 11.958 15.319 4.113 5.012 8.3427 9.918 12.694 14.719 4.3512 4.8007 8.8198 9.4966 13.402 14.079 4.5819 4.5817 9.2778 9.0503 14.079 13.402 4.801 4.3512 9.707 8.5825 14.719 12.696 5.008 4.1093 10.118 8.0967 15.321 11.956 5.207 3.859 10.504 7.5898 15.891 11.191 5.391 3.6011 10.864 7.0654 16.422 10.397 5.559 3.332 11.194 6.5283 16.913 9.583 5.714 3.0547 11.5 5.9683 17.36 8.7378 5.86 2.7695 11.782 5.3945 17.77 7.875 5.988 2.4805 12.03 4.8125 18.132 6.9961 6.102 2.1836 12.254 4.2154 18.457 6.0982 6.203 1.8828 12.446 3.6084 18.731 5.1826 6.289 1.5742 12.61 2.9966 18.965 4.2583 6.359 1.2656 12.741 2.3706 19.151 3.3237 6.41 0.9492 12.84 1.7422 19.289 2.3789 6.449 0.6367 12.911 1.1133 19.387 1.4297 6.473 0.3164 12.949 0.4776 19.43 0.4776 6.481 0 12.957-0.1612 19.43-0.4776s12.934-0.793 19.383-1.4297c6.453-0.6367 12.883-1.4297 19.293-2.3789 6.41-0.9531 12.793-2.0581 19.148-3.3237 6.36-1.2617 12.68-2.6841 18.965-4.2583 6.289-1.5742 12.531-3.2998 18.734-5.1826 6.199-1.8829 12.351-3.9146 18.453-6.0982 6.102-2.1836 12.148-4.5156 18.136-6.9961 5.985-2.4805 11.911-5.1055 17.77-7.875 5.855-2.7695 11.645-5.6831 17.36-8.7378 5.715-3.0547 11.352-6.251 16.91-9.583 5.559-3.3316 11.034-6.7958 16.421-10.397 5.391-3.6012 10.689-7.332 15.892-11.191 5.207-3.8593 10.316-7.8467 15.324-11.956 5.012-4.113 9.9141-8.3442 14.719-12.696 4.8006-4.3512 9.4922-8.8199 14.074-13.402 4.5856-4.5819 9.0502-9.2778 13.402-14.079 4.3552-4.801 8.585-9.707 12.694-14.719 4.1133-5.008 8.0986-10.116 11.962-15.319 3.859-5.207 7.5898-10.504 11.191-15.891 3.6011-5.391 7.0655-10.863 10.398-16.422s6.5239-11.196 9.5786-16.915c3.0586-5.714 5.9688-11.499 8.7422-17.358 2.7695-5.86 5.3945-11.782 7.875-17.77s4.8124-12.032 6.996-18.133c0.9557-2.6705 1.8812-5.3508 2.7789-8.0405-1.6865 0.88254-3.3805 1.7578-5.0816 2.625-6.8932 3.5173-13.901 6.9007-21.015 10.154-7.1132 3.254-14.325 6.3742-21.639 9.3574-7.3131 2.9832-14.722 5.8295-22.214 8.5342-7.498 2.7047-15.08 5.268-22.739 7.6904-7.6631 2.4224-15.4 4.6996-23.209 6.832-7.808 2.1325-15.682 4.1158-23.615 5.9546-7.9379 1.8387-15.926 3.5252-23.974 5.0625-8.043 1.5373-16.129 2.9265-24.268 4.1587-8.1329 1.236-16.301 2.3153-24.504 3.2461-8.2029 0.92698-16.431 1.7014-24.688 2.3232-8.2528 0.62179-16.519 1.087-24.803 1.396-8.2833 0.309-16.571 0.46582-24.864 0.46582-8.2929 0-16.581-0.15682-24.864-0.46582-8.2879-0.30899-16.556-0.7742-24.809-1.396-8.2528-0.6218-16.481-1.3963-24.684-2.3232-8.2029-0.93078-16.371-2.0101-24.508-3.2461-8.1329-1.2322-16.22-2.6214-24.268-4.1587-8.043-1.5374-16.031-3.2238-23.969-5.0625-7.9379-1.8387-15.809-3.8221-23.618-5.9546-7.808-2.1325-15.542-4.4096-23.205-6.832-7.663-2.4224-15.241-4.9858-22.74-7.6904-7.4981-2.7047-14.901-5.551-22.213-8.5342-7.3182-2.9832-14.531-6.1034-21.645-9.3574-7.1132-3.254-14.116-6.6375-21.015-10.154-6.8932-3.5173-13.672-7.1605-20.335-10.929-6.6582-3.769-13.197-7.6646-19.605-11.678-6.4133-4.017-12.691-8.1476-18.835-12.397-6.1434-4.2497-12.151-8.6139-18.015-13.088-5.8634-4.4747-11.582-9.0607-17.15-13.749-5.5686-4.6884-10.982-9.4798-16.245-14.375-5.2587-4.8906-10.363-9.8793-15.302-14.96-4.9388-5.0851-9.7171-10.258-14.32-15.519-4.6088-5.2644-9.0433-10.61-13.307-16.039-4.2639-5.4285-8.3517-10.932-12.261-16.518-3.909-5.581-7.6386-11.231-11.183-16.953-3.544-5.7222-6.9039-11.505-10.078-17.354-3.1742-5.8481-6.1574-11.749-8.9517-17.708-0.69721-1.4868-1.3822-2.9763-2.0552-4.4692z"/>
  </g>
  <path d="m913.68 1249.9s-131.46-152.54-285.57-109.92c-70.887 28.938-112.61 49.352-135.5 53.84-22.656 4.0352-76.047 8.2969-108.57-13.684 59.672 54.508 115.08 57.875 155.91 50.246 40.828-7.8516 81.652-41.051 92.199-49.574 10.766-8.3008 49.574-54.512 124.95-24.68 54.512 25.574 123.83 100.73 135.49 114.18l21.09-20.414"/>
  <path d="m627.21 1137.1c-0.22266 0-61.016 25.574-61.016 25.574-35.672 15.254-59.223 25.125-74.254 28.039-6.9531 1.3438-69.316 11.891-106.11-13.234l-3.8164 4.7109c0 0.2227 0.22656 0.4453 0.22656 0.4453 48.676 44.195 101.84 61.242 158.38 50.699 27.145-5.1602 58.547-21.758 93.094-49.801 0.44922-0.2265 4.4883-3.8125 4.4883-3.8125 14.133-12.789 51.594-46.887 117.77-20.641 52.719 24.676 120.24 96.688 134.15 113.29l2.2461 2.4688 25.574-24.676-2.0195-2.2422c-1.3477-1.5703-134.37-153.44-288.71-110.82zm-133.93 59.668c15.48-2.9141 39.258-13.008 75.148-28.488l60.793-25.348c143.57-39.707 268.29 93.766 280.19 106.78-3.1406 3.1406-13.461 13.012-16.824 16.152-17.273-19.738-82.105-88.16-134.37-112.39-69.766-27.816-109.25 8.0742-124.28 21.758l-3.5898 3.3672c-34.098 27.367-64.605 43.742-91.078 48.676-48.23 9.1992-93.992-3.8125-136.61-36.34 37.91 13.234 84.348 6.9531 90.629 5.832"/>
  <path d="m598.72 1133s-84.797 18.172-116.65 27.367c-31.852 9.4219-139.53 11.219-202.34-84.348 49.801 40.828 110.82 40.828 135.27 39.93 24.676-0.6719 88.16 8.75 119.34 14.582-0.67578-5.832-32.078-12.785-41.504-17.723-9.4219-4.9336-35.891-12.785-67.969-82.777-10.77-21.312-12.562-33.199-19.965-39.707 13.457 2.0195 39.707 30.285 47.781 38.809 8.0742 8.5234 56.977 64.832 84.797 79.188 27.816 14.582 41.5 21.535 61.242 24.676"/>
  <path d="m402.89 992.83c4.0391 3.3672 6.2812 8.75 9.6484 17.051l9.6445 21.535c29.836 65.277 54.734 77.168 66.625 83l2.4688 1.1211 17.273 6.2812c1.793 0.6758 4.2617 1.5703 6.5039 2.2461-32.078-5.1602-78.961-11.668-100.05-10.992-54.512 1.5703-99.375-11.668-133.25-39.484l-4.7109 4.2617c60.566 91.75 166.68 97.133 205.94 85.469 31.184-9.1953 115.53-26.918 116.43-27.145l-0.22266-6.0547c-19.516-3.3672-33.203-10.32-60.344-24.453-23.555-12.336-63.484-56.305-78.516-72.906l-5.3828-5.832-2.0195-2.0195c-16.824-17.719-35.668-35.891-47.559-37.461l-2.4688 5.3828zm107.45 123.16-16.148-5.832-2.6953-1.3477c-10.543-4.9336-34.77-16.824-63.707-80.082 0-0.2266-9.6484-21.312-9.6484-21.312-1.793-4.7109-4.0352-6.9531-6.0547-10.32 12.336 7.1797 29.164 24.453 36.34 32.078l2.0195 2.0195 5.1602 5.832c15.254 16.602 55.859 61.465 80.535 74.254 21.086 10.992 34.32 17.723 48.453 21.758-25.352 5.6094-79.414 17.273-103.42 24.453-35.668 10.543-128.09 5.832-187.54-68.422 32.75 21.09 73.355 31.629 121.59 30.059 23.555-0.6719 84.793 8.0781 118.45 14.359l4.0352 0.8945-0.44531-4.2617c0-0.8945-1.7969-1.5703-2.4688-2.4648l-0.22656-0.2265c-2.9141-3.5898-9.6445-6.7305-24.227-11.441"/>
  <path d="m442.14 1098.9s-42.621-11.664-74.254-16.148c-31.855-4.2617-142.9-32.305-186.19-162.64 43.742 50.922 53.613 54.066 79.188 66.852 25.797 12.785 103.41 56.977 130.33 81.203l7.8516 4.4883s2.6914-3.3672-9.1953-13.461c-11.441-10.316-50.699-45.988-56.758-125.85-4.9336-35.219-12.785-67.297-15.254-71.559 17.723 10.094 38.586 50.922 42.848 62.363 4.2617 11.664 32.977 92.199 36.789 101.84 3.5898 9.4219 26.922 60.57 44.641 72.906"/>
  <path d="m315.16 863.18c2.0156 3.5898 9.8672 34.77 14.805 70.664 2.9141 37.465 15.254 90.18 57.875 127.64 0.22656 0 0.22656 0 0.22656 0.2227-29.613-24.449-100.05-64.605-125.85-77.391l-4.0391-2.2461c-22.207-10.988-33.426-16.375-74.027-63.934l-5.3828 2.918c47.109 142 174.3 163.09 188.66 164.88 31.18 4.0352 73.352 16.152 73.801 16.152l2.6953-5.3867c-16.379-11.664-39.258-60.344-43.746-71.785l-36.566-101.62c-4.0352-10.543-25.125-53.168-44.191-64.16l-4.2617 4.0391zm86.363 211.32c0.67578-0.6719 0.89844-1.5703 0.89844-2.6914 0-2.918-2.0195-7.6289-10.543-14.809-40.828-36.34-52.941-87.262-55.633-123.83-3.3672-24.227-8.3008-47.781-12.113-61.465 14.805 14.805 30.059 43.965 33.648 53.613l36.789 101.84c2.4688 6.5078 20.863 46.887 38.137 66.18-14.359-3.5898-41.949-10.543-64.605-13.461-13.012-1.793-125.4-21.758-175.88-143.34 30.512 33.871 43.074 41.273 63.039 51.145l4.2617 2.0195c26.695 13.461 103.19 56.98 129.66 80.758 0.44922 0.4492 8.5234 4.9375 8.5234 4.9375l2.2461 1.3438 1.5703-2.2422"/>
  <path d="m323.46 992.62s-53.387-31.184-82.777-54.066c-29.387-23.105-111.94-83.223-103.41-190 12.785 34.547 33.648 65.953 56.305 85.02 22.656 19.293 63.711 79.859 73.578 93.992 9.6484 14.133 16.375 17.945 16.375 17.945s3.1445-6.9531-7.8477-19.066c-8.0781-13.012-22.66-43.52-14.809-110.14 9.8711-61.914 13.461-76.719 11.668-86.367 8.5234 21.762 19.738 68.645 24 142 2.4688 41.504 7.1797 73.582 12.562 87.711 5.6094 13.91 14.359 32.977 14.359 32.977"/>
  <path d="m269.63 730.6c0.22266 1.3477 0.22266 2.9141 0.22266 4.7109 0 6.9531-1.793 17.945-5.6094 41.277l-6.2812 39.258c-1.5703 13.234-2.4648 25.348-2.4648 36.789 0 31.406 5.832 56.754 17.496 75.375 3.8125 4.0352 5.6094 7.1758 6.7305 9.8672-2.6914-2.6914-6.0586-6.2812-10.094-12.113 0 0-3.3672-4.7109-3.3672-4.7109-13.461-19.738-49.801-72.008-70.664-89.73-22.207-18.844-42.848-50.023-55.633-83.898l-5.832 0.89844c-8.3008 104.54 68.418 164.21 101.17 190l3.3633 2.4688c29.164 22.883 82.555 54.289 83 54.512l4.4883-3.8125-14.133-32.977c-5.3828-14.359-10.094-46.66-12.562-86.816-5.1602-88.836-19.738-131.91-24.004-142.9l-5.832 1.7969zm0.67188 46.883c2.4688-14.133 3.8125-23.105 4.7109-30.281 6.0547 21.086 14.582 60.566 18.395 124.95 2.4688 40.602 7.1797 73.578 13.012 88.609 0 0 6.2812 14.582 10.316 24.453-15.926-9.6484-52.043-31.855-74.25-49.129l-3.3672-2.6914c-30.281-23.777-99.379-77.617-99.379-169.59v-3.3672c13.238 30.508 31.184 58.102 51.82 75.598 20.414 17.051 56.309 69.094 69.77 88.609l3.1406 4.7109c10.094 14.359 17.273 18.621 17.496 18.844l3.1406 1.7969 1.1211-3.3672c0.67188-0.89453 3.5898-9.1953-8.3008-22.434-14.805-23.777-19.516-60.117-13.906-107.45l6.2812-39.258"/>
  <path d="m234.63 843.88s-18.395-28.715-34.996-47.559c-16.598-18.395-89.953-101.39-52.043-241.38 0 32.527 4.4883 50.922 7.8516 62.586 3.8125 11.441 40.152 89.508 43.746 110.59 3.5859 21.09 9.6445 60.793 18.168 65.281 3.1406-2.0195-0.44922-8.9766-1.5703-15.48-1.3438-6.2812-11.887-60.566 19.965-119.57 28.941-51.82 34.324-56.754 38.586-74.703 1.3438 33.875-9.6484 100.95-18.395 129.21-8.5273 28.039-31.633 93.316-21.312 131"/>
  <path d="m197.39 798.56c16.152 18.172 34.547 46.66 34.547 46.887l5.6094-2.4688c-8.9727-32.754 8.7461-88.836 18.168-119.12l3.1406-10.098c8.3008-26.918 19.965-94.891 18.621-130.33l-6.0586-0.67188c-3.1406 12.336-6.5039 18.617-18.395 39.031l-19.965 35.219c-18.844 34.773-23.105 68.199-23.105 91.527 0 13.684 1.5703 23.105 2.4688 28.039-4.0391-13.684-7.6289-33.648-9.6484-44.414l-0.67188-4.4883c-2.4688-14.805-19.516-54.512-32.078-83.449l-11.441-27.59c-3.3633-10.77-7.8516-29.164-7.8516-61.691l-6.0547-0.89844c-24.902 91.75-6.0586 178.57 52.715 244.52zm4.4883-4.2617c-40.828-45.539-61.691-101.62-61.691-162.41 0-17.047 2.2422-34.32 5.3828-51.82 1.5703 18.172 4.4883 30.285 6.957 38.359l11.887 28.266c11.664 26.918 29.387 67.973 31.633 81.879l0.67188 4.7109c5.6094 31.633 10.77 58.328 19.293 62.812l1.5703 0.67188 1.5703-0.89844c1.793-1.1211 2.4688-3.1406 2.4688-5.1602 0-2.4648-0.67578-5.1562-1.5703-7.8516l-1.3477-5.3828c-0.89844-4.0391-2.6914-14.355-2.6914-29.164 0-22.43 4.2617-54.734 22.656-88.383l19.742-34.996c5.6055-9.8711 9.4219-16.375 12.113-22.207-1.7969 36.34-10.77 86.812-17.5 109.25l-3.1406 10.094c-8.2969 26.246-21.086 66.402-21.086 99.379 0 3.5898 0.89844 6.7305 1.3477 10.094-6.957-10.094-17.723-25.348-28.266-37.238"/>
  <path d="m203.9 673.61s-10.992-44.641-24.453-80.309c-13.461-35.891-39.258-119.12 27.59-205.94-14.133 34.547-8.5234 56.98-8.5234 60.793s8.3008 80.535 8.5234 99.602c0.22656 24.449-4.2617 66.621-4.2617 66.621s1.5703 5.1602 4.9375 0c2.0195-3.1406 6.5039-57.652 39.258-90.18 30.281-30.281 54.957-53.164 61.688-65.727 0 22.207-12.785 54.961-23.328 72.68-10.32 17.949-53.168 76.723-63.035 96.461-9.6484 19.965-18.398 43.523-18.398 45.988"/>
  <path d="m176.53 594.43c13.238 34.996 24.227 79.637 24.453 80.086l6.0547-0.67188c0.22656-2.4688 8.3008-24.68 18.172-44.645 5.6094-11.664 22.883-37.012 38.359-59.445l24.453-37.016c11.441-19.516 23.551-52.266 23.551-74.25l-5.6055-1.5703c-5.3867 10.094-22.883 27.367-45.316 49.352l-15.926 15.703c-27.145 26.918-35.445 69.09-38.586 84.797 0 0-0.67188 3.5898-0.89453 5.1602 1.1211-5.6094 4.7109-64.16 4.7109-64.16l-6.2812-78.738-2.2461-23.777c-0.44922-2.6953-0.89453-6.957-0.89453-12.562 0-10.32 1.793-25.352 9.1953-44.191l-5.1602-3.1406c-47.332 61.688-56.754 131.9-28.039 209.07zm5.832-2.2422c-10.543-28.266-15.926-55.637-15.926-81.883 0-36.789 10.992-71.336 31.633-103.86-2.4688 10.32-3.5898 19.516-3.5898 26.246 0 5.8359 0.44922 10.32 0.67188 13.238 0.44922 2.2422 2.2422 23.777 2.2422 23.777l6.5078 78.066s-4.2617 66.176-4.2617 66.176c0.44531 2.0195 1.5703 5.3828 4.7109 5.6094 2.2422 0.44922 4.2617-0.89844 5.832-3.5898l2.0195-8.0742c3.1406-15.254 10.992-55.859 36.789-81.43l16.152-15.93c18.395-18.172 30.957-31.18 39.031-41.727-2.918 21.09-13.234 46.887-21.535 61.02l-24.227 36.562c-15.48 22.434-32.977 48.008-38.809 59.898-5.8359 11.887-11.668 26.246-15.258 36.34-4.2617-15.254-12.336-45.09-21.98-70.441"/>
  <path d="m223.19 521.53s4.9375-12.336 0.44922-62.141c-4.7109-49.801-6.7305-117.77 70.441-163.53-19.293 32.301-22.434 37.91-28.266 64.383-5.832 26.246-12.34 68.418-22.883 92.195-4.2617 11.668-6.9531 20.863-4.9336 21.984 1.793 1.1211 2.6914-0.89453 4.0352-4.9336 1.7969-4.0391 17.5-39.707 49.355-62.363 31.852-22.66 60.566-45.316 71.336-67.75-4.7109 41.504-20.414 56.309-36.117 77.168-17.051 22.66-78.293 69.992-88.609 85.469-10.543 15.254-14.809 19.516-14.809 19.516"/>
  <path d="m220.5 459.61c4.4844 47.781-0.22656 60.566-0.22656 60.566l4.9375 3.5898 15.254-20.188c4.7109-6.957 21.312-21.539 38.586-37.016 20.188-17.723 41.051-36.117 50.023-48.23l6.2812-8.0742c13.461-17.273 26.246-33.652 30.508-70.441l-5.832-1.793c-10.766 22.207-40.152 45.09-70.438 66.625-23.109 16.375-37.691 39.258-45.09 52.941 0.44531-1.5703 0.67188-2.0195 1.3438-4.0391 8.0742-17.945 13.461-46.211 18.621-70.887l4.2617-21.758c5.832-25.574 8.5234-30.734 28.039-63.488l-4.2617-4.2617c-83.004 49.352-75.824 125.62-72.008 166.45zm8.0742 36.117c0-9.1992-0.44922-21.09-2.0195-36.566-0.89453-9.6445-1.793-21.312-1.793-34.098 0-36.34 10.766-81.43 58.324-116.43-11.887 20.188-15.477 28.938-20.188 50.922l-4.7109 21.758c-4.7109 24.453-10.32 52.27-18.172 69.992-4.2617 11.441-5.832 17.723-5.832 21.312 0 2.4688 0.89844 3.5898 2.2461 4.4844l1.1211 0.67578 2.6914-0.22656c2.4688-0.89453 3.5898-3.5898 4.7109-7.1758 1.5703-3.5898 17.496-38.809 48.23-60.793 25.348-17.945 49.352-37.016 63.707-55.859-5.1602 24.453-15.031 38.137-26.469 52.941l-6.2812 7.8516c-8.75 11.664-30.062 30.734-49.129 47.559-18.395 16.375-34.547 30.508-39.707 38.133 0 0-3.5898 4.9375-7.1797 9.6484 0.22656-3.8125 0.44922-8.0781 0.44922-14.133"/>
  <path d="m280.84 389.4s10.094-52.719 30.285-83.898c20.188-31.184 62.141-58.773 106.33-72.461-15.48 13.012-24.902 24.676-30.285 34.098-5.3828 9.1992-38.809 61.469-54.062 78.066-15.703 16.602-40.828 31.633-52.27 44.191"/>
  <path d="m308.45 303.7c-20.188 31.406-30.059 83-30.508 85.02l5.3828 2.6914 22.434-19.066 29.387-25.125c15.93-17.051 49.578-69.543 54.734-78.516 6.2812-10.992 16.152-22.211 29.613-33.426l-2.9141-5.1602c-46.66 14.355-87.938 42.621-108.13 73.578zm5.3828 3.3633c17.051-26.469 51.148-50.473 90.18-65.504-7.8516 8.0781-14.805 16.152-19.516 24.004-5.1562 8.75-38.359 60.793-53.836 77.617 0 0-37.914 32.078-44.867 37.91 3.8125-16.152 13.234-51.145 28.039-74.027"/>
  <path d="m599.61 1254s127.64-155.91 282.65-117.1c71.785 27.141 113.73 46.434 136.84 50.023 22.879 3.8125 76.047 6.7305 108.12-16.375-58.328 56.082-113.73 61.016-154.56 54.289-41.055-6.7305-82.555-38.809-93.32-47.109-10.77-8.3008-51.148-53.164-125.4-21.535-54.289 26.922-121.59 103.64-132.8 117.55l-21.535-19.738"/>
  <g clip-path="url(#bdd6be3dd5)">
   <path d="m597.15 1251.9-1.793 2.2422 26.246 24.004 2.0195-2.6953c13.684-16.824 79.633-90.629 131.68-116.65 65.277-27.816 103.64 5.3828 118 17.945l4.0391 3.3672c35.668 27.141 67.297 43.293 94.891 47.781 56.527 8.9727 109.47-9.4219 156.8-54.734 0.2227-0.2266 0.2227-0.2266 0.2227-0.4492l-3.8125-4.7109c-36.34 26.02-98.93 17.047-105.88 15.926-15.031-2.4688-38.359-11.664-73.805-25.797l-62.363-24.227c-155.46-39.035-284.89 116.43-286.25 118zm284.45-112.16 61.914 24.227c35.895 14.133 59.449 23.555 75.152 26.02 5.832 0.8984 50.023 6.957 86.812-5.6055-40.824 31.852-85.016 44.863-132.35 37.238-26.246-4.2617-57.203-19.742-91.523-46.211-0.44922-0.2266-4.2617-3.3672-4.2617-3.3672-15.254-13.234-55.637-48.227-124.73-18.617-51.371 25.348-114.86 95.34-131.68 115.75-3.3633-2.918-13.906-12.789-17.047-15.48 11.441-13.461 132.8-150.07 277.71-113.96"/>
  </g>
  <path d="m911.66 1129.2s85.242 15.703 117.1 24.227c32.078 8.5234 139.98 7.625 200.56-89.508-48.902 42.172-110.14 43.746-134.6 43.52-24.449-0.2227-87.934 10.77-118.67 17.5 0.44922-6.0586 31.629-13.684 41.051-18.844 9.1992-5.1602 35.445-13.684 65.73-84.574 10.543-21.535 11.887-33.648 19.289-40.152-13.457 2.4688-39.031 31.406-46.883 39.93-8.0742 8.9727-55.633 66.402-83 81.43-27.371 15.48-41.055 22.434-60.57 26.469"/>
  <path d="m1055.2 1016.8-2.2422 2.4688-6.0586 6.7266c-14.582 16.824-53.164 61.469-76.047 74.031-27.816 15.703-41.051 22.207-59.895 26.02v6.0586c0.67188 0.2227 85.465 15.926 117.1 24.227 39.48 10.766 145.59 2.6914 203.69-90.855l-4.4844-3.8125c-33.426 28.715-78.066 43.07-132.36 42.621-21.309-0.2227-67.746 7.4023-100.05 13.684 2.2422-0.8945 4.7109-1.793 6.7305-2.4648l16.824-6.7305 2.6914-1.3477c10.766-5.3828 36.113-18.395 64.605-84.57l9.1953-21.762c3.1406-8.2969 5.3867-13.906 8.9727-17.273l-2.4648-5.3828c-11.664 2.0195-29.836 20.414-46.211 38.359zm-81.43 88.832c23.777-13.457 61.688-56.977 77.84-75.598l5.832-6.5039 2.4688-2.6914c6.9531-7.6289 23.105-24.902 34.996-32.527-1.7969 3.3633-4.0391 5.832-5.832 10.543l-8.9766 21.312c-27.59 64.383-51.594 76.496-61.914 81.879l-2.6914 1.3438-15.926 6.2812c-14.582 5.1602-21.09 8.5273-24.004 12.117l-0.22266 0.2227c-0.67578 0.8984-2.2461 1.793-2.4688 2.6914l-0.22266 4.2617 4.0352-1.1211c28.715-6.2812 92.875-17.496 118-17.273 48.23 0.2265 88.609-11.215 120.91-33.426-57.879 76.047-150.08 83.004-185.97 73.355-24.004-6.5039-78.516-17.047-104.09-21.758 13.684-4.4883 26.695-11.219 48.227-23.105z"/>
  <path d="m1067.6 1091.1s41.949-13.012 73.582-17.949c31.852-5.1562 142.22-36.113 182.15-167.57-42.398 52.043-52.043 55.41-77.391 69.09-25.352 13.238-102.07 59.223-128.54 84.125l-7.8516 4.7109s-2.2461-3.1406 8.9727-13.461c11.441-10.543 49.801-47.332 54.062-127.42 4.0391-35.219 11.215-67.297 13.684-72.008-17.496 10.766-37.465 52.266-41.5 63.707-4.0391 11.668-30.957 92.875-34.324 102.52-3.5859 9.6445-25.574 61.242-42.844 74.254"/>
  <path d="m1141.8 913.43-34.32 102.52c-4.4883 11.891-26.023 60.793-41.949 72.68l2.6914 5.3867c0.4453 0 42.395-13.012 73.578-17.949 14.133-2.2422 140.88-26.469 184.62-169.59l-5.3828-2.918c-39.93 48.906-50.25 54.289-72.68 66.18l-4.0391 2.0195c-25.125 13.457-93.543 54.734-123.38 80.082 41.504-38.809 52.719-91.523 54.738-128.99 4.0352-36.113 10.992-67.07 13.234-70.664l-4.4883-4.2617c-18.844 11.664-38.809 54.961-42.621 65.504zm-28.488 104.54 34.32-102.52c3.3672-9.8711 17.945-39.258 32.305-54.512-3.3672 13.684-7.6289 36.793-10.543 61.242-2.918 53.168-20.641 95.34-52.941 125.62-7.8516 7.1797-10.098 11.891-10.098 14.805 0 1.1211 0.2266 2.2422 0.8984 2.918l1.5703 2.0195 10.094-6.0586c26.246-24.453 101.85-69.992 128.32-84.125l3.8125-2.0156c19.965-10.547 32.305-18.172 62.141-53.168-47.332 122.93-159.27 145.59-172.51 147.83-22.434 3.5898-49.801 10.992-64.16 15.254 16.824-19.516 33.875-59.219 36.793-67.297"/>
  <path d="m1183.5 981.84s52.492-32.754 81.43-56.531c28.715-23.555 109.92-85.691 98.93-192.25-12.113 34.773-32.078 66.629-54.289 86.367-22.207 19.742-61.691 81.43-71.109 95.789-9.6484 14.355-16.152 18.395-16.152 18.395s-3.3672-6.9531 7.4023-19.516c7.625-12.789 21.758-43.969 12.113-110.14-11.215-61.914-15.031-76.496-13.684-85.918-7.8516 21.758-17.945 68.645-20.414 142.22-1.3438 41.727-5.6094 73.805-10.766 87.938-5.1602 14.359-13.461 33.652-13.461 33.652"/>
  <path d="m1204.6 860.25c-1.3438 40.152-5.3828 72.68-10.543 86.816l-13.234 33.648 4.4883 3.8125c0.4453-0.44531 52.938-33.199 81.652-56.754l3.3672-2.6914c32.078-26.469 107.45-87.938 96.684-192.47l-6.0547-0.67188c-11.891 34.547-31.41 65.727-53.391 85.242-20.414 18.172-55.41 71.336-68.645 91.527l-3.1406 4.9336c-4.0391 5.832-7.1797 9.4219-9.6445 12.113 0.8945-2.4688 2.4648-5.6094 5.832-9.6445 10.766-17.949 16.152-41.953 16.152-71.113 0-13.012-0.8984-26.918-3.1406-41.5 0-0.22656-7.4062-39.93-7.4062-39.93-4.4844-23.777-6.5039-34.547-6.5039-41.277 0-1.3438 0-2.6914 0.2266-3.8125l-5.8359-1.5703c-4.2617 11.215-17.719 54.734-20.863 143.34zm-4.7109 89.059c5.3867-14.809 9.6484-48.008 10.992-88.836 2.2461-64.383 9.8711-103.86 15.48-125.18 0.8984 6.9531 2.4648 15.926 5.1602 29.387l7.4023 39.707c2.0195 14.582 3.1406 28.266 3.1406 40.828 0 27.816-5.1602 50.699-15.031 67.297-6.7305 7.8516-8.3008 14.133-8.3008 17.949 0 2.4648 0.6758 4.0352 0.8984 4.2617l1.3477 3.3633 2.9141-1.793c0.4493-0.22656 7.4023-4.7109 17.051-19.293l3.3633-4.9336c13.012-19.965 47.559-72.684 67.523-90.18 19.965-17.949 37.238-45.988 49.574-76.723 0.2266 2.4688 0.4493 5.1602 0.4493 7.625 0 89.285-66.176 143.57-95.562 167.57l-3.3633 2.6914c-21.762 17.945-57.203 41.055-72.906 51.148 3.8125-9.6484 9.8711-24.902 9.8711-24.902"/>
  <path d="m1268.8 830.64s17.723-29.164 33.875-48.23c16.152-18.84 87.711-103.86 46.438-242.71 0.6719 32.527-3.1406 51.148-6.5078 62.812-3.3633 11.441-37.688 90.402-40.828 111.49-3.3633 21.312-8.5234 61.016-17.047 65.727-2.918-1.793 0.6719-8.9727 1.5703-15.254 1.1211-6.5039 10.32-61.242-22.883-119.12-30.059-50.922-35.668-56.082-40.152-73.805-0.6758 33.875 12.113 100.72 21.086 128.54 9.4219 28.039 34.098 92.648 24.453 130.56"/>
  <path d="m1346 539.68v8.3008c0 21.312-2.0195 38.809-6.2812 53.613l-11.215 28.941c-11.664 28.938-27.594 68.641-29.836 83l-0.8984 6.0586c-1.5703 10.992-4.4883 29.609-8.0742 42.621 0.6718-4.4883 1.793-12.113 1.793-23.332 0-23.328-4.4844-58.547-25.574-95.113l-20.863-34.773c-12.113-19.965-15.703-26.246-18.844-38.133l-6.2812 0.67187c-0.4493 34.996 12.789 102.74 21.535 129.66l3.5898 10.316c10.094 29.836 29.164 85.469 20.863 118.45l5.6094 2.2422c0.2226-0.22266 17.719-29.16 33.648-47.781 57.203-67.297 73.805-154.56 46.883-245.64zm-59.672 242.71c8.5273-4.707 13.012-30.957 17.5-61.914l0.8984-5.832c2.2422-13.906 18.617-54.734 29.387-81.879l11.441-29.387c2.2422-7.8516 4.4844-21.539 5.6055-39.93 4.4883 19.965 7.1797 39.707 7.1797 58.996 0 58.328-19.516 112.84-57.879 157.93-10.094 11.887-20.41 27.141-27.141 37.461 0.2227-2.4688 0.8946-4.4844 0.8946-6.9531 0-33.203-14.133-74.703-23.328-101.39l-3.5898-10.32c-7.1797-22.434-17.051-72.234-19.742-108.35 2.918 5.6094 6.5078 11.891 12.34 21.312l20.863 34.773c20.188 35.441 24.449 69.316 24.449 91.746 0 12.562-1.3438 21.762-1.793 25.129-0.2227 0-1.5703 5.832-1.5703 5.832-0.4492 2.6914-1.3477 5.1562-1.3477 7.4023 0 2.2422 0.6757 4.2617 2.6953 5.3828l1.5703 0.89844 1.5703-0.89844"/>
  <path d="m1295.5 659.93s10.094-45.09 22.656-81.207 36.34-119.79-32.301-205.03c14.805 34.098 9.8672 56.754 10.094 60.566 0 3.8164-6.7305 80.762-6.2812 99.828 0.2227 24.449 5.832 66.398 5.832 66.398s-1.5703 5.1602-4.9336 0.22656c-2.2461-3.3672-7.8516-57.652-41.277-89.281-31.184-29.387-56.305-51.598-63.262-64.16 0.4492 22.434 14.133 54.512 24.902 72.234 10.766 17.5 54.957 75.375 65.277 94.891 10.094 19.516 19.293 42.848 19.293 45.539"/>
  <path d="m1282.9 375.04c8.9727 19.965 10.543 35.891 10.543 46.211 0 4.4844-0.2266 7.8516-0.4492 10.094l-1.793 22.434-4.7109 80.309s3.5859 40.828 5.1562 58.551c-3.8125-17.273-12.785-57.43-40.375-83.227 0-0.22266-17.051-16.375-17.051-16.375-22.434-21.09-40.152-37.688-45.539-47.336l-5.832 1.5703c0.4492 21.984 13.461 54.289 25.348 73.805l25.574 36.789c15.93 21.762 33.652 46.66 39.484 57.879 10.543 19.965 18.844 41.949 19.066 44.414l6.2812 0.44922c0-0.44922 10.098-45.312 22.434-80.98 27.145-77.168 16.152-147.16-32.977-207.95zm10.992 230.83c3.1406-0.44922 4.2617-3.8164 4.4844-4.4883 0-2.4688-5.832-67.297-5.832-67.297l4.9375-79.637 1.3438-20.191c0.2266-3.3633 0.6719-7.625 0.6719-12.785 0-7.4023-1.5703-17.723-4.4844-28.938 22.434 33.199 34.32 69.09 34.32 107.68 0 24.902-4.7109 50.699-14.133 77.395-8.9727 25.797-16.598 55.855-20.188 71.109-3.8125-9.8711-9.8711-24.004-16.152-35.891-6.2812-11.664-24.227-36.566-39.93-58.551l-25.348-36.562c-9.8711-15.93-19.965-40.379-23.332-60.344 8.3008 10.094 21.086 22.656 39.707 40.379l17.273 15.926c26.246 24.902 34.77 63.934 38.359 80.535l2.2422 8.0742c1.7969 2.6914 3.8125 3.8125 6.0586 3.5898"/>
  <path d="m1272.8 508.05s-5.1602-12.113-1.793-61.914c3.3633-50.027 3.8125-118-74.254-161.96 19.965 32.078 23.105 37.688 29.613 63.934 6.5039 26.023 14.133 67.973 25.125 91.523 4.4844 11.668 7.625 20.641 5.6055 21.762-2.0195 1.3477-2.9141-0.89453-4.4844-4.7109-1.5703-4.0352-18.395-39.258-50.473-61.016-32.527-21.984-61.691-43.969-72.906-65.953 5.3828 41.277 21.535 55.633 37.688 76.047 17.496 22.207 79.859 67.973 90.629 83.004 10.992 15.254 15.254 19.293 15.254 19.293"/>
  <path d="m1194.1 285.98c20.188 32.305 23.105 37.465 29.387 62.812l4.7109 20.637c5.6094 24.902 11.891 53.168 20.414 71.562 0.4492 1.1211 1.3438 3.3633 2.0195 5.1602-7.1797-13.012-22.211-36.566-46.887-53.168-30.73-20.637-60.793-43.07-71.785-64.605l-5.832 1.7969c4.9375 36.562 17.945 52.492 32.078 69.539l6.2812 7.8516c9.4219 12.113 30.957 30.059 51.371 47.559 17.723 14.805 34.324 28.715 39.258 35.668l15.703 19.516 4.9375-3.5859c-0.2266 0-4.9375-12.562-1.5703-60.348 2.6914-41.277 7.8516-117.77-75.824-164.88zm64.605 177.89c1.3438-0.67578 2.0156-2.0195 2.0156-4.0391 0-3.5898-2.0156-9.8711-6.2773-21.312-8.3008-17.723-14.809-47.109-20.191-70.441l-4.9336-20.859c-5.3867-21.984-9.1992-30.512-21.312-50.699 49.352 34.098 61.016 78.516 61.016 121.81 0 9.4219-0.4492 18.621-0.8984 27.59-0.8946 12.562-1.1211 22.66-1.1211 30.734 0 8.9727 0.2265 15.031 0.8984 19.965-3.8125-4.7109-7.6289-9.4219-7.6289-9.4219-5.3828-7.4023-21.535-21.086-40.379-36.789-19.512-16.375-41.5-34.996-50.695-46.438l-6.2812-8.0742c-11.664-14.355-21.762-27.59-27.59-51.82 13.684 17.273 35.891 34.547 65.055 54.062 33.199 22.66 49.352 59.449 49.574 59.672 1.3477 3.5898 2.2422 6.0586 4.7109 6.7305l1.3477 0.67188 2.6914-1.3438"/>
  <path d="m1212 377.5s-11.215-52.27-32.301-83.004c-20.641-30.73-63.262-57.203-107.68-69.766 15.699 12.562 25.348 24.004 30.957 33.199 5.6055 9.1992 40.379 60.57 56.082 76.723 15.926 16.375 41.5 30.508 52.941 42.848"/>
  <g transform="translate(7.9172)">
   <path d="m930.89 502.21v10.918l-51.812 19.754v-10.891z"/>
   <g transform="translate(-5.4022 -16.206)" clip-path="url(#79bf8aec9d)">
    <path d="m1064.4 558.34v10.887l-104.66-39.887v-10.918z"/>
   </g>
   <g transform="translate(-5.4022 -16.206)">
    <path d="m861.01 290.57v33.344l-104.66-67.922v-33.371z"/>
    <path d="m732.88 222.62v33.371l-104.66 67.922v-33.344z"/>
    <path d="m604.75 445.42v18.199l-46.035-21.484v-18.199z"/>
   </g>
   <g transform="translate(-5.4022 -16.206)" clip-path="url(#327e19dbcf)">
    <path d="m535.24 423.94v18.199l-104.63 48.84v-18.199z"/>
   </g>
   <g transform="translate(-5.4022 -16.206)" clip-path="url(#670029335c)">
    <path d="m430.61 516.89v400.3h104.63v-449.08zm45.535 162.08h-23.469v-23.48h23.469zm44.012-129.82h-23.473v-23.48h23.473z"/>
   </g>
   <g transform="translate(-5.4022 -16.206)" clip-path="url(#f1bb3aadd9)">
    <path d="m604.75 489.54v427.65h-46.035v-449.14z"/>
   </g>
   <g transform="translate(-5.4022 -16.206)" clip-path="url(#ec4bdc4503)">
    <path d="m628.22 351.91v565.28h104.6v-633.2zm41.074 42.824h-23.473v-23.48h23.473zm40.051 314.06h-23.473v-23.48h23.473zm0-143.82h-23.473v-23.48h23.473z"/>
   </g>
   <g transform="translate(-5.4022 -16.206)" clip-path="url(#851688f441)">
    <path d="m756.29 283.99v633.2h104.66v-565.28zm49.875 357.29h-23.469v-23.48h23.469zm0-237.75h-23.469v-23.48h23.469zm36.238 94.98h-23.473v-23.48h23.473z"/>
   </g>
   <g transform="translate(-5.4022 -16.206)" clip-path="url(#77ff3c3933)">
    <path d="m959.77 554.46v362.73h104.6v-322.87zm47.445 86.82h-23.473v-23.48h23.473zm36.672 67.508h-23.469v-23.48h23.469z"/>
   </g>
   <g transform="translate(-5.4022 -16.206)" clip-path="url(#5c3025ab3f)">
    <path d="m936.29 554.46v362.73h-51.812v-342.97z"/>
   </g>
  </g>
 </g>
</svg>
