<?xml version="1.0" encoding="UTF-8"?>
<svg width="2e3" height="2e3" version="1.0" viewBox="0 0 1500 1500" xmlns="http://www.w3.org/2000/svg" zoomAndPan="magnify">
 <defs>
  <clipPath id="e934f3a288">
   <path d="m595 1127h535v150.84h-535z"/>
  </clipPath>
  <clipPath id="8ac138f276">
   <path d="m1070 221.84h146v158.16h-146z"/>
  </clipPath>
  <clipPath id="bf6959d368">
   <path d="m984 529h52v115.38h-52z"/>
  </clipPath>
 </defs>
 <g>
  <path d="m913.68 1249.9s-131.46-152.54-285.57-109.92c-70.887 28.938-112.61 49.352-135.5 53.84-22.656 4.0352-76.047 8.2969-108.57-13.684 59.672 54.508 115.08 57.875 155.91 50.246 40.828-7.8516 81.652-41.051 92.199-49.578 10.766-8.2969 49.574-54.508 124.95-24.676 54.512 25.574 123.83 100.73 135.49 114.18l21.09-20.414"/>
  <path d="m627.21 1137.1c-0.22266 0-61.016 25.578-61.016 25.578-35.672 15.254-59.223 25.125-74.254 28.039-6.9531 1.3438-69.316 11.891-106.11-13.234l-3.8164 4.7109c0 0.22266 0.22656 0.44531 0.22656 0.44531 48.676 44.195 101.84 61.242 158.38 50.699 27.145-5.1602 58.547-21.758 93.094-49.801 0.44922-0.22656 4.4883-3.8125 4.4883-3.8125 14.133-12.789 51.594-46.887 117.77-20.641 52.719 24.676 120.24 96.688 134.15 113.29l2.2461 2.4688 25.574-24.676-2.0195-2.2422c-1.3477-1.5703-134.37-153.44-288.71-110.82zm-133.93 59.672c15.48-2.9141 39.258-13.008 75.148-28.488l60.793-25.348c143.57-39.707 268.29 93.766 280.19 106.78-3.1406 3.1406-13.461 13.012-16.824 16.152-17.273-19.738-82.105-88.16-134.37-112.39-69.766-27.816-109.25 8.0742-124.28 21.758l-3.5898 3.3672c-34.098 27.367-64.605 43.742-91.078 48.676-48.23 9.1992-93.992-3.8125-136.61-36.34 37.91 13.234 84.348 6.9531 90.629 5.832"/>
  <path d="m598.72 1133s-84.797 18.172-116.65 27.367c-31.852 9.4219-139.53 11.219-202.34-84.348 49.801 40.828 110.82 40.828 135.27 39.93 24.676-0.67188 88.16 8.75 119.34 14.582-0.67578-5.832-32.078-12.785-41.504-17.723-9.4219-4.9336-35.891-12.785-67.969-82.777-10.77-21.312-12.562-33.199-19.965-39.707 13.457 2.0195 39.707 30.285 47.781 38.809 8.0742 8.5234 56.977 64.832 84.797 79.188 27.816 14.582 41.5 21.535 61.242 24.676"/>
  <path d="m402.89 992.83c4.0391 3.3672 6.2812 8.75 9.6484 17.051l9.6445 21.535c29.836 65.277 54.734 77.168 66.625 83l2.4688 1.1211 17.273 6.2812c1.793 0.67188 4.2617 1.5703 6.5039 2.2461-32.078-5.1602-78.961-11.668-100.05-10.992-54.512 1.5703-99.375-11.668-133.25-39.484l-4.7109 4.2617c60.566 91.75 166.68 97.133 205.94 85.469 31.184-9.1953 115.53-26.918 116.43-27.145l-0.22266-6.0547c-19.516-3.3672-33.203-10.32-60.344-24.453-23.555-12.336-63.484-56.305-78.516-72.906l-5.3828-5.832-2.0195-2.0195c-16.824-17.723-35.668-35.891-47.559-37.461l-2.4688 5.3828zm107.45 123.16-16.148-5.832-2.6953-1.3477c-10.543-4.9336-34.77-16.824-63.707-80.082 0-0.22656-9.6484-21.312-9.6484-21.312-1.793-4.7109-4.0352-6.9531-6.0547-10.32 12.336 7.1797 29.164 24.453 36.34 32.078l2.0195 2.0195 5.1602 5.832c15.254 16.602 55.859 61.465 80.535 74.254 21.086 10.992 34.32 17.723 48.453 21.758-25.352 5.6094-79.414 17.273-103.42 24.453-35.668 10.543-128.09 5.832-187.54-68.422 32.75 21.09 73.355 31.629 121.59 30.059 23.555-0.67188 84.793 8.0781 118.45 14.359l4.0352 0.89453-0.44531-4.2617c0-0.89453-1.7969-1.5703-2.4688-2.4648l-0.22656-0.22656c-2.9141-3.5898-9.6445-6.7305-24.227-11.441"/>
  <path d="m442.14 1098.9s-42.621-11.664-74.254-16.148c-31.855-4.2656-142.9-32.305-186.19-162.64 43.742 50.922 53.613 54.066 79.188 66.852 25.797 12.785 103.41 56.977 130.33 81.203l7.8516 4.4883s2.6914-3.3672-9.1953-13.461c-11.441-10.316-50.699-45.988-56.758-125.85-4.9336-35.219-12.785-67.297-15.254-71.559 17.723 10.094 38.586 50.922 42.848 62.363 4.2617 11.664 32.977 92.199 36.789 101.84 3.5898 9.4219 26.922 60.57 44.641 72.906"/>
  <path d="m315.16 863.18c2.0156 3.5898 9.8672 34.77 14.805 70.664 2.9141 37.465 15.254 90.18 57.875 127.64 0.22656 0 0.22656 0 0.22656 0.22266-29.613-24.449-100.05-64.605-125.85-77.391l-4.0391-2.2461c-22.207-10.988-33.426-16.375-74.027-63.934l-5.3828 2.918c47.109 142 174.3 163.09 188.66 164.88 31.18 4.0352 73.352 16.152 73.801 16.152l2.6953-5.3867c-16.379-11.664-39.258-60.344-43.746-71.785l-36.566-101.62c-4.0352-10.543-25.125-53.168-44.191-64.16l-4.2617 4.0391zm86.363 211.32c0.67578-0.67188 0.89844-1.5703 0.89844-2.6914 0-2.918-2.0195-7.6289-10.543-14.809-40.828-36.34-52.941-87.262-55.633-123.83-3.3672-24.227-8.3008-47.781-12.113-61.465 14.805 14.805 30.059 43.965 33.648 53.613l36.789 101.84c2.4688 6.5078 20.863 46.887 38.137 66.18-14.359-3.5898-41.949-10.543-64.605-13.461-13.012-1.793-125.4-21.758-175.88-143.34 30.512 33.871 43.074 41.273 63.039 51.145l4.2617 2.0195c26.695 13.461 103.19 56.98 129.66 80.758 0.44922 0.44922 8.5234 4.9375 8.5234 4.9375l2.2461 1.3438 1.5703-2.2422"/>
  <path d="m323.46 992.62s-53.387-31.184-82.777-54.066c-29.387-23.105-111.94-83.223-103.41-190 12.785 34.547 33.648 65.953 56.305 85.02 22.656 19.293 63.711 79.859 73.578 93.992 9.6484 14.133 16.375 17.945 16.375 17.945s3.1445-6.9531-7.8477-19.066c-8.0781-13.012-22.66-43.52-14.809-110.14 9.8711-61.914 13.461-76.719 11.668-86.367 8.5234 21.762 19.738 68.645 24 142 2.4688 41.504 7.1797 73.582 12.562 87.711 5.6094 13.91 14.359 32.977 14.359 32.977"/>
  <path d="m269.63 730.6c0.22266 1.3438 0.22266 2.9141 0.22266 4.7109 0 6.9531-1.793 17.945-5.6094 41.277l-6.2812 39.258c-1.5703 13.234-2.4648 25.348-2.4648 36.789 0 31.406 5.832 56.754 17.496 75.375 3.8125 4.0352 5.6094 7.1758 6.7305 9.8672-2.6914-2.6914-6.0586-6.2812-10.094-12.113 0 0-3.3672-4.7109-3.3672-4.7109-13.461-19.738-49.801-72.008-70.664-89.73-22.207-18.844-42.848-50.023-55.633-83.898l-5.832 0.89844c-8.3008 104.54 68.418 164.21 101.17 190l3.3633 2.4688c29.164 22.883 82.555 54.289 83 54.512l4.4883-3.8164-14.133-32.973c-5.3828-14.359-10.094-46.66-12.562-86.816-5.1602-88.836-19.738-131.91-24.004-142.9l-5.832 1.7969zm0.67188 46.883c2.4688-14.133 3.8125-23.105 4.7109-30.281 6.0547 21.086 14.582 60.566 18.395 124.95 2.4688 40.602 7.1797 73.578 13.012 88.609 0 0 6.2812 14.582 10.316 24.453-15.926-9.6484-52.043-31.855-74.25-49.129l-3.3672-2.6914c-30.281-23.777-99.379-77.617-99.379-169.59v-3.3633c13.238 30.508 31.184 58.102 51.82 75.598 20.414 17.051 56.309 69.094 69.77 88.609l3.1406 4.7109c10.094 14.359 17.273 18.621 17.496 18.844l3.1406 1.7969 1.1211-3.3672c0.67188-0.89453 3.5898-9.1953-8.3008-22.434-14.805-23.777-19.516-60.117-13.906-107.45l6.2812-39.258"/>
  <path d="m234.63 843.88s-18.395-28.715-34.996-47.559c-16.598-18.395-89.953-101.39-52.043-241.38 0 32.523 4.4883 50.922 7.8516 62.586 3.8125 11.441 40.152 89.508 43.746 110.59 3.5859 21.086 9.6445 60.793 18.168 65.281 3.1406-2.0195-0.44922-8.9766-1.5703-15.48-1.3438-6.2812-11.887-60.566 19.965-119.57 28.941-51.82 34.324-56.754 38.586-74.703 1.3438 33.875-9.6484 100.95-18.395 129.21-8.5273 28.039-31.633 93.316-21.312 131"/>
  <path d="m197.39 798.56c16.152 18.172 34.547 46.66 34.547 46.887l5.6094-2.4688c-8.9727-32.754 8.7461-88.836 18.168-119.12l3.1406-10.098c8.3008-26.918 19.965-94.891 18.621-130.33l-6.0586-0.67188c-3.1406 12.336-6.5039 18.617-18.395 39.031l-19.965 35.219c-18.844 34.773-23.105 68.199-23.105 91.527 0 13.684 1.5703 23.105 2.4688 28.039-4.0391-13.684-7.6289-33.648-9.6484-44.414l-0.67188-4.4883c-2.4688-14.805-19.516-54.512-32.078-83.449l-11.441-27.594c-3.3633-10.766-7.8516-29.16-7.8516-61.688l-6.0547-0.89844c-24.902 91.75-6.0586 178.57 52.715 244.52zm4.4883-4.2617c-40.828-45.539-61.691-101.62-61.691-162.41 0-17.047 2.2422-34.32 5.3828-51.82 1.5703 18.172 4.4883 30.285 6.957 38.359l11.887 28.266c11.664 26.918 29.387 67.973 31.633 81.879l0.67188 4.7109c5.6094 31.633 10.77 58.328 19.293 62.812l1.5703 0.67188 1.5703-0.89844c1.793-1.1211 2.4688-3.1406 2.4688-5.1602 0-2.4648-0.67578-5.1562-1.5703-7.8516l-1.3477-5.3828c-0.89844-4.0391-2.6914-14.355-2.6914-29.164 0-22.43 4.2617-54.734 22.656-88.383l19.742-34.996c5.6055-9.8711 9.4219-16.375 12.113-22.207-1.7969 36.34-10.77 86.812-17.5 109.25l-3.1406 10.094c-8.2969 26.246-21.086 66.402-21.086 99.379 0 3.5898 0.89844 6.7305 1.3477 10.094-6.957-10.094-17.723-25.348-28.266-37.238"/>
  <path d="m203.9 673.61s-10.992-44.641-24.453-80.309c-13.461-35.891-39.258-119.12 27.59-205.94-14.133 34.547-8.5234 56.98-8.5234 60.793s8.3008 80.535 8.5234 99.602c0.22656 24.449-4.2617 66.621-4.2617 66.621s1.5703 5.1602 4.9375 0c2.0195-3.1406 6.5039-57.652 39.258-90.18 30.281-30.281 54.957-53.164 61.688-65.727 0 22.207-12.785 54.961-23.328 72.68-10.32 17.949-53.168 76.723-63.035 96.461-9.6484 19.965-18.398 43.523-18.398 45.988"/>
  <path d="m176.53 594.43c13.238 34.996 24.227 79.637 24.453 80.086l6.0547-0.67188c0.22656-2.4688 8.3008-24.68 18.172-44.645 5.6094-11.664 22.883-37.012 38.359-59.445l24.453-37.016c11.441-19.516 23.551-52.266 23.551-74.25l-5.6055-1.5703c-5.3867 10.094-22.883 27.367-45.316 49.352l-15.926 15.703c-27.145 26.918-35.445 69.09-38.586 84.797 0 0-0.67188 3.5898-0.89453 5.1602 1.1211-5.6094 4.7109-64.16 4.7109-64.16l-6.2812-78.738-2.2461-23.777c-0.44922-2.6953-0.89453-6.957-0.89453-12.562 0-10.32 1.793-25.352 9.1953-44.191l-5.1602-3.1445c-47.332 61.691-56.754 131.91-28.039 209.07zm5.832-2.2422c-10.543-28.266-15.926-55.637-15.926-81.883 0-36.789 10.992-71.336 31.633-103.86-2.4688 10.32-3.5898 19.516-3.5898 26.246 0 5.8359 0.44922 10.32 0.67188 13.238 0.44922 2.2422 2.2422 23.777 2.2422 23.777l6.5078 78.066s-4.2617 66.176-4.2617 66.176c0.44531 2.0195 1.5703 5.3828 4.7109 5.6094 2.2422 0.44922 4.2617-0.89844 5.832-3.5898l2.0195-8.0742c3.1406-15.254 10.992-55.859 36.789-81.434l16.152-15.926c18.395-18.172 30.957-31.18 39.031-41.727-2.918 21.09-13.234 46.887-21.535 61.02l-24.227 36.562c-15.48 22.434-32.977 48.008-38.809 59.898-5.8359 11.887-11.668 26.246-15.258 36.34-4.2617-15.254-12.336-45.09-21.98-70.441"/>
  <path d="m223.19 521.53s4.9375-12.336 0.44922-62.141c-4.7109-49.801-6.7305-117.77 70.441-163.53-19.293 32.301-22.434 37.91-28.266 64.383-5.832 26.242-12.34 68.418-22.883 92.195-4.2617 11.668-6.9531 20.863-4.9336 21.984 1.793 1.1211 2.6914-0.89453 4.0352-4.9336 1.7969-4.0391 17.5-39.707 49.355-62.363 31.852-22.66 60.566-45.316 71.336-67.75-4.7109 41.504-20.414 56.309-36.117 77.168-17.051 22.66-78.293 69.992-88.609 85.469-10.543 15.254-14.809 19.516-14.809 19.516"/>
  <path d="m220.5 459.61c4.4844 47.781-0.22656 60.566-0.22656 60.566l4.9375 3.5898 15.254-20.188c4.7109-6.957 21.312-21.539 38.586-37.016 20.188-17.723 41.051-36.117 50.023-48.23l6.2812-8.0742c13.461-17.273 26.246-33.652 30.508-70.441l-5.832-1.793c-10.766 22.207-40.152 45.09-70.438 66.625-23.109 16.375-37.691 39.258-45.09 52.941 0.44531-1.5703 0.67188-2.0195 1.3438-4.0391 8.0742-17.945 13.461-46.211 18.621-70.887l4.2617-21.762c5.832-25.574 8.5234-30.73 28.039-63.484l-4.2617-4.2617c-83.004 49.352-75.824 125.62-72.008 166.45zm8.0742 36.117c0-9.1992-0.44922-21.09-2.0195-36.566-0.89453-9.6484-1.793-21.312-1.793-34.098 0-36.34 10.766-81.43 58.324-116.43-11.887 20.188-15.477 28.938-20.188 50.922l-4.7109 21.758c-4.7109 24.453-10.32 52.27-18.172 69.992-4.2617 11.441-5.832 17.723-5.832 21.312 0 2.4688 0.89844 3.5898 2.2461 4.4844l1.1211 0.67578 2.6914-0.22656c2.4688-0.89453 3.5898-3.5898 4.7109-7.1758 1.5703-3.5898 17.496-38.809 48.23-60.793 25.348-17.945 49.352-37.016 63.707-55.859-5.1602 24.453-15.031 38.137-26.469 52.941l-6.2812 7.8516c-8.75 11.664-30.062 30.734-49.129 47.559-18.395 16.375-34.547 30.508-39.707 38.133 0 0-3.5898 4.9375-7.1797 9.6484 0.22656-3.8125 0.44922-8.0781 0.44922-14.133"/>
  <path d="m280.84 389.4s10.094-52.719 30.285-83.898c20.188-31.184 62.141-58.773 106.33-72.461-15.48 13.012-24.902 24.676-30.285 34.098-5.3828 9.1992-38.809 61.465-54.062 78.066-15.703 16.602-40.828 31.633-52.27 44.191"/>
  <path d="m308.45 303.7c-20.188 31.406-30.059 83-30.508 85.02l5.3828 2.6914 22.434-19.066 29.387-25.125c15.93-17.051 49.578-69.543 54.734-78.516 6.2812-10.992 16.152-22.211 29.613-33.426l-2.9141-5.1602c-46.66 14.355-87.938 42.621-108.13 73.578zm5.3828 3.3633c17.051-26.469 51.148-50.473 90.18-65.504-7.8516 8.0781-14.805 16.152-19.516 24.004-5.1562 8.75-38.359 60.793-53.836 77.617 0 0-37.914 32.078-44.867 37.91 3.8125-16.152 13.234-51.145 28.039-74.027"/>
  <path d="m599.61 1254s127.64-155.91 282.65-117.1c71.785 27.141 113.73 46.434 136.84 50.023 22.879 3.8125 76.047 6.7305 108.12-16.375-58.328 56.082-113.73 61.016-154.56 54.289-41.055-6.7305-82.555-38.809-93.32-47.109-10.77-8.3008-51.148-53.164-125.4-21.535-54.289 26.922-121.59 103.64-132.8 117.55l-21.535-19.738"/>
 </g>
 <g clip-path="url(#e934f3a288)">
  <path d="m597.15 1251.9-1.793 2.2422 26.246 24.004 2.0195-2.6953c13.684-16.824 79.633-90.629 131.68-116.65 65.277-27.816 103.64 5.3828 118 17.945l4.0391 3.3672c35.668 27.141 67.297 43.293 94.891 47.781 56.527 8.9727 109.47-9.4219 156.8-54.734 0.22266-0.22656 0.22266-0.22656 0.22266-0.44922l-3.8125-4.7109c-36.34 26.02-98.93 17.047-105.88 15.926-15.031-2.4688-38.359-11.664-73.805-25.797l-62.363-24.227c-155.46-39.035-284.89 116.43-286.25 118zm284.45-112.16 61.914 24.227c35.895 14.133 59.449 23.555 75.152 26.02 5.832 0.89844 50.023 6.957 86.812-5.6055-40.824 31.852-85.016 44.863-132.35 37.238-26.246-4.2617-57.203-19.742-91.523-46.211-0.44922-0.22656-4.2617-3.3672-4.2617-3.3672-15.254-13.234-55.637-48.227-124.73-18.617-51.371 25.348-114.86 95.34-131.68 115.75-3.3633-2.9141-13.906-12.785-17.047-15.477 11.441-13.461 132.8-150.07 277.71-113.96"/>
 </g>
 <g>
  <path d="m911.66 1129.2s85.242 15.703 117.1 24.227c32.078 8.5234 139.98 7.625 200.56-89.508-48.902 42.172-110.14 43.746-134.6 43.52-24.449-0.22266-87.934 10.77-118.67 17.5 0.44922-6.0586 31.629-13.684 41.051-18.844 9.1992-5.1602 35.445-13.684 65.73-84.574 10.543-21.535 11.887-33.648 19.289-40.152-13.457 2.4688-39.031 31.406-46.883 39.93-8.0742 8.9727-55.633 66.402-83 81.43-27.371 15.48-41.055 22.434-60.57 26.469"/>
  <path d="m1055.2 1016.8-2.2422 2.4688-6.0586 6.7266c-14.582 16.824-53.164 61.469-76.047 74.031-27.816 15.703-41.051 22.207-59.895 26.02v6.0586c0.67188 0.22266 85.465 15.926 117.1 24.227 39.48 10.766 145.59 2.6914 203.69-90.855l-4.4844-3.8125c-33.426 28.715-78.066 43.07-132.36 42.621-21.309-0.22266-67.746 7.4023-100.05 13.684 2.2422-0.89453 4.7109-1.793 6.7305-2.4648l16.824-6.7305 2.6914-1.3477c10.766-5.3828 36.113-18.395 64.605-84.57l9.1953-21.762c3.1406-8.2969 5.3867-13.906 8.9727-17.273l-2.4648-5.3828c-11.664 2.0195-29.836 20.414-46.211 38.359zm-81.43 88.832c23.777-13.457 61.688-56.977 77.84-75.598l5.832-6.5039 2.4688-2.6914c6.9531-7.6289 23.105-24.902 34.996-32.527-1.7969 3.3633-4.0391 5.832-5.832 10.543l-8.9766 21.312c-27.59 64.383-51.594 76.496-61.914 81.879l-2.6914 1.3438-15.926 6.2812c-14.582 5.1602-21.09 8.5273-24.004 12.117l-0.22266 0.22266c-0.67578 0.89844-2.2461 1.793-2.4688 2.6914l-0.22266 4.2617 4.0352-1.1211c28.715-6.2812 92.875-17.496 118-17.273 48.23 0.22656 88.609-11.215 120.91-33.426-57.879 76.047-150.08 83.004-185.97 73.355-24.004-6.5039-78.516-17.047-104.09-21.758 13.684-4.4883 26.695-11.219 48.227-23.105z"/>
  <path d="m1067.6 1091.1s41.949-13.012 73.582-17.949c31.852-5.1602 142.22-36.113 182.15-167.57-42.398 52.043-52.043 55.41-77.391 69.09-25.352 13.238-102.07 59.223-128.54 84.125l-7.8516 4.7109s-2.2461-3.1406 8.9727-13.461c11.441-10.543 49.801-47.332 54.062-127.42 4.0391-35.219 11.215-67.297 13.684-72.008-17.496 10.766-37.465 52.266-41.5 63.707-4.0391 11.668-30.957 92.875-34.324 102.52-3.5859 9.6445-25.574 61.242-42.844 74.254"/>
  <path d="m1141.8 913.43-34.32 102.52c-4.4883 11.891-26.023 60.793-41.949 72.68l2.6914 5.3828c0.44531 0 42.395-13.008 73.578-17.945 14.133-2.2422 140.88-26.469 184.62-169.59l-5.3828-2.918c-39.93 48.906-50.25 54.289-72.68 66.18l-4.0391 2.0195c-25.125 13.457-93.543 54.734-123.38 80.082 41.504-38.809 52.719-91.523 54.738-128.99 4.0352-36.113 10.992-67.074 13.234-70.664l-4.4883-4.2617c-18.844 11.664-38.809 54.961-42.621 65.504zm-28.488 104.54 34.32-102.52c3.3672-9.8711 17.945-39.258 32.305-54.512-3.3672 13.684-7.6289 36.789-10.543 61.242-2.918 53.164-20.641 95.34-52.941 125.62-7.8516 7.1797-10.098 11.891-10.098 14.805 0 1.1211 0.22656 2.2422 0.89844 2.918l1.5703 2.0195 10.094-6.0586c26.246-24.453 101.85-69.992 128.32-84.125l3.8125-2.0156c19.965-10.547 32.305-18.172 62.141-53.168-47.332 122.93-159.27 145.59-172.51 147.83-22.434 3.5898-49.801 10.992-64.16 15.254 16.824-19.516 33.875-59.223 36.793-67.297"/>
  <path d="m1183.5 981.84s52.492-32.754 81.43-56.531c28.715-23.555 109.92-85.691 98.93-192.25-12.113 34.773-32.078 66.629-54.289 86.367-22.207 19.742-61.691 81.43-71.109 95.789-9.6484 14.355-16.152 18.395-16.152 18.395s-3.3672-6.957 7.4023-19.516c7.625-12.789 21.758-43.969 12.113-110.14-11.215-61.914-15.031-76.496-13.684-85.918-7.8516 21.758-17.945 68.645-20.414 142.22-1.3438 41.727-5.6094 73.805-10.766 87.938-5.1602 14.355-13.461 33.648-13.461 33.648"/>
  <path d="m1204.6 860.25c-1.3438 40.152-5.3828 72.68-10.543 86.816l-13.234 33.648 4.4883 3.8125c0.44531-0.44922 52.938-33.199 81.652-56.754l3.3672-2.6914c32.078-26.469 107.45-87.938 96.684-192.47l-6.0547-0.67188c-11.891 34.547-31.41 65.727-53.391 85.242-20.414 18.172-55.41 71.336-68.645 91.527l-3.1406 4.9336c-4.0391 5.832-7.1797 9.4219-9.6445 12.113 0.89453-2.4688 2.4648-5.6094 5.832-9.6445 10.766-17.949 16.152-41.953 16.152-71.113 0-13.012-0.89844-26.918-3.1406-41.5 0-0.22656-7.4062-39.93-7.4062-39.93-4.4844-23.777-6.5039-34.547-6.5039-41.277 0-1.3438 0-2.6914 0.22656-3.8125l-5.8359-1.5703c-4.2617 11.215-17.719 54.734-20.863 143.34zm-4.7109 89.059c5.3867-14.809 9.6484-48.008 10.992-88.836 2.2461-64.383 9.8711-103.86 15.48-125.18 0.89844 6.9531 2.4648 15.926 5.1602 29.387l7.4023 39.707c2.0195 14.582 3.1406 28.266 3.1406 40.828 0 27.816-5.1602 50.699-15.031 67.297-6.7305 7.8516-8.3008 14.133-8.3008 17.949 0 2.4648 0.67578 4.0352 0.89844 4.2617l1.3477 3.3633 2.9141-1.793c0.44922-0.22656 7.4023-4.7109 17.051-19.293l3.3633-4.9336c13.012-19.965 47.559-72.684 67.523-90.184 19.965-17.945 37.238-45.984 49.574-76.719 0.22656 2.4688 0.44922 5.1602 0.44922 7.625 0 89.285-66.176 143.57-95.562 167.57l-3.3633 2.6914c-21.762 17.945-57.203 41.051-72.906 51.148 3.8125-9.6484 9.8711-24.902 9.8711-24.902"/>
  <path d="m1268.8 830.64s17.723-29.164 33.875-48.23c16.152-18.84 87.711-103.86 46.438-242.71 0.67188 32.527-3.1406 51.148-6.5078 62.812-3.3633 11.441-37.688 90.402-40.828 111.49-3.3633 21.312-8.5234 61.016-17.047 65.727-2.918-1.793 0.67188-8.9727 1.5703-15.254 1.1211-6.5039 10.32-61.242-22.883-119.12-30.059-50.922-35.668-56.082-40.152-73.805-0.67578 33.875 12.113 100.72 21.086 128.54 9.4219 28.039 34.098 92.648 24.453 130.56"/>
  <path d="m1346 539.68v8.3008c0 21.312-2.0195 38.809-6.2812 53.613l-11.215 28.941c-11.664 28.938-27.594 68.641-29.836 83l-0.89844 6.0586c-1.5703 10.992-4.4883 29.609-8.0742 42.621 0.67187-4.4883 1.793-12.113 1.793-23.332 0-23.328-4.4844-58.547-25.574-95.113l-20.863-34.773c-12.113-19.965-15.703-26.246-18.844-38.133l-6.2812 0.67187c-0.44922 34.996 12.789 102.74 21.535 129.66l3.5898 10.32c10.094 29.836 29.164 85.469 20.863 118.45l5.6094 2.2422c0.22266-0.22266 17.719-29.16 33.648-47.781 57.203-67.297 73.805-154.56 46.883-245.64zm-59.672 242.71c8.5273-4.7109 13.012-30.957 17.5-61.914l0.89844-5.832c2.2422-13.906 18.617-54.734 29.387-81.879l11.441-29.387c2.2422-7.8516 4.4844-21.539 5.6055-39.93 4.4883 19.965 7.1797 39.707 7.1797 58.996 0 58.328-19.516 112.84-57.879 157.93-10.094 11.891-20.41 27.145-27.141 37.465 0.22266-2.4688 0.89453-4.4844 0.89453-6.9531 0-33.203-14.133-74.703-23.328-101.39l-3.5898-10.32c-7.1797-22.434-17.051-72.234-19.742-108.35 2.918 5.6094 6.5078 11.891 12.34 21.312l20.863 34.773c20.188 35.441 24.449 69.316 24.449 91.746 0 12.562-1.3438 21.762-1.793 25.129-0.22266 0-1.5703 5.832-1.5703 5.832-0.44922 2.6914-1.3477 5.1562-1.3477 7.4023 0 2.2422 0.67578 4.2617 2.6953 5.3828l1.5703 0.89844 1.5703-0.89844"/>
  <path d="m1295.5 659.93s10.094-45.09 22.656-81.207c12.562-36.117 36.34-119.79-32.301-205.03 14.805 34.098 9.8672 56.754 10.094 60.566 0 3.8164-6.7305 80.762-6.2812 99.828 0.22266 24.449 5.832 66.398 5.832 66.398s-1.5703 5.1602-4.9336 0.22656c-2.2461-3.3672-7.8516-57.652-41.277-89.281-31.184-29.387-56.305-51.598-63.262-64.16 0.44922 22.434 14.133 54.512 24.902 72.234 10.766 17.5 54.957 75.375 65.277 94.891 10.094 19.516 19.293 42.848 19.293 45.539"/>
  <path d="m1282.9 375.04c8.9727 19.965 10.543 35.891 10.543 46.211 0 4.4844-0.22656 7.8516-0.44922 10.094l-1.793 22.434-4.7109 80.309s3.5859 40.828 5.1562 58.551c-3.8125-17.273-12.785-57.43-40.375-83.227 0-0.22266-17.051-16.375-17.051-16.375-22.434-21.09-40.152-37.688-45.539-47.336l-5.832 1.5703c0.44922 21.984 13.461 54.289 25.348 73.805l25.574 36.789c15.93 21.762 33.652 46.66 39.484 57.879 10.543 19.965 18.844 41.949 19.066 44.414l6.2812 0.44922c0-0.44922 10.098-45.312 22.434-80.98 27.145-77.168 16.152-147.16-32.977-207.95zm10.992 230.83c3.1406-0.44922 4.2617-3.8164 4.4844-4.4883 0-2.4688-5.832-67.297-5.832-67.297l4.9375-79.637 1.3438-20.191c0.22656-3.3633 0.67187-7.625 0.67187-12.785 0-7.4023-1.5703-17.723-4.4844-28.938 22.434 33.199 34.32 69.09 34.32 107.68 0 24.902-4.7109 50.699-14.133 77.391-8.9727 25.797-16.598 55.859-20.188 71.113-3.8125-9.8711-9.8711-24.004-16.152-35.891-6.2812-11.664-24.227-36.566-39.93-58.551l-25.348-36.562c-9.8711-15.93-19.965-40.379-23.332-60.344 8.3008 10.094 21.086 22.656 39.707 40.379l17.273 15.926c26.246 24.902 34.77 63.934 38.359 80.535l2.2422 8.0742c1.7969 2.6914 3.8125 3.8125 6.0586 3.5898"/>
  <path d="m1272.8 508.05s-5.1602-12.113-1.793-61.914c3.3633-50.027 3.8125-118-74.254-161.96 19.965 32.078 23.105 37.688 29.613 63.934 6.5039 26.02 14.133 67.973 25.125 91.523 4.4844 11.668 7.625 20.641 5.6055 21.762-2.0195 1.3477-2.9141-0.89453-4.4844-4.7109-1.5703-4.0352-18.395-39.258-50.473-61.016-32.527-21.984-61.691-43.969-72.906-65.953 5.3828 41.277 21.535 55.633 37.688 76.047 17.496 22.207 79.859 67.973 90.629 83.004 10.992 15.254 15.254 19.293 15.254 19.293"/>
  <path d="m1194.1 285.98c20.188 32.305 23.105 37.465 29.387 62.812l4.7109 20.637c5.6094 24.902 11.891 53.168 20.414 71.562 0.44922 1.1211 1.3438 3.3633 2.0195 5.1602-7.1797-13.012-22.211-36.566-46.887-53.168-30.73-20.637-60.793-43.07-71.785-64.605l-5.832 1.7969c4.9375 36.562 17.945 52.492 32.078 69.539l6.2812 7.8516c9.4219 12.113 30.957 30.059 51.371 47.559 17.723 14.805 34.324 28.715 39.258 35.668l15.703 19.516 4.9375-3.5859c-0.22656 0-4.9375-12.562-1.5703-60.348 2.6914-41.277 7.8516-117.77-75.824-164.88zm64.605 177.89c1.3438-0.67578 2.0156-2.0195 2.0156-4.0391 0-3.5898-2.0156-9.8711-6.2773-21.312-8.3008-17.723-14.809-47.109-20.191-70.441l-4.9336-20.859c-5.3867-21.984-9.1992-30.512-21.312-50.699 49.352 34.098 61.016 78.516 61.016 121.81 0 9.4219-0.44922 18.621-0.89844 27.59-0.89453 12.562-1.1211 22.66-1.1211 30.734 0 8.9727 0.22656 15.031 0.89844 19.965-3.8125-4.7109-7.6289-9.4219-7.6289-9.4219-5.3828-7.4023-21.535-21.086-40.379-36.789-19.512-16.375-41.5-34.996-50.695-46.438l-6.2812-8.0742c-11.664-14.355-21.762-27.59-27.59-51.82 13.684 17.273 35.891 34.547 65.055 54.062 33.199 22.66 49.352 59.449 49.574 59.672 1.3477 3.5898 2.2422 6.0586 4.7109 6.7305l1.3477 0.67188 2.6914-1.3438"/>
  <path d="m1212 377.5s-11.215-52.27-32.301-83.004c-20.641-30.734-63.262-57.203-107.68-69.766 15.699 12.562 25.348 24.004 30.957 33.199 5.6055 9.1992 40.379 60.57 56.082 76.723 15.926 16.375 41.5 30.508 52.941 42.848"/>
 </g>
 <g clip-path="url(#8ac138f276)">
  <path d="m1070 227.2c17.047 13.234 25.797 24.898 30.281 32.301 5.3867 8.9727 40.379 60.793 56.754 77.395l30.062 24.449 22.879 18.172 5.1602-2.6914c-0.44922-2.2422-11.664-53.164-32.75-84.125-20.863-30.508-62.812-57.652-109.47-70.887zm120.69 129.21-29.387-24c-15.703-15.93-50.473-67.75-55.637-76.047-4.7109-7.6289-11.887-15.48-20.188-23.555 39.48 14.133 74.027 37.238 91.75 63.484 15.254 22.434 25.574 56.98 29.613 73.129-6.7305-5.6055-16.152-13.012-16.152-13.012"/>
 </g>
 <g>
  <path d="m1000.6 531.15c0 5.1953 3.2461 9.0938 7.1445 9.0938h4.543c3.8984 0 7.1445-3.8984 7.1445-9.0938v-155.3l-18.832 7.7969z"/>
  <path d="m570.78 412.24v73.426c0 53.93 79.871 77.32 178.57 77.32 98.699 0 178.57-24.039 178.57-77.32v-13.648-60.43l-178.57 61.73z"/>
  <path d="m1050 344.66-300.65 110.46-299.35-109.16 295.45-92.918 218.18 65.625h-214.29v15.598h266.23z"/>
  <path d="m1027.9 530.5c0 0.59766-0.027344 1.1914-0.085937 1.7852-0.058594 0.59375-0.14844 1.1797-0.26172 1.7656-0.11719 0.58594-0.26172 1.1602-0.43359 1.7305-0.17578 0.57031-0.375 1.1328-0.60156 1.6836-0.23047 0.55078-0.48437 1.0859-0.76562 1.6133-0.27734 0.52344-0.58594 1.0352-0.91406 1.5312-0.33203 0.49609-0.6875 0.97266-1.0664 1.4336-0.375 0.46094-0.77344 0.90234-1.1953 1.3242s-0.86328 0.82031-1.3242 1.1992c-0.46094 0.375-0.9375 0.73047-1.4336 1.0625-0.49219 0.33203-1.0039 0.63672-1.5273 0.91797-0.52734 0.28125-1.0625 0.53516-1.6133 0.76172-0.55078 0.23047-1.1133 0.42969-1.6797 0.60156-0.57031 0.17578-1.1484 0.32031-1.7305 0.43359-0.58594 0.11719-1.1758 0.20312-1.7656 0.26172-0.59375 0.058594-1.1875 0.089844-1.7852 0.089844-0.59375 0-1.1875-0.03125-1.7812-0.089844-0.58984-0.058593-1.1797-0.14453-1.7656-0.26172-0.58203-0.11328-1.1602-0.25781-1.7305-0.43359-0.57031-0.17188-1.1289-0.37109-1.6797-0.60156-0.55078-0.22656-1.0859-0.48047-1.6133-0.76172-0.52344-0.28125-1.0352-0.58594-1.5273-0.91797-0.49609-0.33203-0.97656-0.6875-1.4336-1.0625-0.46094-0.37891-0.90234-0.77734-1.3242-1.1992-0.42187-0.42188-0.82031-0.86328-1.1992-1.3242-0.375-0.46094-0.73047-0.9375-1.0625-1.4336-0.32812-0.49609-0.63672-1.0078-0.91406-1.5312-0.28125-0.52734-0.53516-1.0625-0.76562-1.6133-0.22656-0.55078-0.42578-1.1133-0.60156-1.6836-0.17188-0.57031-0.31641-1.1445-0.43359-1.7305-0.11328-0.58594-0.20312-1.1719-0.26172-1.7656-0.058593-0.59375-0.085937-1.1875-0.085937-1.7852 0-0.59375 0.027344-1.1875 0.085937-1.7812 0.058594-0.59375 0.14844-1.1836 0.26172-1.7656 0.11719-0.58594 0.26172-1.1641 0.43359-1.7344 0.17578-0.57031 0.375-1.1289 0.60156-1.6797 0.23047-0.55078 0.48438-1.0898 0.76562-1.6133 0.27734-0.52734 0.58594-1.0391 0.91406-1.5312 0.33203-0.49609 0.6875-0.97656 1.0625-1.4375 0.37891-0.45703 0.77734-0.89844 1.1992-1.3203 0.42188-0.42187 0.86328-0.82031 1.3242-1.1992 0.45703-0.37891 0.9375-0.73438 1.4336-1.0625 0.49219-0.33203 1.0039-0.63672 1.5273-0.91797 0.52734-0.28125 1.0625-0.53516 1.6133-0.76562 0.55078-0.22656 1.1094-0.42969 1.6797-0.60156 0.57031-0.17188 1.1484-0.31641 1.7305-0.43359 0.58594-0.11719 1.1758-0.20312 1.7656-0.26172 0.59375-0.058594 1.1875-0.085937 1.7812-0.085937 0.59766 0 1.1914 0.027343 1.7852 0.085937 0.58984 0.058594 1.1797 0.14453 1.7656 0.26172 0.58203 0.11719 1.1602 0.26172 1.7305 0.43359 0.56641 0.17187 1.1289 0.375 1.6797 0.60156 0.55078 0.23047 1.0859 0.48438 1.6133 0.76562 0.52344 0.28125 1.0352 0.58594 1.5273 0.91797 0.49609 0.32812 0.97266 0.68359 1.4336 1.0625 0.46094 0.37891 0.90234 0.77734 1.3242 1.1992 0.42188 0.42188 0.82031 0.86328 1.1953 1.3203 0.37891 0.46094 0.73438 0.94141 1.0664 1.4375 0.32812 0.49219 0.63672 1.0039 0.91406 1.5312 0.28125 0.52344 0.53516 1.0625 0.76562 1.6133 0.22656 0.55078 0.42578 1.1094 0.60156 1.6797 0.17188 0.57031 0.31641 1.1484 0.43359 1.7344 0.11328 0.58203 0.20312 1.1719 0.26172 1.7656 0.058593 0.59375 0.085937 1.1875 0.085937 1.7812z"/>
 </g>
 <g clip-path="url(#bf6959d368)">
  <path d="m1024 644.21h-28.574c-5.8438 0-11.039-3.8984-11.039-8.4453l25.324-105.91 25.328 105.91c0 5.1992-4.5469 8.4453-11.039 8.4453z"/>
 </g>
 <path d="m965.84 665.09c-27.258 6.5742-55.59 9.9219-83.203 15.062-27.734 5.1406-55.23 11.117-82.727 17.691-3.3477 0.83594-4.7812-4.1836-1.4336-5.0195 27.852-7.1719 55.707-13.75 83.922-19.605 27.016-5.5 54.988-11.598 82.605-13.988 3.3477-0.35938 4.0625 5.0195 0.83594 5.8594zm-323.97 191.15c-36.582-5.7383-73.164-11.836-109.98-16.141-1.9141-0.23828-2.3945 3.1094-0.48047 3.4688 36.582 7.6523 73.641 13.391 110.58 19.484 36.938 6.0977 73.879 12.555 110.94 17.934 4.1836 0.59766 6.0977-5.7383 1.6719-6.5742-37.418-6.6953-75.191-12.312-112.73-18.172zm-77.465 100.9c-27.379-8.4883-54.633-17.098-81.891-25.824-3.5859-1.1953-5.0195 4.543-1.4336 5.6211 26.898 8.6055 53.797 17.094 80.691 25.461 12.914 3.9453 25.824 7.8906 38.855 11.715 15.777 4.543 31.918 10.879 48.055 13.391 1.9141 0.35938 3.4688-2.3906 1.3164-3.3477-14.227-6.3359-30.246-9.8047-45.188-14.465-13.391-4.1836-26.898-8.3672-40.406-12.551zm-81.77-49.254c-3.2266-0.95703-4.543 4.0625-1.3164 5.1406 54.754 17.215 109.62 33.949 164.5 50.566 2.5117 0.71875 3.4648-3.1094 1.0742-3.9453-54.75-17.574-109.38-34.906-164.25-51.762zm269.34-59.773c-76.391-13.031-152.9-25.344-229.29-38.254-2.8672-0.48047-2.75 3.1055 0.12109 3.7031 0 0 151.7 27.379 227.73 41.363 5.9766 1.0781 7.4102-5.7383 1.4336-6.8125zm213.63-214.95c-57.742 8.7305-115.12 19.367-172.39 30.727-2.3906 0.47656-1.3125 4.0625 1.0781 3.5859 57.5-10.281 115.12-19.844 172.86-29.051 3.4648-0.47656 1.9102-5.7383-1.5547-5.2617zm69.336 152.78c-0.35938 0.59766-0.83594 0.83594-1.4336 0.95703-0.59766 0.35938-1.1953 0.59766-1.9141 0.59766-6.457 0.83594-12.91 1.6719-19.246 2.5117 10.043 21.277 13.508 51.402-1.9141 70.77-0.23828 0.23828-0.47656 0.47656-0.71484 0.71875-0.48047 0.47656-1.1992 0.83594-2.0352 0.95313-7.0508 1.5547-14.105 3.1094-21.039 4.6641 11.953 21.875 11.117 47.816-0.23828 69.812-0.35938 0.83984-1.0781 1.1992-1.6758 1.4375-0.47656 0.23828-0.95312 0.47656-1.5508 0.59766-109.15 27.016-217.81 56.066-327.44 81.289-1.1953 0.59766-2.6289 0.71875-4.1836 0.23828-65.871-18.887-130.54-41.48-195.94-61.445-4.0625-1.1953-3.5859-6.5742-0.59766-7.8906 16.02-21.758 15.305-51.285-2.5078-71.965-2.5117-2.9883-0.95703-6.6953 1.5547-8.25 0.35547-0.35938 0.83594-0.59766 1.3125-0.71484 16.141-3.9453 31.918-9.4453 48.059-13.152 5.0195-1.0742 7.1719 6.2188 2.1523 7.6523-12.555 3.707-25.344 6.3359-38.137 9.0859 30.008 8.8438 60.012 17.57 89.898 26.656 16.617 5.0234 33.113 9.9219 49.73 14.945 8.1289 2.5078 16.379 5.0195 24.508 7.5312 5.7383 1.793 11.836 2.9883 17.336 5.5 28.93-5.8594 57.859-11.836 86.906-17.098-29.527-6.3359-59.172-12.551-88.699-18.648-22.238-4.6602-44.473-9.4453-66.707-14.586-21.996-5.1367-43.516-12.191-65.395-16.973-0.11719 0-0.23828-0.12109-0.35547-0.12109-1.5547-0.23828-2.9883-1.4336-3.707-3.4648-2.5117-8.0117-2.2734-17.098-2.8711-25.465l-2.0312-27.855c-0.35938-4.1836 6.8164-5.2578 7.4141-1.0742 1.4336 9.2031 2.8672 18.41 4.3008 27.496 1.3164 8.2461 3.707 17.094 3.1094 25.461 0 0.24219-0.12109 0.48047-0.12109 0.71875 21.16 4.4219 43.039 6.8125 64.316 10.758 21.758 4.0664 43.637 8.1289 65.391 12.195 44.594 8.4883 89.301 16.02 134.01 23.551 0.35938 0.11719 0.83594 0.11719 1.1953 0.23828 9.6836-19.367 9.0859-41.961-0.83594-61.207-0.71875-0.83594-1.4336-1.6719-2.1523-2.3906-0.11719-0.12109-0.11719-0.12109-0.23828-0.23828-9.8047-0.59766-19.844-2.75-29.527-4.0664-6.9336-0.95703-13.988-2.0312-20.922-3.1094h-0.47656c-89.062-14.703-178-30.004-267.19-44.469-5.1406-0.83594-2.9883-8.3672 2.0352-7.6523 0.95703 0.12109 1.9102 0.23828 2.8672 0.35938-1.1953-20.324-1.9102-40.527-2.6289-60.848-1.793-0.23828-3.4688-0.59766-5.2617-0.83594-0.71484-0.12109-1.3125-0.35938-1.6719-0.83984-2.5117-1.4336-2.9883-6.0938 0.71875-7.1719 18.648-5.5 37.414-11.238 56.543-14.703-6.9336-9.4453-10.043-22.715-10.641-33.594-0.95313-14.703 2.75-29.047 10.164-41.602 0.11719-1.0742 0.83594-2.0312 2.2695-2.3906 31.68-7.5312 63.598-16.496 95.758-21.996 19.723-4.6641 43.395-9.0859 56.305-11.953 13.629-2.9883 25.703-4.7852 39.688-5.1406 30.129-0.71875 60.73 2.3906 90.738 3.7031 63.957 2.9883 123.49 7.0547 192.11 14.945 2.75 0.35938 3.5859 2.8672 3.1094 4.9023 0.23828 2.2695-1.0781 4.543-3.8281 4.4219-1.6719 0.23828-3.3477 0.59766-5.0195 0.83594-2.75 13.031-4.1836 26.18-3.4688 39.449 0.59766 11.836 3.3477 23.074 5.9805 34.551 1.9102-0.23828 3.8242-0.59766 5.7344-0.95703 4.9023-0.71875 7.293 6.6953 2.1523 7.6523-17.812 3.2266-35.742 6.5742-53.555 10.039 29.887 1.5547 59.176 4.7812 88.703 10.762 0.71484 0.11719 1.1953 0.35547 1.6719 0.71484 1.6758 0.59766 2.6328 2.2734 2.75 3.9453 12.434 22.477 11.238 49.492-2.6289 71.25zm-53.559-176.33c-69.574 11.355-139.15 22.711-208.61 35.023 0 0.12109-0.12109 0.35937-0.12109 0.48047-6.0938 13.867-8.1289 29.051-6.0938 44.113 0.95312 6.6914 2.7461 13.148 5.0195 19.484 1.793 4.7812 4.4219 9.0859 6.5742 13.746 68.738-14.105 137.24-28.09 206.57-38.969-8.9648-23.312-8.2461-49.73-3.3477-73.879zm-441.48 11.594c75.195 5.6172 150.39 11.117 225.58 17.934 0.23828-0.12109 0.48047-0.24219 0.83594-0.24219 64.438-13.746 129.59-24.387 194.74-34.547 1.6719-0.23828 3.2266-0.35938 4.9023-0.59766-53.078-5.1406-106.16-9.0859-159.48-11.715-30.602-1.5547-61.207-3.707-91.93-5.1406-4.543-0.23828-8.9648-0.23828-13.27 0-19.008 3.9453-38.016 8.0078-57.023 11.836-13.629 3.4648-28.57 7.1719-38.492 9.2031-21.996 4.9023-43.996 8.8477-65.871 13.27zm225.34 26.66c-31.203-2.75-62.402-5.5-93.605-8.3711-4.543 25.465-3.2266 49.852 6.0977 74 29.051 2.9883 58.098 5.7383 87.27 8.0117-5.2617-10.043-7.1719-22.953-7.6523-33.117-0.59766-13.984 2.1523-27.852 7.8906-40.523zm-102.45-9.0859c-21.52-1.9141-43.039-3.9453-64.555-5.9766-6.3359 24.387-4.1875 49.969 6.6914 72.801 21.641 2.5117 43.277 5.0234 64.914 7.293-10.043-23.07-13.387-49.73-7.0508-74.117zm-136.52 57.141c22.715 2.8711 45.43 5.6211 68.262 8.3711-10.16-23.074-12.312-47.82-5.8594-72.445-22.711-2.1523-45.426-4.4219-68.141-6.6953-0.47656 0.12109-1.0742 0.12109-1.4336 0-5.3789 11.355-7.6523 23.551-6.3359 36.102 1.4336 13.512 7.8906 23.191 13.508 34.668zm207.29 63.48c-86.789-12.551-173.82-24.387-260.37-38.492 0.83594 20.203 1.793 40.406 2.1523 60.609 85.477 11.953 170.71 24.387 255.95 37.895 0.11719-0.47656 0.23828-0.83594 0.47656-1.3164 8.6055-18.527 9.5625-39.566 1.793-58.695zm5.9766-10.641c87.867-14.465 176.21-25.105 264.68-35.027-26.66-4.3008-53.438-8.6055-80.457-10.281h-0.23828c-48.535 9.5664-96.949 19.605-145.25 29.648-0.23828 0-0.48047 0-0.71875 0.12109-0.59766 0.23828-1.4336 0.35938-2.2695 0.23828-83.805-6.9336-167.01-18.41-250.21-30.363-0.47656 0.11719-0.95703 0-1.5547-0.12109-0.23828 0.12109-0.35938 0.12109-0.59766 0.23828-14.703 3.8281-29.406 7.293-44.113 11 86.195 10.52 172.27 21.398 258.22 33.59 1.0781 0.12109 1.7969 0.48047 2.5117 0.95703zm194.14 42.082c12.191-1.6758 24.266-3.2305 36.461-4.7812 5.0195-19.488 4.0625-39.691-4.7812-57.621-12.195 1.4336-24.391 2.8672-36.582 4.3008 8.4883 17.812 11.715 39.332 4.9023 58.102zm-61.328 8.6055c17.574-2.5078 35.145-5.0195 52.719-7.4102 4.4219-19.727 5.7383-38.613-2.6289-57.742-0.12109-0.23828-0.23828-0.59766-0.23828-0.83594-17.457 2.0312-34.91 4.1836-52.363 6.3359 7.7695 18.648 9.9219 40.645 2.5117 59.652zm-52.004 7.8906c14.586-2.2695 29.289-4.543 43.992-6.6953 5.9805-20.562 7.5312-40.047-0.59766-60.129-15.418 1.793-30.84 3.7031-46.145 5.4961 9.3242 19.25 10.762 41.484 2.75 61.328zm-7.0508 1.1953c5.0195-20.562 6.4531-41.602-2.5117-61.566v-0.11719c-23.074 2.7461-46.266 5.3789-69.457 7.8867 9.4453 21.16 9.9219 44.711 0.48047 65.992 23.789-4.3047 47.578-8.3711 71.488-12.195zm48.773 2.5117c-32.875 4.7812-65.75 9.5625-98.746 14.227 7.0547 0.59766 14.227 1.0742 20.922 2.5078 25.941-5.7383 51.883-11.355 77.824-16.734zm-214.94 129.47c-0.48047-0.48047-0.83984-0.95703-1.0781-1.5547-5.9766-1.0781-11.594-3.4688-17.332-5.2617-8.1328-2.6289-16.379-5.1406-24.508-7.6484-16.5-5.1406-32.996-10.281-49.613-15.422-29.289-9.0859-58.457-18.41-87.508-27.977 12.555 22.117 11.117 48.895-4.6602 69.578 63.836 17.453 126.96 37.059 190.55 55.348 9.9219-22.113 12.91-48.535-5.8555-67.062zm126 10.996c-1.4336-12.434-5.3789-23.91-11.715-34.43-33.953 8.25-68.5 13.988-102.69 20.684 17.691 20.082 14.227 49.012 4.3047 72.562 36.102-9.6836 72.203-19.246 108.31-28.691 0.11719-3.7031 1.3125-7.4102 1.793-11.355 0.71484-6.2148 0.59766-12.551 0-18.77zm117.27-60.73c-11.117 2.9922-22.234 5.9805-33.352 9.0859-11.121 3.1094-22.238 6.2188-33.355 9.3242-10.879 3.1094-21.875 6.2188-32.754 9.5664-3.707 1.0742-8.25 1.9102-11.957 1.0742-2.9883-0.71484-5.0195-1.1953-8.8438-2.1523 5.6172 9.4453 10.039 20.922 11.715 31.801 1.1953 7.6523 2.3906 20.203-0.23828 29.527 39.211-10.281 78.422-20.441 117.63-30.484 3.2266-20.082 1.0742-39.688-8.8477-57.742zm93.605 9.8047c-0.23828-9.6836-3.5859-23.551-11.598-30.125-25.105 5.8555-50.207 11.953-75.195 18.527 9.8047 17.336 14.109 37.898 10.402 57.383 23.551-5.9766 47.102-11.953 70.77-17.812 4.0664-8.9648 5.8594-18.289 5.6211-27.973zm25.461-74.836c0-11.355-2.6289-22.473-7.7695-32.637-0.23828-0.35938-0.35938-0.83594-0.47656-1.1953-34.191 7.5312-69.098 12.793-103.53 19.727-35.387 7.1719-70.652 14.703-105.92 22.473v0.59766c10.52 16.738 13.391 36.703 8.8477 55.352-0.83984 6.3359-2.5117 12.434-4.7812 18.527 69.094-20.441 138.79-38.254 208.84-55.109 2.1523-9.2031 4.7812-18.051 4.7812-27.734zm19.605-104.72c-18.766 2.0312-37.656 4.1836-56.426 6.457 9.0859 19.008 9.9219 37.656 5.1406 57.5 17.812-2.2695 35.746-4.543 53.559-6.6953h0.11719c7.4141-17.332 8.4883-41.121-2.3906-57.262z"/>
</svg>
