<?xml version="1.0" encoding="UTF-8"?>
<svg width="2e3" height="2e3" version="1.0" viewBox="0 0 1500 1500" xmlns="http://www.w3.org/2000/svg" zoomAndPan="magnify">
 <defs>
  <clipPath id="1e3f4df2c2">
   <path d="m595 1199h535v150.94h-535z"/>
  </clipPath>
  <clipPath id="df12a775bf">
   <path d="m1070 293.94h146v158.06h-146z"/>
  </clipPath>
  <clipPath id="929e7d5664">
   <path d="m629 150h238v366.75h-238z"/>
  </clipPath>
  <clipPath id="8bf1704baf">
   <path d="m473.32 563.58h553.5v386.42h-553.5z"/>
  </clipPath>
  <clipPath id="18203f63d4">
   <path d="m632 1134h240v21.328h-240z"/>
  </clipPath>
 </defs>
 <g>
  <path d="m913.68 1322s-131.46-152.54-285.57-109.92c-70.887 28.938-112.61 49.352-135.5 53.84-22.656 4.0352-76.047 8.2969-108.57-13.688 59.672 54.512 115.08 57.879 155.91 50.25 40.828-7.8516 81.652-41.051 92.199-49.578 10.766-8.2969 49.574-54.508 124.95-24.676 54.512 25.574 123.83 100.72 135.49 114.18l21.09-20.414"/>
  <path d="m627.21 1209.2c-0.22266 0-61.016 25.574-61.016 25.574-35.672 15.258-59.223 25.125-74.254 28.043-6.9531 1.3438-69.316 11.887-106.11-13.234l-3.8164 4.707c0 0.22656 0.22656 0.44922 0.22656 0.44922 48.676 44.191 101.84 61.242 158.38 50.699 27.145-5.1602 58.547-21.758 93.094-49.801 0.44922-0.22656 4.4883-3.8164 4.4883-3.8164 14.133-12.785 51.594-46.883 117.77-20.637 52.719 24.676 120.24 96.688 134.15 113.29l2.2461 2.4688 25.574-24.676-2.0195-2.2422c-1.3477-1.5703-134.37-153.44-288.71-110.82zm-133.93 59.672c15.48-2.9141 39.258-13.012 75.148-28.488l60.793-25.352c143.57-39.707 268.29 93.77 280.19 106.78-3.1406 3.1406-13.461 13.012-16.824 16.152-17.273-19.738-82.105-88.16-134.37-112.39-69.766-27.816-109.25 8.0742-124.28 21.758l-3.5898 3.3633c-34.098 27.371-64.605 43.746-91.078 48.68-48.23 9.1992-93.992-3.8125-136.61-36.34 37.91 13.234 84.348 6.9531 90.629 5.832"/>
  <path d="m598.72 1205.1s-84.797 18.168-116.65 27.367c-31.852 9.4219-139.53 11.219-202.34-84.348 49.801 40.828 110.82 40.828 135.27 39.93 24.676-0.67188 88.16 8.75 119.34 14.582-0.67578-5.832-32.078-12.789-41.504-17.723-9.4219-4.9336-35.891-12.785-67.969-82.777-10.77-21.312-12.562-33.203-19.965-39.707 13.457 2.0195 39.707 30.285 47.781 38.809 8.0742 8.5234 56.977 64.828 84.797 79.188 27.816 14.582 41.5 21.535 61.242 24.676"/>
  <path d="m402.89 1064.9c4.0391 3.3633 6.2812 8.75 9.6484 17.051l9.6445 21.535c29.836 65.277 54.734 77.168 66.625 83l2.4688 1.1211 17.273 6.2812c1.793 0.67188 4.2617 1.5703 6.5039 2.2422-32.078-5.1562-78.961-11.664-100.05-10.992-54.512 1.5703-99.375-11.664-133.25-39.48l-4.7109 4.2617c60.566 91.75 166.68 97.133 205.94 85.469 31.184-9.1953 115.53-26.918 116.43-27.145l-0.22266-6.0547c-19.516-3.3672-33.203-10.32-60.344-24.453-23.555-12.34-63.484-56.305-78.516-72.906l-5.3828-5.832-2.0195-2.0195c-16.824-17.723-35.668-35.891-47.559-37.461l-2.4688 5.3828zm107.45 123.16-16.148-5.832-2.6953-1.3477c-10.543-4.9336-34.77-16.824-63.707-80.082 0-0.22656-9.6484-21.312-9.6484-21.312-1.793-4.7109-4.0352-6.957-6.0547-10.32 12.336 7.1797 29.164 24.453 36.34 32.078l2.0195 2.0195 5.1602 5.832c15.254 16.602 55.859 61.465 80.535 74.254 21.086 10.992 34.32 17.723 48.453 21.758-25.352 5.6094-79.414 17.273-103.42 24.453-35.668 10.543-128.09 5.832-187.54-68.422 32.75 21.086 73.355 31.629 121.59 30.059 23.555-0.67188 84.793 8.0781 118.45 14.359l4.0352 0.89453-0.44531-4.2617c0-0.89844-1.7969-1.5703-2.4688-2.4688l-0.22656-0.22266c-2.9141-3.5898-9.6445-6.7305-24.227-11.441"/>
  <path d="m442.14 1171s-42.621-11.664-74.254-16.148c-31.855-4.2656-142.9-32.305-186.19-162.64 43.742 50.922 53.613 54.062 79.188 66.848 25.797 12.789 103.41 56.98 130.33 81.207l7.8516 4.4883s2.6914-3.3672-9.1953-13.461c-11.441-10.32-50.699-45.988-56.758-125.85-4.9336-35.219-12.785-67.297-15.254-71.559 17.723 10.094 38.586 50.922 42.848 62.363 4.2617 11.664 32.977 92.199 36.789 101.84 3.5898 9.4219 26.922 60.566 44.641 72.906"/>
  <path d="m315.16 935.27c2.0156 3.5898 9.8672 34.77 14.805 70.664 2.9141 37.465 15.254 90.18 57.875 127.64 0.22656 0 0.22656 0 0.22656 0.22266-29.613-24.449-100.05-64.605-125.85-77.391l-4.0391-2.2461c-22.207-10.992-33.426-16.375-74.027-63.934l-5.3828 2.918c47.109 142 174.3 163.09 188.66 164.88 31.18 4.0352 73.352 16.148 73.801 16.148l2.6953-5.3828c-16.379-11.664-39.258-60.344-43.746-71.785l-36.566-101.62c-4.0352-10.547-25.125-53.168-44.191-64.16l-4.2617 4.0391zm86.363 211.32c0.67578-0.67578 0.89844-1.5703 0.89844-2.6914 0-2.918-2.0195-7.6289-10.543-14.809-40.828-36.34-52.941-87.262-55.633-123.83-3.3672-24.227-8.3008-47.781-12.113-61.465 14.805 14.805 30.059 43.965 33.648 53.613l36.789 101.84c2.4688 6.5078 20.863 46.887 38.137 66.18-14.359-3.5898-41.949-10.547-64.605-13.461-13.012-1.7969-125.4-21.758-175.88-143.35 30.512 33.875 43.074 41.277 63.039 51.148l4.2617 2.0195c26.695 13.461 103.19 56.977 129.66 80.758 0.44922 0.44922 8.5234 4.9375 8.5234 4.9375l2.2461 1.3438 1.5703-2.2422"/>
  <path d="m323.46 1064.7s-53.387-31.184-82.777-54.066c-29.387-23.105-111.94-83.223-103.41-190 12.785 34.547 33.648 65.953 56.305 85.02 22.656 19.293 63.711 79.859 73.578 93.992 9.6484 14.133 16.375 17.945 16.375 17.945s3.1445-6.9531-7.8477-19.066c-8.0781-13.012-22.66-43.52-14.809-110.14 9.8711-61.914 13.461-76.719 11.668-86.367 8.5234 21.758 19.738 68.645 24 142 2.4688 41.5 7.1797 73.578 12.562 87.711 5.6094 13.91 14.359 32.977 14.359 32.977"/>
  <path d="m269.63 802.7c0.22266 1.3438 0.22266 2.9141 0.22266 4.7109 0 6.9531-1.793 17.945-5.6094 41.277l-6.2812 39.258c-1.5703 13.234-2.4648 25.348-2.4648 36.789 0 31.406 5.832 56.754 17.496 75.371 3.8125 4.0391 5.6094 7.1797 6.7305 9.8711-2.6914-2.6914-6.0586-6.2812-10.094-12.113 0 0-3.3672-4.7109-3.3672-4.7109-13.461-19.738-49.801-72.008-70.664-89.73-22.207-18.844-42.848-50.027-55.633-83.898l-5.832 0.89844c-8.3008 104.54 68.418 164.21 101.17 190l3.3633 2.4688c29.164 22.883 82.555 54.289 83 54.512l4.4883-3.8164-14.133-32.977c-5.3828-14.355-10.094-46.66-12.562-86.812-5.1602-88.836-19.738-131.91-24.004-142.9l-5.832 1.7969zm0.67188 46.883c2.4688-14.133 3.8125-23.105 4.7109-30.281 6.0547 21.086 14.582 60.566 18.395 124.95 2.4688 40.602 7.1797 73.578 13.012 88.609 0 0 6.2812 14.582 10.316 24.453-15.926-9.6484-52.043-31.855-74.25-49.129l-3.3672-2.6914c-30.281-23.777-99.379-77.617-99.379-169.59v-3.3633c13.238 30.508 31.184 58.102 51.82 75.598 20.414 17.051 56.309 69.094 69.77 88.609l3.1406 4.7109c10.094 14.359 17.273 18.621 17.496 18.844l3.1406 1.7969 1.1211-3.3672c0.67188-0.89844 3.5898-9.1953-8.3008-22.434-14.805-23.777-19.516-60.121-13.906-107.45l6.2812-39.258"/>
  <path d="m234.63 915.97s-18.395-28.715-34.996-47.559c-16.598-18.395-89.953-101.39-52.043-241.38 0 32.527 4.4883 50.922 7.8516 62.59 3.8125 11.441 40.152 89.508 43.746 110.59 3.5859 21.086 9.6445 60.793 18.168 65.277 3.1406-2.0156-0.44922-8.9727-1.5703-15.477-1.3438-6.2812-11.887-60.566 19.965-119.57 28.941-51.82 34.324-56.754 38.586-74.703 1.3438 33.875-9.6484 100.95-18.395 129.21-8.5273 28.043-31.633 93.32-21.312 131.01"/>
  <path d="m197.39 870.66c16.152 18.172 34.547 46.66 34.547 46.883l5.6094-2.4648c-8.9727-32.754 8.7461-88.836 18.168-119.12l3.1406-10.094c8.3008-26.918 19.965-94.891 18.621-130.33l-6.0586-0.67578c-3.1406 12.34-6.5039 18.621-18.395 39.035l-19.965 35.219c-18.844 34.773-23.105 68.195-23.105 91.527 0 13.684 1.5703 23.105 2.4688 28.039-4.0391-13.684-7.6289-33.648-9.6484-44.418l-0.67188-4.4844c-2.4688-14.805-19.516-54.512-32.078-83.449l-11.441-27.594c-3.3633-10.766-7.8516-29.16-7.8516-61.688l-6.0547-0.89844c-24.902 91.75-6.0586 178.57 52.715 244.52zm4.4883-4.2617c-40.828-45.539-61.691-101.62-61.691-162.41 0-17.047 2.2422-34.32 5.3828-51.82 1.5703 18.172 4.4883 30.285 6.957 38.359l11.887 28.266c11.664 26.918 29.387 67.973 31.633 81.879l0.67188 4.7109c5.6094 31.633 10.77 58.324 19.293 62.812l1.5703 0.67188 1.5703-0.89844c1.793-1.1211 2.4688-3.1406 2.4688-5.1602 0-2.4648-0.67578-5.1602-1.5703-7.8516l-1.3477-5.3828c-0.89844-4.0391-2.6914-14.355-2.6914-29.164 0-22.43 4.2617-54.734 22.656-88.383l19.742-34.996c5.6055-9.8711 9.4219-16.375 12.113-22.207-1.7969 36.34-10.77 86.812-17.5 109.25l-3.1406 10.094c-8.2969 26.246-21.086 66.402-21.086 99.379 0 3.5898 0.89844 6.7305 1.3477 10.094-6.957-10.094-17.723-25.348-28.266-37.238"/>
  <path d="m203.9 745.71s-10.992-44.641-24.453-80.309c-13.461-35.891-39.258-119.12 27.59-205.94-14.133 34.547-8.5234 56.977-8.5234 60.793 0 3.8125 8.3008 80.531 8.5234 99.598 0.22656 24.453-4.2617 66.625-4.2617 66.625s1.5703 5.1602 4.9375 0c2.0195-3.1406 6.5039-57.652 39.258-90.18 30.281-30.281 54.957-53.164 61.688-65.727 0 22.207-12.785 54.961-23.328 72.68-10.32 17.945-53.168 76.723-63.035 96.461-9.6484 19.965-18.398 43.52-18.398 45.988"/>
  <path d="m176.53 666.52c13.238 34.996 24.227 79.637 24.453 80.086l6.0547-0.67578c0.22656-2.4648 8.3008-24.676 18.172-44.641 5.6094-11.664 22.883-37.012 38.359-59.445l24.453-37.016c11.441-19.516 23.551-52.266 23.551-74.25l-5.6055-1.5703c-5.3867 10.094-22.883 27.367-45.316 49.352l-15.926 15.703c-27.145 26.918-35.445 69.09-38.586 84.797 0 0-0.67188 3.5859-0.89453 5.1602 1.1211-5.6094 4.7109-64.16 4.7109-64.16l-6.2812-78.738-2.2461-23.781c-0.44922-2.6914-0.89453-6.9531-0.89453-12.562 0-10.316 1.793-25.348 9.1953-44.191l-5.1602-3.1406c-47.332 61.691-56.754 131.91-28.039 209.07zm5.832-2.2461c-10.543-28.262-15.926-55.633-15.926-81.879 0-36.789 10.992-71.336 31.633-103.86-2.4688 10.32-3.5898 19.516-3.5898 26.246 0 5.832 0.44922 10.32 0.67188 13.238 0.44922 2.2422 2.2422 23.777 2.2422 23.777l6.5078 78.066s-4.2617 66.176-4.2617 66.176c0.44531 2.0195 1.5703 5.3828 4.7109 5.6094 2.2422 0.44922 4.2617-0.89844 5.832-3.5898l2.0195-8.0742c3.1406-15.258 10.992-55.859 36.789-81.434l16.152-15.926c18.395-18.172 30.957-31.184 39.031-41.727-2.918 21.09-13.234 46.887-21.535 61.02l-24.227 36.562c-15.48 22.434-32.977 48.008-38.809 59.898-5.8359 11.887-11.668 26.246-15.258 36.34-4.2617-15.254-12.336-45.09-21.98-70.441"/>
  <path d="m223.19 593.62s4.9375-12.34 0.44922-62.141c-4.7109-49.801-6.7305-117.77 70.441-163.54-19.293 32.305-22.434 37.914-28.266 64.383-5.832 26.246-12.34 68.422-22.883 92.199-4.2617 11.668-6.9531 20.863-4.9336 21.984 1.793 1.1211 2.6914-0.89844 4.0352-4.9336 1.7969-4.0391 17.5-39.707 49.355-62.363 31.852-22.66 60.566-45.316 71.336-67.75-4.7109 41.504-20.414 56.305-36.117 77.168-17.051 22.66-78.293 69.992-88.609 85.469-10.543 15.254-14.809 19.516-14.809 19.516"/>
  <path d="m220.5 531.7c4.4844 47.781-0.22656 60.566-0.22656 60.566l4.9375 3.5898 15.254-20.191c4.7109-6.9531 21.312-21.535 38.586-37.012 20.188-17.723 41.051-36.117 50.023-48.23l6.2812-8.0742c13.461-17.273 26.246-33.652 30.508-70.441l-5.832-1.793c-10.766 22.207-40.152 45.09-70.438 66.621-23.109 16.379-37.691 39.258-45.09 52.941 0.44531-1.5703 0.67188-2.0156 1.3438-4.0352 8.0742-17.945 13.461-46.211 18.621-70.887l4.2617-21.762c5.832-25.574 8.5234-30.73 28.039-63.484l-4.2617-4.2617c-83.004 49.352-75.824 125.62-72.008 166.45zm8.0742 36.113c0-9.1953-0.44922-21.086-2.0195-36.562-0.89453-9.6484-1.793-21.312-1.793-34.098 0-36.34 10.766-81.43 58.324-116.43-11.887 20.188-15.477 28.938-20.188 50.922l-4.7109 21.758c-4.7109 24.453-10.32 52.27-18.172 69.992-4.2617 11.441-5.832 17.723-5.832 21.312 0 2.4648 0.89844 3.5898 2.2461 4.4844l1.1211 0.67578 2.6914-0.22656c2.4688-0.89844 3.5898-3.5898 4.7109-7.1797 1.5703-3.5859 17.496-38.809 48.23-60.789 25.348-17.949 49.352-37.016 63.707-55.859-5.1602 24.453-15.031 38.137-26.469 52.941l-6.2812 7.8516c-8.75 11.664-30.062 30.73-49.129 47.559-18.395 16.375-34.547 30.508-39.707 38.133 0 0-3.5898 4.9375-7.1797 9.6484 0.22656-3.8164 0.44922-8.0781 0.44922-14.133"/>
  <path d="m280.84 461.49s10.094-52.719 30.285-83.898c20.188-31.184 62.141-58.773 106.33-72.461-15.48 13.012-24.902 24.676-30.285 34.098-5.3828 9.1992-38.809 61.465-54.062 78.066-15.703 16.602-40.828 31.633-52.27 44.191"/>
  <path d="m308.45 375.79c-20.188 31.406-30.059 83-30.508 85.02l5.3828 2.6914 22.434-19.07 29.387-25.125c15.93-17.047 49.578-69.539 54.734-78.516 6.2812-10.988 16.152-22.207 29.613-33.422l-2.9141-5.1602c-46.66 14.355-87.938 42.621-108.13 73.578zm5.3828 3.3633c17.051-26.469 51.148-50.473 90.18-65.504-7.8516 8.0781-14.805 16.152-19.516 24.004-5.1562 8.75-38.359 60.793-53.836 77.617 0 0-37.914 32.078-44.867 37.91 3.8125-16.152 13.234-51.148 28.039-74.027"/>
  <path d="m599.61 1326s127.64-155.91 282.65-117.1c71.785 27.145 113.73 46.438 136.84 50.027 22.879 3.8125 76.047 6.7305 108.12-16.375-58.328 56.082-113.73 61.016-154.56 54.289-41.055-6.7305-82.555-38.809-93.32-47.109-10.77-8.3008-51.148-53.168-125.4-21.535-54.289 26.918-121.59 103.64-132.8 117.55l-21.535-19.742"/>
 </g>
 <g clip-path="url(#1e3f4df2c2)">
  <path d="m597.15 1324-1.793 2.2461 26.246 24 2.0195-2.6914c13.684-16.824 79.633-90.629 131.68-116.65 65.277-27.816 103.64 5.3828 118 17.945l4.0391 3.3633c35.668 27.145 67.297 43.297 94.891 47.785 56.527 8.9727 109.47-9.4219 156.8-54.738 0.22266-0.22266 0.22266-0.22266 0.22266-0.44531l-3.8125-4.7109c-36.34 26.02-98.93 17.047-105.88 15.926-15.031-2.4688-38.359-11.664-73.805-25.797l-62.363-24.227c-155.46-39.035-284.89 116.43-286.25 118zm284.45-112.16 61.914 24.227c35.895 14.133 59.449 23.551 75.152 26.02 5.832 0.89844 50.023 6.957 86.812-5.6055-40.824 31.852-85.016 44.863-132.35 37.238-26.246-4.2617-57.203-19.742-91.523-46.211-0.44922-0.22656-4.2617-3.3672-4.2617-3.3672-15.254-13.234-55.637-48.227-124.73-18.617-51.371 25.348-114.86 95.336-131.68 115.75-3.3633-2.9141-13.906-12.785-17.047-15.477 11.441-13.461 132.8-150.08 277.71-113.96"/>
 </g>
 <g>
  <path d="m911.66 1201.3s85.242 15.703 117.1 24.23c32.078 8.5234 139.98 7.625 200.56-89.508-48.902 42.172-110.14 43.746-134.6 43.52-24.449-0.22266-87.934 10.77-118.67 17.5 0.44922-6.0586 31.629-13.688 41.051-18.844 9.1992-5.1602 35.445-13.684 65.73-84.574 10.543-21.535 11.887-33.648 19.289-40.152-13.457 2.4648-39.031 31.406-46.883 39.93-8.0742 8.9727-55.633 66.402-83 81.43-27.371 15.477-41.055 22.434-60.57 26.469"/>
  <path d="m1055.2 1088.9-2.2422 2.4648-6.0586 6.7305c-14.582 16.824-53.164 61.469-76.047 74.031-27.816 15.699-41.051 22.207-59.895 26.02v6.0586c0.67188 0.22266 85.465 15.926 117.1 24.227 39.48 10.766 145.59 2.6914 203.69-90.855l-4.4844-3.8125c-33.426 28.715-78.066 43.07-132.36 42.621-21.309-0.22266-67.746 7.4023-100.05 13.684 2.2422-0.89844 4.7109-1.793 6.7305-2.4688l16.824-6.7266 2.6914-1.3477c10.766-5.3828 36.113-18.395 64.605-84.57l9.1953-21.762c3.1406-8.3008 5.3867-13.906 8.9727-17.273l-2.4648-5.3828c-11.664 2.0195-29.836 20.414-46.211 38.359zm-81.43 88.832c23.777-13.457 61.688-56.977 77.84-75.598l5.832-6.5039 2.4688-2.6914c6.9531-7.6289 23.105-24.902 34.996-32.527-1.7969 3.3633-4.0391 5.832-5.832 10.543l-8.9766 21.312c-27.59 64.383-51.594 76.496-61.914 81.879l-2.6914 1.3438-15.926 6.2812c-14.582 5.1602-21.09 8.5273-24.004 12.113l-0.22266 0.22656c-0.67578 0.89844-2.2461 1.793-2.4688 2.6914l-0.22266 4.2617 4.0352-1.1211c28.715-6.2812 92.875-17.496 118-17.273 48.23 0.22266 88.609-11.215 120.91-33.426-57.879 76.047-150.08 83.004-185.97 73.355-24.004-6.5039-78.516-17.051-104.09-21.758 13.684-4.4883 26.695-11.219 48.227-23.109z"/>
  <path d="m1067.6 1163.2s41.949-13.008 73.582-17.945c31.852-5.1602 142.22-36.113 182.15-167.57-42.398 52.043-52.043 55.406-77.391 69.09-25.352 13.238-102.07 59.223-128.54 84.125l-7.8516 4.7109s-2.2461-3.1406 8.9727-13.461c11.441-10.543 49.801-47.332 54.062-127.42 4.0391-35.219 11.215-67.297 13.684-72.008-17.496 10.766-37.465 52.266-41.5 63.707-4.0391 11.664-30.957 92.871-34.324 102.52-3.5859 9.6445-25.574 61.238-42.844 74.25"/>
  <path d="m1141.8 985.52-34.32 102.52c-4.4883 11.887-26.023 60.793-41.949 72.68l2.6914 5.3828c0.44531 0 42.395-13.008 73.578-17.945 14.133-2.2422 140.88-26.469 184.62-169.59l-5.3828-2.918c-39.93 48.902-50.25 54.289-72.68 66.18l-4.0391 2.0156c-25.125 13.461-93.543 54.738-123.38 80.086 41.504-38.809 52.719-91.523 54.738-128.99 4.0352-36.117 10.992-67.074 13.234-70.664l-4.4883-4.2617c-18.844 11.664-38.809 54.961-42.621 65.504zm-28.488 104.54 34.32-102.52c3.3672-9.8711 17.945-39.258 32.305-54.512-3.3672 13.684-7.6289 36.789-10.543 61.242-2.918 53.164-20.641 95.34-52.941 125.62-7.8516 7.1758-10.098 11.887-10.098 14.805 0 1.1211 0.22656 2.2422 0.89844 2.918l1.5703 2.0156 10.094-6.0547c26.246-24.453 101.85-69.992 128.32-84.125l3.8125-2.0156c19.965-10.547 32.305-18.172 62.141-53.168-47.332 122.93-159.27 145.59-172.51 147.83-22.434 3.5898-49.801 10.992-64.16 15.254 16.824-19.516 33.875-59.223 36.793-67.297"/>
  <path d="m1183.5 1053.9s52.492-32.75 81.43-56.527c28.715-23.555 109.92-85.695 98.93-192.25-12.113 34.77-32.078 66.625-54.289 86.367-22.207 19.738-61.691 81.43-71.109 95.789-9.6484 14.355-16.152 18.395-16.152 18.395s-3.3672-6.957 7.4023-19.516c7.625-12.789 21.758-43.969 12.113-110.14-11.215-61.918-15.031-76.496-13.684-85.918-7.8516 21.758-17.945 68.641-20.414 142.22-1.3438 41.727-5.6094 73.805-10.766 87.938-5.1602 14.355-13.461 33.648-13.461 33.648"/>
  <path d="m1204.6 932.35c-1.3438 40.152-5.3828 72.68-10.543 86.816l-13.234 33.648 4.4883 3.8125c0.44531-0.44922 52.938-33.199 81.652-56.754l3.3672-2.6914c32.078-26.469 107.45-87.938 96.684-192.47l-6.0547-0.67188c-11.891 34.543-31.41 65.727-53.391 85.242-20.414 18.172-55.41 71.336-68.645 91.523l-3.1406 4.9375c-4.0391 5.832-7.1797 9.4219-9.6445 12.113 0.89453-2.4688 2.4648-5.6094 5.832-9.6445 10.766-17.949 16.152-41.953 16.152-71.113 0-13.012-0.89844-26.918-3.1406-41.5 0-0.22656-7.4062-39.93-7.4062-39.93-4.4844-23.777-6.5039-34.547-6.5039-41.277 0-1.3477 0-2.6914 0.22656-3.8125l-5.8359-1.5703c-4.2617 11.215-17.719 54.734-20.863 143.34zm-4.7109 89.055c5.3867-14.805 9.6484-48.004 10.992-88.832 2.2461-64.383 9.8711-103.86 15.48-125.18 0.89844 6.9531 2.4648 15.926 5.1602 29.387l7.4023 39.707c2.0195 14.582 3.1406 28.266 3.1406 40.828 0 27.816-5.1602 50.699-15.031 67.297-6.7305 7.8516-8.3008 14.133-8.3008 17.945 0 2.4688 0.67578 4.0391 0.89844 4.2656l1.3477 3.3633 2.9141-1.793c0.44922-0.22656 7.4023-4.7109 17.051-19.293l3.3633-4.9375c13.012-19.965 47.559-72.68 67.523-90.18 19.965-17.945 37.238-45.988 49.574-76.719 0.22656 2.4648 0.44922 5.1602 0.44922 7.625 0 89.281-66.176 143.57-95.562 167.57l-3.3633 2.6914c-21.762 17.945-57.203 41.051-72.906 51.148 3.8125-9.6484 9.8711-24.902 9.8711-24.902"/>
  <path d="m1268.8 902.73s17.723-29.164 33.875-48.23c16.152-18.844 87.711-103.86 46.438-242.71 0.67188 32.527-3.1406 51.148-6.5078 62.812-3.3633 11.438-37.688 90.402-40.828 111.49-3.3633 21.309-8.5234 61.016-17.047 65.727-2.918-1.793 0.67188-8.9727 1.5703-15.254 1.1211-6.5078 10.32-61.242-22.883-119.12-30.059-50.922-35.668-56.086-40.152-73.805-0.67578 33.875 12.113 100.72 21.086 128.54 9.4219 28.039 34.098 92.648 24.453 130.56"/>
  <path d="m1346 611.78v8.3008c0 21.312-2.0195 38.809-6.2812 53.613l-11.215 28.941c-11.664 28.938-27.594 68.641-29.836 83l-0.89844 6.0586c-1.5703 10.992-4.4883 29.609-8.0742 42.621 0.67187-4.4883 1.793-12.113 1.793-23.332 0-23.332-4.4844-58.547-25.574-95.113l-20.863-34.773c-12.113-19.965-15.703-26.246-18.844-38.133l-6.2812 0.67187c-0.44922 34.996 12.789 102.74 21.535 129.66l3.5898 10.32c10.094 29.836 29.164 85.469 20.863 118.45l5.6094 2.2422c0.22266-0.22266 17.719-29.164 33.648-47.781 57.203-67.297 73.805-154.56 46.883-245.64zm-59.672 242.71c8.5273-4.7109 13.012-30.957 17.5-61.914l0.89844-5.832c2.2422-13.91 18.617-54.734 29.387-81.879l11.441-29.387c2.2422-7.8516 4.4844-21.539 5.6055-39.93 4.4883 19.965 7.1797 39.707 7.1797 58.996 0 58.328-19.516 112.84-57.879 157.93-10.094 11.891-20.41 27.145-27.141 37.465 0.22266-2.4688 0.89453-4.4883 0.89453-6.9531 0-33.203-14.133-74.703-23.328-101.39l-3.5898-10.32c-7.1797-22.434-17.051-72.234-19.742-108.35 2.918 5.6094 6.5078 11.891 12.34 21.312l20.863 34.77c20.188 35.445 24.449 69.32 24.449 91.75 0 12.562-1.3438 21.762-1.793 25.125-0.22266 0-1.5703 5.8359-1.5703 5.8359-0.44922 2.6914-1.3477 5.1562-1.3477 7.4023 0 2.2422 0.67578 4.2617 2.6953 5.3828l1.5703 0.89844 1.5703-0.89844"/>
  <path d="m1295.5 732.02s10.094-45.09 22.656-81.207c12.562-36.117 36.34-119.79-32.301-205.03 14.805 34.098 9.8672 56.754 10.094 60.566 0 3.8125-6.7305 80.758-6.2812 99.824 0.22266 24.453 5.832 66.402 5.832 66.402s-1.5703 5.1602-4.9336 0.22656c-2.2461-3.3672-7.8516-57.652-41.277-89.281-31.184-29.391-56.305-51.598-63.262-64.16 0.44922 22.434 14.133 54.512 24.902 72.234 10.766 17.496 54.957 75.375 65.277 94.891 10.094 19.516 19.293 42.848 19.293 45.539"/>
  <path d="m1282.9 447.13c8.9727 19.965 10.543 35.891 10.543 46.211 0 4.4844-0.22656 7.8516-0.44922 10.094l-1.793 22.434-4.7109 80.309s3.5859 40.828 5.1562 58.551c-3.8125-17.273-12.785-57.43-40.375-83.227 0-0.22656-17.051-16.375-17.051-16.375-22.434-21.09-40.152-37.688-45.539-47.336l-5.832 1.5703c0.44922 21.984 13.461 54.289 25.348 73.805l25.574 36.789c15.93 21.762 33.652 46.66 39.484 57.879 10.543 19.965 18.844 41.949 19.066 44.414l6.2812 0.44922c0-0.44922 10.098-45.312 22.434-80.98 27.145-77.168 16.152-147.16-32.977-207.95zm10.992 230.83c3.1406-0.44531 4.2617-3.8125 4.4844-4.4844 0-2.4688-5.832-67.297-5.832-67.297l4.9375-79.637 1.3438-20.191c0.22656-3.3633 0.67187-7.625 0.67187-12.785 0-7.4023-1.5703-17.723-4.4844-28.938 22.434 33.199 34.32 69.09 34.32 107.68 0 24.898-4.7109 50.695-14.133 77.391-8.9727 25.797-16.598 55.859-20.188 71.113-3.8125-9.8711-9.8711-24.004-16.152-35.891-6.2812-11.668-24.227-36.566-39.93-58.551l-25.348-36.562c-9.8711-15.93-19.965-40.379-23.332-60.344 8.3008 10.094 21.086 22.656 39.707 40.379l17.273 15.926c26.246 24.898 34.77 63.934 38.359 80.535l2.2422 8.0742c1.7969 2.6914 3.8125 3.8125 6.0586 3.5898"/>
  <path d="m1272.8 580.15s-5.1602-12.113-1.793-61.914c3.3633-50.027 3.8125-118-74.254-161.96 19.965 32.078 23.105 37.688 29.613 63.934 6.5039 26.02 14.133 67.973 25.125 91.523 4.4844 11.668 7.625 20.641 5.6055 21.762-2.0195 1.3477-2.9141-0.89844-4.4844-4.7109-1.5703-4.0391-18.395-39.258-50.473-61.016-32.527-21.984-61.691-43.969-72.906-65.953 5.3828 41.277 21.535 55.633 37.688 76.047 17.496 22.207 79.859 67.973 90.629 83.004 10.992 15.254 15.254 19.289 15.254 19.289"/>
  <path d="m1194.1 358.07c20.188 32.305 23.105 37.465 29.387 62.812l4.7109 20.637c5.6094 24.902 11.891 53.168 20.414 71.562 0.44922 1.1211 1.3438 3.3633 2.0195 5.1602-7.1797-13.012-22.211-36.566-46.887-53.168-30.73-20.637-60.793-43.07-71.785-64.605l-5.832 1.7969c4.9375 36.562 17.945 52.492 32.078 69.539l6.2812 7.8516c9.4219 12.113 30.957 30.059 51.371 47.559 17.723 14.805 34.324 28.715 39.258 35.668l15.703 19.516 4.9375-3.5898c-0.22656 0-4.9375-12.562-1.5703-60.344 2.6914-41.277 7.8516-117.77-75.824-164.88zm64.605 177.89c1.3438-0.67188 2.0156-2.0156 2.0156-4.0352 0-3.5898-2.0156-9.8711-6.2773-21.312-8.3008-17.723-14.809-47.109-20.191-70.441l-4.9336-20.863c-5.3867-21.98-9.1992-30.508-21.312-50.695 49.352 34.098 61.016 78.516 61.016 121.81 0 9.4219-0.44922 18.617-0.89844 27.59-0.89453 12.562-1.1211 22.66-1.1211 30.734 0 8.9727 0.22656 15.031 0.89844 19.965-3.8125-4.7109-7.6289-9.4219-7.6289-9.4219-5.3828-7.4023-21.535-21.086-40.379-36.789-19.512-16.375-41.5-34.996-50.695-46.438l-6.2812-8.0742c-11.664-14.355-21.762-27.59-27.59-51.82 13.684 17.273 35.891 34.547 65.055 54.062 33.199 22.66 49.352 59.449 49.574 59.672 1.3477 3.5898 2.2422 6.0586 4.7109 6.7305l1.3477 0.67188 2.6914-1.3438"/>
  <path d="m1212 449.6s-11.215-52.27-32.301-83.004c-20.641-30.734-63.262-57.203-107.68-69.766 15.699 12.562 25.348 24.004 30.957 33.199 5.6055 9.1992 40.379 60.57 56.082 76.723 15.926 16.375 41.5 30.508 52.941 42.848"/>
 </g>
 <g clip-path="url(#df12a775bf)">
  <path d="m1070 299.3c17.047 13.234 25.797 24.898 30.281 32.301 5.3867 8.9727 40.379 60.793 56.754 77.395l30.062 24.449 22.879 18.172 5.1602-2.6914c-0.44922-2.2422-11.664-53.168-32.75-84.125-20.863-30.508-62.812-57.652-109.47-70.887zm120.69 129.21-29.387-24c-15.703-15.93-50.473-67.75-55.637-76.051-4.7109-7.625-11.887-15.477-20.188-23.551 39.48 14.133 74.027 37.238 91.75 63.484 15.254 22.434 25.574 56.977 29.613 73.129-6.7305-5.6094-16.152-13.012-16.152-13.012"/>
 </g>
 <path d="m601.19 401.21c2.8281 15.543 73.172-15.41 157.1-69.133 0.53906-0.33594 1.0703-0.6875 1.6094-1.0195-1.2227 0.78125-2.4492 1.5781-3.6836 2.3672-90.383 57.941-165.61 92.102-168.05 76.289-2.2891-14.855 60.586-68.57 143.22-123.09-75.801 50.242-132.83 100.08-130.2 114.58z" fill="#231f20"/>
 <path d="m912.3 264.61c2.0781 13.512-49.723 59.164-121.29 108.32 66.012-45.605 113.4-88.348 110.98-101.59-2.6992-14.867-67.117 12.781-146.13 62.199 85.125-53.438 154.11-84.059 156.44-68.934z" fill="#231f20"/>
 <g clip-path="url(#929e7d5664)">
  <path d="m842.69 336.04c7.9297-0.82422 15.879-1.6289 23.805-2.6562-15.566-2-31.941-3.3477-47.508-5.3008-14.664-2.082-29.977-3.9844-42.746-11.797 8.6719-15.379 21.027-28.496 31.613-42.586-13.727 10.828-27.316 23.551-42.66 32.055-1.207-2.1836-2.1406-4.6445-2.9336-7.1445-2.8438-9.4102-4.1016-19.25-5.3164-29.039-2.9141-26-4.1992-53.332-5.9102-79.539-0.84375-13.301-1.707-26.598-2.8711-39.898-3.4609 39.578-4.4688 79.973-8.7734 119.44-0.76172 6.5781-1.7109 13.125-2.9648 19.559-1.1758 5.6211-2.5547 11.613-5.3047 16.605-15.352-8.5039-28.895-21.207-42.641-32.023 10.598 14.078 22.953 27.195 31.625 42.582-5.9336 3.6875-12.719 6.0859-19.504 7.7227-15.074 3.6445-31.477 5-46.965 6.6992-7.9297 0.82422-15.867 1.6289-23.797 2.668 15.559 1.9844 31.941 3.3359 47.512 5.2891 14.66 2.0781 29.973 3.9844 42.742 11.809-8.6719 15.367-21.035 28.48-31.621 42.574 13.727-10.828 27.328-23.543 42.66-32.055 1.2148 2.1836 2.1406 4.6406 2.9453 7.1445 2.8398 9.4062 4.0859 19.25 5.3125 29.039 2.9023 26 4.1992 53.332 5.8984 79.539 0.85547 13.297 1.7227 26.598 2.875 39.898 3.4688-39.582 4.4805-79.973 8.7812-119.44 0.76172-6.5781 1.7109-13.125 2.9688-19.559 1.1719-5.6211 2.543-11.602 5.3008-16.605 15.344 8.5117 28.895 21.207 42.641 32.023-10.594-14.082-22.953-27.195-31.633-42.586 5.9414-3.6836 12.727-6.082 19.504-7.7188 15.086-3.6445 31.477-4.9922 46.965-6.6992zm-94.527 25.773c-7.2188-15.359-13.078-21.215-28.441-28.43 15.363-7.2266 21.223-13.086 28.441-28.441 7.2266 15.355 13.086 21.215 28.441 28.441-15.355 7.2148-21.215 13.07-28.441 28.43z" fill="#231f20"/>
 </g>
 <g fill="#231f20">
  <path d="m691.93 470.28c-1.957 0-2.3008-1.9844-2.4453-2.832-0.125-0.72266-0.26562-1.7461-0.46094-3.1641-0.22656-1.6562-0.53906-3.9258-0.96094-6.6719-1.4531-8.7773-1.9688-9.1172-8.3438-10.816-2.1133-0.51953-3.8203-0.89453-5.1953-1.1992-3.5039-0.76953-4.9531-1.0898-4.9531-3.0742-0.003906-1.9805 1.4492-2.3008 4.9531-3.0781 1.3711-0.30078 3.082-0.67969 5.2344-1.2109 6.3281-1.6836 6.8438-2.0195 8.3047-10.836 0.41797-2.7227 0.72656-4.9883 0.95703-6.6445 0.19141-1.418 0.33203-2.4414 0.45703-3.1641 0.14453-0.84766 0.48438-2.8359 2.4453-2.8359 1.9609 0 2.3008 1.9844 2.4453 2.832 0.125 0.72266 0.26562 1.7461 0.46094 3.1641 0.22656 1.6562 0.53906 3.9258 0.96094 6.6719 1.4531 8.7695 1.9688 9.1172 8.3242 10.812 2.1445 0.52734 3.8477 0.90234 5.2148 1.2031 3.5039 0.77344 4.957 1.0898 4.957 3.0742 0 1.9844-1.4492 2.3047-4.9531 3.0781-1.375 0.30469-3.082 0.67969-5.2383 1.2148-6.3242 1.6797-6.8438 2.0195-8.3047 10.836-0.41797 2.7188-0.72656 4.9883-0.95312 6.6406-0.19531 1.418-0.33594 2.4414-0.45703 3.168-0.14844 0.84766-0.48828 2.832-2.4492 2.832zm-11.426-27.762c0.097656 0.023437 0.19531 0.046875 0.29688 0.074219 7.6562 2.0391 9.5586 3.7852 11.129 11.953 1.5742-8.1797 3.4766-9.9258 11.086-11.949 0.11328-0.027344 0.22266-0.054688 0.33203-0.082031-0.097656-0.023438-0.19531-0.046875-0.29297-0.070313l-0.039062-0.011718c-7.625-2.0312-9.5234-3.7773-11.09-11.945-1.5781 8.1836-3.4766 9.9258-11.086 11.949-0.11328 0.027344-0.22656 0.054687-0.33594 0.082031z"/>
  <path d="m815.95 229.06c-7.4258-1.9766-8.3711-3.168-9.9297-12.582-2.2188-14.438-1.2266-14.438-3.4375 0-1.5625 9.4141-2.5 10.613-9.9258 12.59-11.387 2.8125-11.387 1.5508 0 4.3594 7.4258 1.9766 8.3711 3.168 9.9297 12.582 2.2188 14.438 1.2227 14.438 3.4375 0 1.5625-9.4141 2.5-10.613 9.9258-12.59 11.387-2.8125 11.387-1.5508 0-4.3594z"/>
  <path d="m673.93 478.84c-4.5156-1.2031-5.0938-1.9258-6.0391-7.6562-1.3516-8.7852-0.74609-8.7852-2.0938 0-0.94922 5.7305-1.5195 6.4609-6.0391 7.6602-6.9297 1.7148-6.9297 0.94531 0 2.6523 4.5156 1.207 5.0938 1.9297 6.0391 7.6602 1.3516 8.7812 0.74609 8.7852 2.0938 0 0.94922-5.7305 1.5195-6.4609 6.0391-7.6602 6.9297-1.7148 6.9297-0.94531 0-2.6562z"/>
  <path d="m839.88 188.75c-4.5156-1.2031-5.0938-1.9297-6.0391-7.6562-1.3516-8.7852-0.74609-8.7852-2.0938 0-0.94922 5.7266-1.5195 6.457-6.0391 7.6602-6.9297 1.7109-6.9297 0.94531 0 2.6523 4.5156 1.2031 5.0938 1.9297 6.043 7.6562 1.3477 8.7852 0.74219 8.7852 2.0898 0 0.94922-5.7266 1.5195-6.457 6.0391-7.6602 6.9297-1.7109 6.9297-0.94531 0-2.6523z"/>
 </g>
 <g clip-path="url(#8bf1704baf)">
  <path d="m743.46 578.02c-8.6406 17.609-8.8164 22.719-1.7656 29.938 2.9961 2.8203 5.2891 6.3438 5.2891 7.75 0 1.5859-1.9375 2.4648-5.2891 2.4648-5.1094 0-5.2852 0.17969-5.2852 8.8086 0 8.2773 0.35156 8.8047 4.4062 8.8047 3.875 0 4.4062 0.70312 4.4062 6.1641 0 4.9297-0.70703 6.3398-3.8789 6.8672-4.0547 0.88281-60.461 5.4609-132.55 10.922-29.438 2.2891-39.309 2.4648-41.773 1.0547-5.2891-3.3438-10.051-2.4648-13.223 2.2891-2.2891 3.5234-2.4688 5.2852-0.70312 10.039 1.9375 5.2852 1.0547 8.8047-12.34 45.438-8.1094 21.84-26.441 70.801-40.719 109.02-14.453 38.043-26.266 70.625-26.266 72.207 0 4.7578 9.168 17.965 18.332 26.242 16.219 14.793 40.895 23.25 68.219 23.25 19.211 0 38.25-4.2305 52.879-11.449 11.637-5.9883 26.441-19.727 31.555-29.586l3.875-7.3984-14.102-38.746c-7.7539-21.309-22.914-62.168-33.488-90.699-27.324-73.441-34.551-95.102-32.789-96.863 0.88281-0.70312 16.219-0.70312 34.199 0 17.977 0.87891 54.816 2.4648 81.965 3.5234 27.145 1.0547 52 2.4648 55.172 2.9922 5.4648 0.87891 5.6406 1.2344 5.6406 9.5117v8.6289h-12.34v19.371h38.781v-19.371h-12.34v-8.6289c0-10.391-4.4062-8.9844 47.594-15.148 20.797-2.4648 57.109-6.8672 80.73-9.6836 23.621-2.9961 43.539-4.9336 44.594-4.4062 0.88281 0.70703 1.5898 2.293 1.5898 3.875 0 4.9336-20.625 61.992-65.047 180.17l-17.449 46.496 3.5273 7.043c4.7578 9.3359 19.742 23.777 30.844 29.766 14.457 7.7461 33.844 11.973 55.172 11.973 31.906-0.17578 57.289-9.6836 74.562-28.176 15.867-17.262 16.746-10.922-12.336-89.117-57.996-155.86-58.699-158.15-55.703-161.67 2.293-2.293 2.4688-4.2266 1.2344-7.75-2.4688-6.8711-6.5234-8.8047-13.574-6.1641-6.3438 2.2891-57.637 2.4648-134.32 0.52734l-42.305-1.0547-0.52734-5.6367c-0.53125-5.1094-0.17578-5.6367 5.2891-6.1641 5.4609-0.52734 5.8164-0.88281 6.3438-8.1016 0.52734-7.3984 0.52734-7.3984-5.4648-7.3984-8.2852 0-9.3398-3.875-2.9961-10.918 7.2266-7.75 6.875-14.266-1.7617-31.348-3.8789-7.75-7.582-14.09-7.9336-14.09-0.52734 0-4.2305 6.5156-7.9297 14.441zm211.52 133.5c5.1133 14.09 17.629 47.727 27.852 74.848 23.094 61.992 37.371 101.27 37.371 103.2 0 1.0586-16.57 1.4102-38.25 1.2344l-38.43-0.52734-0.52734-103.91c-0.17578-58.117 0.35156-103.03 1.0586-102.14 0.87891 1.0547 5.8164 13.207 10.926 27.297zm-17.977 76.082-0.53125 102.68-38.25 0.52734c-22.914 0.17578-38.426-0.17578-38.426-1.2344 0-0.87891 13.75-38.742 30.672-84.18 16.746-45.262 33.668-90.879 37.367-101.45 3.7031-10.391 7.4062-18.844 8.1094-18.844 0.88281 0 1.2344 46.141 1.0586 102.5zm-378.63 7.5742v103.03h-38.777c-21.859 0-38.781-0.70703-38.781-1.5859 0-0.88281 3.7031-10.918 8.1094-22.543 8.8125-22.895 51.117-135.43 61.52-163.96 3.5234-9.8633 6.875-17.965 7.2266-17.965 0.35156 0 0.70312 46.32 0.70312 103.03zm24.68-54.598c8.9883 24.129 22.562 61.113 30.316 81.895 7.7578 20.781 17.102 46.316 20.977 56.707l6.6992 19.023h-77.383v-102.5c0-61.992 0.70703-101.8 1.5859-100.91 0.88281 1.0547 8.9922 21.484 17.805 45.789z"/>
 </g>
 <g>
  <path d="m751.04 727.01-11.105 0.53125v11.797c0 6.5195-0.88281 30.82-1.7617 54.07-2.8203 65.336-8.8125 231.41-8.8125 240.75v8.4531h44.594l-1.0586-36.633c-3.875-133.67-8.6367-268.05-9.6914-273.33l-1.2344-6.1641z"/>
  <path d="m724.6 1051.6c-7.0508 2.1133-12.867 9.3359-12.867 15.852v5.1094h79.32v-4.4062c0-5.9883-2.9961-11.973-7.5781-14.969-4.582-3.168-50.062-4.4023-58.875-1.5859z"/>
  <path d="m692.34 1089.5v9.5078h120.04l-0.52734-9.332-0.52734-9.1602-118.98-0.70312z"/>
  <path d="m658.86 1117.5v9.6875l93.07-0.35156 92.891-0.52734 0.53125-9.3359 0.52734-9.1562h-187.02z"/>
 </g>
 <g clip-path="url(#18203f63d4)">
  <path d="m632.41 1144.8v10.566h237.43l1.0586-7.0469c0.52734-3.8711 0.52734-8.6289 0-10.566-0.88281-3.5195-2.4688-3.5195-119.69-3.5195h-118.8z"/>
 </g>
</svg>
