<?xml version="1.0" encoding="UTF-8"?>
<svg width="2e3" height="2e3" version="1.0" viewBox="0 0 1500 1500" xmlns="http://www.w3.org/2000/svg" zoomAndPan="magnify">
 <defs>
  <clipPath id="b2bcc9bf67">
   <path d="m194.52 495.33h1110.8v645h-1110.8z"/>
  </clipPath>
 </defs>
 <g transform="translate(.10686 62.916)">
  <g fill="#231f20">
   <path d="m569.95 537.5c3.4141 18.785 88.371-18.625 189.74-83.551 0.64844-0.40625 1.293-0.83203 1.9414-1.2344-1.4727 0.94531-2.9531 1.9062-4.4492 2.8594-109.16 70.031-200.02 111.32-202.97 92.207-2.7656-17.957 73.176-82.875 172.98-148.76-91.547 60.723-160.43 120.95-157.24 138.48z"/>
   <path d="m945.71 372.41c2.5078 16.328-60.055 71.508-146.49 130.92 79.723-55.117 136.96-106.77 134.04-122.78-3.2617-17.969-81.062 15.449-176.5 75.176 102.81-64.582 186.13-101.59 188.95-83.312z"/>
   <path d="m861.62 458.73c9.5781-0.99219 19.18-1.9648 28.754-3.207-18.805-2.4141-38.578-4.043-57.379-6.4102-17.711-2.5117-36.203-4.8125-51.625-14.254 10.473-18.59 25.395-34.438 38.18-51.469-16.578 13.086-32.996 28.465-51.523 38.742-1.457-2.6406-2.5859-5.6133-3.5469-8.6367-3.4297-11.371-4.9492-23.266-6.4141-35.094-3.5195-31.426-5.0742-64.457-7.1406-96.133-1.0195-16.074-2.0625-32.145-3.4688-48.219-4.1797 47.832-5.3984 96.652-10.598 144.35-0.91797 7.9492-2.0625 15.859-3.582 23.637-1.4141 6.793-3.082 14.031-6.4023 20.066-18.543-10.277-34.898-25.629-51.5-38.703 12.797 17.02 27.723 32.867 38.191 51.469-7.1641 4.4531-15.359 7.3516-23.555 9.3281-18.207 4.4062-38.016 6.0469-56.723 8.1016-9.5742 0.99609-19.164 1.9648-28.738 3.2227 18.789 2.3984 38.578 4.0312 57.379 6.3945 17.711 2.5117 36.203 4.8125 51.625 14.27-10.473 18.574-25.406 34.422-38.191 51.453 16.578-13.086 33.004-28.449 51.523-38.738 1.4688 2.6367 2.5859 5.6094 3.5586 8.6328 3.4297 11.371 4.9336 23.266 6.4141 35.094 3.5078 31.426 5.0742 64.457 7.1289 96.133 1.0312 16.074 2.0742 32.148 3.4688 48.219 4.1914-47.832 5.4102-96.652 10.609-144.35 0.91797-7.9492 2.0625-15.859 3.5781-23.637 1.418-6.793 3.0742-14.02 6.4062-20.066 18.531 10.289 34.898 25.629 51.5 38.703-12.797-17.02-27.723-32.867-38.203-51.469 7.1758-4.4531 15.371-7.3516 23.551-9.3281 18.223-4.4062 38.02-6.0352 56.723-8.1016zm-114.16 31.152c-8.7188-18.562-15.793-25.641-34.352-34.359 18.559-8.7344 25.633-15.812 34.352-34.375 8.7305 18.562 15.805 25.641 34.348 34.375-18.543 8.7188-25.617 15.797-34.348 34.359z"/>
   <path d="m679.54 620.98c-2.3633 0-2.7774-2.4024-2.9531-3.4258-0.14843-0.875-0.32031-2.1094-0.55468-3.8242-0.27344-2-0.65235-4.7422-1.1602-8.0625-1.7539-10.609-2.3828-11.02-10.078-13.074-2.5508-0.62891-4.6172-1.082-6.2734-1.4492-4.2344-0.92969-5.9844-1.3164-5.9883-3.7148 0-2.3945 1.7539-2.7812 5.9844-3.7188 1.6602-0.36719 3.7227-0.82032 6.3242-1.4648 7.6406-2.0352 8.2656-2.4414 10.031-13.098 0.50391-3.2891 0.87891-6.0312 1.1523-8.0312 0.23438-1.7109 0.40235-2.9492 0.55469-3.8242 0.17188-1.0234 0.58594-3.4258 2.9531-3.4258 2.3672 0 2.7773 2.4023 2.9531 3.4258 0.15234 0.87109 0.32031 2.1094 0.55469 3.8242 0.27734 2 0.65234 4.7422 1.1641 8.0625 1.75 10.598 2.3789 11.02 10.051 13.066 2.5898 0.63672 4.6484 1.0898 6.3008 1.457 4.2305 0.92969 5.9844 1.3164 5.9844 3.7148 0 2.3945-1.75 2.7812-5.9805 3.7188-1.6602 0.36719-3.7227 0.82031-6.3281 1.4648-7.6367 2.0352-8.2617 2.4414-10.027 13.098-0.50391 3.2891-0.87891 6.0273-1.1523 8.0273-0.23438 1.7148-0.40625 2.9531-0.55469 3.8281-0.17578 1.0234-0.58594 3.4258-2.9531 3.4258zm-13.797-33.555c0.11719 0.0273 0.23438 0.0586 0.35547 0.0898 9.25 2.4648 11.547 4.5742 13.441 14.445 1.9023-9.8867 4.1992-11.996 13.391-14.441 0.13282-0.0312 0.26953-0.0664 0.40235-0.0977-0.1211-0.0273-0.23828-0.0586-0.35547-0.0898l-0.0508-0.0117c-9.2031-2.4531-11.5-4.5625-13.395-14.434-1.9024 9.8867-4.1992 11.996-13.387 14.441-0.13672 0.0312-0.26953 0.0664-0.40235 0.0977z"/>
   <path d="m829.33 329.45c-8.9688-2.3906-10.109-3.8281-11.992-15.211-2.6797-17.445-1.4805-17.449-4.1524 0-1.8867 11.379-3.0195 12.828-11.988 15.215-13.75 3.4024-13.754 1.8789 0 5.2695 8.9688 2.3945 10.113 3.832 11.992 15.211 2.6797 17.445 1.4805 17.449 4.1523 0 1.8867-11.379 3.0195-12.828 11.988-15.215 13.754-3.4023 13.754-1.8789 0-5.2695z"/>
   <path d="m657.81 631.33c-5.457-1.4531-6.1523-2.3281-7.2969-9.2539-1.6289-10.617-0.89844-10.617-2.5274 0-1.1445 6.9219-1.8359 7.8047-7.293 9.2578-8.3672 2.0703-8.3711 1.1445 0 3.207 5.457 1.4531 6.1523 2.3281 7.2969 9.2539 1.6328 10.617 0.90234 10.617 2.5273 0 1.1484-6.9219 1.8359-7.8047 7.293-9.2578 8.3672-2.0703 8.3711-1.1445 0-3.207z"/>
   <path d="m858.23 280.73c-5.457-1.457-6.1562-2.332-7.3008-9.2539-1.6289-10.617-0.89843-10.617-2.5273 0-1.1445 6.9219-1.8359 7.8047-7.293 9.2578-8.3672 2.0703-8.3672 1.1406 0 3.207 5.457 1.4531 6.1523 2.3281 7.2969 9.2539 1.6328 10.617 0.90234 10.617 2.5273 0 1.1484-6.9219 1.8359-7.8047 7.293-9.2578 8.3711-2.0703 8.3711-1.1445 4e-3 -3.207z"/>
  </g>
  <g clip-path="url(#b2bcc9bf67)">
   <path d="m1170 734.25c19.762-4.8086 39.332-10.355 62.234-16.449 0.1953-0.0586 0.3516 0.19141 0.2031 0.34766-72.27 78.277-158.68 119.55-261.43 128.92-0.22266 0.0234-0.25 0.33985-0.0352 0.39844 24.066 6.6445 48.191 13.293 75.117 20.73 0.1992 0.0508 0.2148 0.32031 0.027 0.39844-51.605 20.73-102.73 23.152-155.27 22.566-0.22265 0-0.29297 0.3086-0.0859 0.39063 15.188 6.6719 30.379 13.336 45.574 19.996 0.0703 0.0391 0.1211 0.10547 0.1211 0.19141 0.0352 1.3867 0.0625 2.7656 0.0937 4.1406 0 0.11328-0.0859 0.20703-0.19922 0.21485-32.789 1.7266-65.59 3.4726-99.211 5.25-0.1914 8e-3 -0.26953 0.2539-0.12109 0.375 7.0781 5.4102 14.23 10.867 21.371 16.312-0.52734 1.5625-0.51562 1.5312-1.043 3.0976h-45.609c-0.14844 0-0.24219 0.15235-0.19141 0.28906 3.1406 7.7266 5.5274 13.586 8.8828 21.816 0.0703 0.17188-0.10156 0.33984-0.27343 0.28125-6.457-2.3477-11.461-4.1602-17.449-6.332-0.12891-0.043-0.26563 0.0234-0.29297 0.15625-4.6133 22.762 1.3047 43.613 12.906 62.277 11.375 18.285 25.406 34.922 39.98 54.535 0.11328 0.1562-0.0156 0.3632-0.20313 0.332-16.027-2.6797-31.086-5.2149-46.441-7.7969-0.125-0.016-0.23828 0.078-0.23828 0.207v54.613c0 0.1367-0.1211 0.2305-0.25391 0.2031-21.016-3.875-30.512-18.969-37.316-34.863-0.0703-0.168-0.32031-0.1602-0.37109 0.027-5.2539 17.469-10.602 35.277-15.941 53.086-0.0234 0.098-0.11718 0.1524-0.21484 0.1524-1.6055-0.125-3.2031-0.25-4.8086-0.3711-0.0547-0.01-0.10547-0.035-0.14063-0.074-13.672-15.504-16.453-34.949-17.555-58.758-8e-3 -0.2227-0.3164-0.2735-0.39843-0.062-8.2812 20.996-17.914 36.172-39.289 41.195-0.1289 0.027-0.25781-0.07-0.25781-0.2031v-55.059c0-0.125-0.12109-0.2266-0.24609-0.2032-16.02 2.8282-30.949 5.4571-45.859 8.086-0.0742 0-0.15234-0.016-0.19922-0.078-0.6875-0.8593-1.3672-1.7109-2.0586-2.5781-0.0664-0.086-0.0586-0.2031 0.0156-0.2734 31.84-31.457 58.551-65.266 55.336-114.6-4e-3 -0.13672-0.15234-0.23047-0.28515-0.1875-6.3633 2.2656-11.578 4.1172-18.672 6.6445-0.17187 0.0586-0.33594-0.11719-0.26953-0.28906 3.0938-7.375 5.5664-13.254 9.0742-21.621 0.0586-0.14453-0.043-0.29687-0.19531-0.29687h-46.246c-3.1445 0.14453-4.5391-0.63672-0.71094-3.3203 7.207-5.4727 14.402-10.934 21.746-16.516 0.15234-0.10937 0.0781-0.35547-0.11328-0.36719-33.793-1.6328-66.738-3.2226-99.695-4.8164-5.8555-0.0586-6.0469-2.3555-0.52734-4.4297 15.359-6.7148 30.727-13.422 46.082-20.125 0.20313-0.0937 0.14063-0.40234-0.0859-0.40234-51.832 0.1875-103.25-1.8945-155.02-22.762-0.1875-0.0703-0.17188-0.33985 0.0195-0.39844 27.023-7.5 51.355-14.234 75.633-20.977 0.21875-0.0664 0.19141-0.38282-0.0391-0.39844-102.89-9.0469-189.34-50.145-259.16-125.74-0.13672-0.14453 0-0.39062 0.19922-0.34375 60.633 12.988 120.79 25.871 180.93 38.746 6.6641 1.5078 7.918-2.6992 1.2344-4.6758-9.875-3.8672-19.781-7.6406-29.613-11.598-67.918-27.281-128.94-64.332-174.09-123.63-27.238-35.773-44.953-75.859-54.465-123.84-0.043-0.19922 0.21094-0.32813 0.35547-0.17969 122 127.52 274.57 184.53 436.26 221.25 6.6953 1.5273 10.02 9.1992 6.3828 15.031-2.25 3.625-3.7852 6.9297-4.832 9.75-2.0117 5.4297-1.7266 10.254-0.3789 14.008 0.0234 0.0703 0.0117 0.13672-0.0312 0.1875-3.7305 4.4297-7.2734 10.66-7.2344 16.836 0.0547 9.7617 7.707 21.293 18.195 27.406 3.6172 2.1094 8.1094 1.9023 11.516-0.52344 3.3984-2.4062 5.0781-6.6016 4.2695-10.695-1.0508-5.3906 6.4141-11.957 9.8125-13.363 17.297-7.1953 44.156-0.64844 48.227 43.219 0.20313 2.1836 1.4727-4.1484 1.6797-6.332 1.9102-19.484-3.5547-34.066-14.098-41.625-10.555-7.5586-28.465-5.8164-35.383-3.082-6.8516 2.6992-19.688 13.695-17.523 26.547 0.0273 0.17188-0.15625 0.30078-0.30468 0.21485-7.8164-4.7305-13.379-13.516-13.41-19.277-0.0352-5.8594 7.3633-13.473 8.5352-14.051 1.1797-0.57031 3.7695 0.14063 8.7031-0.30859 4.8828-0.46485 11.57-2.5312 15.129-5.957 0.0469-0.043 0.11328-0.0664 0.17578-0.0508 0.46094 0.12891 2.6484 0.51954 8.6641-1.0976 6.875-1.8359 14.402-8.3398 12.574-11.199-1.8164-2.8711 0.41406-5.082 1.6055-6.1094 1.1992-1.0195 4.4297-1.9141 15.645-4.7969 10.922-2.8047 34.375-5.3359 51.691-3.6172 0.23047 0.0274 0.3125-0.30078 0.0937-0.38672-2.4688-0.97656-8.8477-3.1328-21.086-5.1523-16.465-2.7109-33.055 1.9219-38.609 3.7031-5.5469 1.7774-26.516 10.277-29.332 21.828-4e-3 0.0391-0.0234 0.0703-0.0547 0.0898-2.4258 1.6992-19.73 9.3125-25.34 7.3438-0.0312-8e-3 -0.0508-0.0273-0.0742-0.0547-0.33203-0.34375-3.0391-3.4336-0.87109-9.293 2.3164-6.2109 8.1641-17.223 23.66-28.453 15.508-11.234 20.695-11.473 39.977-12.906 10.199-0.75 27.395 2.8047 45.887 9.5352 21.055 7.6523 58.996 41.215 57.797 35.035-2.1133-10.957 4.8984-21.676 15.844-23.852 24.719-4.9258 49.855-10.043 74.832-15.844 120.59-27.984 233.96-72.48 331.87-150.49 23.113-18.414 44.559-38.938 69.535-60.969 0.1368-0.125 0.3868 0.0117 0.336 0.21094-32.316 141.32-132.01 210.51-255.18 257.72-0.2305 0.0977-0.1445 0.42579 0.1094 0.39063 19.344-2.7539 38.801-4.9805 58.008-8.5156 20.726-3.832 41.289-8.668 61.781-13.672"/>
  </g>
 </g>
</svg>
