<?xml version="1.0" encoding="UTF-8"?>
<svg width="2e3" height="2e3" version="1.0" viewBox="0 0 1500 1500" xmlns="http://www.w3.org/2000/svg" zoomAndPan="magnify">
 <defs>
  <clipPath id="75f8bb1ebc">
   <path d="m319 206.12h862v1087.5h-862z"/>
  </clipPath>
  <clipPath id="7bd9223626">
   <path d="m967 349h208v150h-208z"/>
  </clipPath>
  <clipPath id="796422c763">
   <path d="m750 0 424.27 424.27-424.27 424.26-424.27-424.26z"/>
  </clipPath>
  <clipPath id="883772ec50">
   <path d="m750 0 424.27 424.27-424.27 424.26-424.27-424.26z"/>
  </clipPath>
  <clipPath id="b9b4c40e06">
   <path d="m750 0 424.27 424.27-424.27 424.26-424.27-424.26z"/>
  </clipPath>
  <clipPath id="3e258fe9a5">
   <path d="m325 349h208v150h-208z"/>
  </clipPath>
  <clipPath id="c665f968dc">
   <path d="m750 0 424.27 424.27-424.27 424.26-424.27-424.26z"/>
  </clipPath>
  <clipPath id="07eec93b3e">
   <path d="m750 0 424.27 424.27-424.27 424.26-424.27-424.26z"/>
  </clipPath>
  <clipPath id="e0839f607f">
   <path d="m750 0 424.27 424.27-424.27 424.26-424.27-424.26z"/>
  </clipPath>
  <clipPath id="73cc6dc364">
   <path d="m523 261h454v327h-454z"/>
  </clipPath>
  <clipPath id="c9c3f48390">
   <path d="m750 0 424.27 424.27-424.27 424.26-424.27-424.26z"/>
  </clipPath>
  <clipPath id="1cc128d860">
   <path d="m750 0 424.27 424.27-424.27 424.26-424.27-424.26z"/>
  </clipPath>
  <clipPath id="9822a21402">
   <path d="m750 0 424.27 424.27-424.27 424.26-424.27-424.26z"/>
  </clipPath>
  <clipPath id="b13c80f80b">
   <path d="m555 581.55h384v593.25h-384z"/>
  </clipPath>
 </defs>
 <g clip-path="url(#75f8bb1ebc)">
  <path d="m761 216.79 2.418-4.1016-9.8789-5.8125c-1.3633-0.80469-3.0234-0.87891-4.4492-0.21094l-10.344 4.8711-0.027344 0.011719c-0.035156 0.011719-1.7461 0.81641-4.8047 2.1445-21.465 9.3672-111.36 45.699-204.29 45.66h-205.7c-1.25 0-2.4766 0.50781-3.3555 1.4023-0.89453 0.87891-1.4023 2.1055-1.4023 3.3555v596.47c0.011719 60.062 25.59 116.38 63.754 167.06 57.297 76.031 143.11 139.8 216.22 185.45 73.109 45.625 133.54 73.059 140.07 75.996l8.8242 3.9531c1.2383 0.55859 2.6523 0.55859 3.9023 0l8.8359-3.9648c8.6992-3.8906 113.23-51.363 215.88-127.46 51.324-38.055 102.2-83.273 140.39-133.98 38.164-50.68 63.742-107 63.754-167.06v-596.47c0-1.2617-0.49609-2.4648-1.3906-3.3555-0.90234-0.90625-2.0938-1.4023-3.3672-1.4023h-212.74c-59.465 0-109.35-11.598-144.43-23.246-17.547-5.8242-31.375-11.66-40.84-16.047-4.7344-2.1914-8.3789-4.0273-10.855-5.3281-1.2266-0.64453-2.168-1.1523-2.8125-1.5-0.3125-0.17188-0.55859-0.30859-0.71875-0.40625l-0.1875-0.10156-0.046875-0.035156-4.8359 8.2031c0.13672 0.074219 0.48437 0.28516 1.2031 0.66797 10.445 5.75 89.703 47.297 203.53 47.312h207.98v591.71c0.011719 57.273-24.438 111.68-61.848 161.34-56.047 74.473-141.06 137.83-213.64 183.11-72.574 45.289-132.67 72.574-138.92 75.363l-6.9023 3.0977-6.8789-3.0859c-8.3398-3.7305-112.41-51.016-214.11-126.41-50.855-37.707-101.09-82.43-138.46-132.07-37.398-49.652-61.848-104.06-61.848-161.34v-591.71h200.94c54.496 0 107.41-12.07 146.92-24.164 19.754-6.0469 36.137-12.105 47.684-16.691 5.7617-2.293 10.32-4.2266 13.48-5.6016s4.8828-2.168 5.1055-2.2812l-0.023438 0.015625 8.0781-3.8047 7.707 4.5469 2.418-4.1016"/>
 </g>
 <path d="m749.98 235.52-2.0195-4.3125c-2.4414 1.1523-29.52 13.633-69.738 25.812-40.223 12.18-93.617 24.027-148.59 24.027h-183.64c-1.2539 0-2.4805 0.50781-3.3711 1.3867-0.87891 0.89062-1.3867 2.1172-1.3867 3.3711v574.41c0 28.887 6.7383 56.977 18.176 83.828 17.176 40.273 44.844 77.793 76.504 111.45 31.66 33.641 67.312 63.406 100.55 88.051 100.85 74.758 204.93 121.96 211.58 124.96 1.2383 0.55859 2.6641 0.55859 3.9023 0 6.8633-3.0859 110.86-50.297 211.58-124.96 44.312-32.859 92.938-74.816 130.64-122.96 18.848-24.066 34.969-49.691 46.406-76.543 11.438-26.852 18.188-54.941 18.188-83.828v-574.41c0-1.2539-0.50781-2.4805-1.3984-3.3711-0.89063-0.87891-2.1055-1.3867-3.3594-1.3867h-190.69c-122.7 0.023437-207.55-47.672-210.99-49.652-1.3359-0.76953-2.9844-0.84375-4.3711-0.1875l2.0195 4.3125-2.3672 4.125c4.3125 2.4531 90.52 50.895 215.71 50.918h185.92v569.66c0 27.387-6.3945 54.199-17.422 80.098-16.531 38.836-43.531 75.574-74.672 108.65-31.125 33.098-66.379 62.539-99.277 86.926-99.766 73.988-203.32 121.03-209.82 123.94l1.957 4.3398 1.9453-4.3398c-6.293-2.8242-109.94-49.863-209.81-123.94-43.875-32.516-91.906-74.027-128.81-121.16-18.461-23.555-34.125-48.523-45.152-74.41-11.027-25.898-17.422-52.711-17.422-80.098v-569.66h178.88c56.332-0.011719 110.52-12.082 151.34-24.438 40.816-12.352 68.262-25.004 71.016-26.293l-2.0078-4.3125-2.3672 4.125 2.3672-4.125"/>
 <g clip-path="url(#7bd9223626)">
  <g clip-path="url(#796422c763)">
   <g clip-path="url(#883772ec50)">
    <g clip-path="url(#b9b4c40e06)">
     <path d="m1071 349.92c0 73.969-0.51953 74.344-103.28 74.344 102.76 0 103.28 0.37109 103.28 74.34 0-73.969 0.51562-74.34 103.27-74.34-102.76 0-103.27-0.375-103.27-74.344" fill-rule="evenodd"/>
    </g>
   </g>
  </g>
 </g>
 <g clip-path="url(#3e258fe9a5)">
  <g clip-path="url(#c665f968dc)">
   <g clip-path="url(#07eec93b3e)">
    <g clip-path="url(#e0839f607f)">
     <path d="m429.01 349.92c0 73.973-0.51562 74.348-103.28 74.348 102.76 0 103.28 0.37109 103.28 74.344 0-73.973 0.51953-74.344 103.28-74.344-102.76 0-103.28-0.375-103.28-74.348" fill-rule="evenodd"/>
    </g>
   </g>
  </g>
 </g>
 <g clip-path="url(#73cc6dc364)">
  <g clip-path="url(#c9c3f48390)">
   <g clip-path="url(#1cc128d860)">
    <g clip-path="url(#9822a21402)">
     <path d="m750 261.42c0 162.03-1.1367 162.85-226.22 162.85 225.09 0 226.22 0.81641 226.22 162.84 0-162.03 1.1367-162.84 226.22-162.84-225.09 0-226.22-0.82031-226.22-162.85" fill-rule="evenodd"/>
    </g>
   </g>
  </g>
 </g>
 <path d="m509.23 987.91c4.5703 25.145 118.28-24.93 253.95-111.83 0.86719-0.53906 1.7266-1.1094 2.5977-1.6484-1.9727 1.2656-3.957 2.5508-5.957 3.8281-146.09 93.727-267.7 148.98-271.65 123.41-3.6992-24.031 97.938-110.92 231.51-199.1-122.53 81.27-214.71 161.88-210.45 185.34z" fill="#231f20"/>
 <path d="m1012.1 766.95c3.3594 21.852-80.375 95.703-196.06 175.22 106.7-73.77 183.3-142.91 179.4-164.33-4.3672-24.047-108.5 20.676-236.22 100.61 137.6-86.438 249.11-135.97 252.88-111.5z" fill="#231f20"/>
 <g clip-path="url(#b13c80f80b)">
  <path d="m899.6 882.48c12.816-1.332 25.664-2.6289 38.48-4.293-25.168-3.2305-51.633-5.4141-76.797-8.5781-23.703-3.3633-48.453-6.4414-69.094-19.082 14.016-24.875 33.988-46.09 51.102-68.883-22.188 17.516-44.16 38.098-68.961 51.852-1.9453-3.5312-3.4609-7.5117-4.7422-11.559-4.5938-15.219-6.625-31.137-8.5898-46.969-4.7109-42.062-6.7891-86.27-9.5547-128.66-1.3633-21.516-2.7617-43.027-4.6406-64.539-5.5938 64.02-7.2266 129.36-14.184 193.2-1.2305 10.637-2.7617 21.227-4.793 31.637-1.8984 9.0898-4.1289 18.781-8.5703 26.855-24.82-13.754-46.707-34.301-68.926-51.801 17.125 22.777 37.102 43.992 51.113 68.887-9.5859 5.9609-20.555 9.8398-31.523 12.488-24.367 5.8945-50.883 8.0898-75.914 10.84-12.816 1.332-25.652 2.6289-38.469 4.3125 25.152 3.2109 51.633 5.3945 76.801 8.5586 23.699 3.3633 48.449 6.4414 69.09 19.098-14.016 24.859-34.004 46.07-51.113 68.867 22.184-17.516 44.172-38.082 68.957-51.852 1.9648 3.5312 3.4609 7.5117 4.7617 11.555 4.5938 15.219 6.6055 31.137 8.5859 46.973 4.6953 42.059 6.793 86.27 9.5391 128.66 1.3789 21.516 2.7773 43.027 4.6445 64.539 5.6094-64.023 7.2383-129.36 14.195-193.2 1.2344-10.641 2.7656-21.23 4.793-31.637 1.8984-9.0898 4.1133-18.766 8.5742-26.855 24.801 13.77 46.703 34.301 68.926 51.801-17.129-22.781-37.102-43.992-51.133-68.887 9.6016-5.9609 20.57-9.8398 31.523-12.488 24.387-5.8945 50.883-8.0742 75.918-10.84zm-152.8 41.695c-11.668-24.844-21.141-34.316-45.973-45.988 24.832-11.691 34.305-21.164 45.973-46.008 11.684 24.844 21.152 34.316 45.969 46.008-24.816 11.672-34.285 21.145-45.969 45.988z" fill="#231f20"/>
 </g>
 <g fill="#231f20">
  <path d="m655.9 1099.6c-3.168 0-3.7188-3.2109-3.9531-4.582-0.20312-1.1719-0.42969-2.8281-0.74219-5.1211-0.37109-2.6758-0.875-6.3477-1.5547-10.789-2.3477-14.203-3.1875-14.75-13.488-17.496-3.4141-0.84375-6.1758-1.4531-8.3984-1.9414-5.6641-1.2461-8.0078-1.7617-8.0078-4.9727-0.003906-3.207 2.3398-3.7227 8.0078-4.9766 2.2188-0.49219 4.9805-1.1016 8.4609-1.9609 10.227-2.7227 11.062-3.2695 13.426-17.531 0.67188-4.4023 1.1758-8.0703 1.543-10.746 0.3125-2.293 0.53906-3.9492 0.73828-5.1172 0.23438-1.375 0.78516-4.5859 3.9531-4.5859 3.1719 0 3.7227 3.2109 3.957 4.582 0.19922 1.168 0.42969 2.8242 0.74219 5.1172 0.36719 2.6797 0.87109 6.3477 1.5547 10.793 2.3477 14.188 3.1836 14.746 13.453 17.488 3.4688 0.85156 6.2188 1.4609 8.4336 1.9453 5.6641 1.25 8.0078 1.7656 8.0078 4.9727 0.003906 3.207-2.3438 3.7266-8.0039 4.9766-2.2188 0.49219-4.9844 1.1055-8.4648 1.9648-10.227 2.7227-11.062 3.2695-13.426 17.531-0.67578 4.3984-1.1758 8.0664-1.543 10.746-0.3125 2.2891-0.53906 3.9492-0.73828 5.1172-0.23828 1.3711-0.78516 4.5859-3.957 4.5859zm-18.469-44.906c0.15625 0.039063 0.31641 0.074219 0.47656 0.11719 12.379 3.3008 15.453 6.1211 17.988 19.336 2.5469-13.234 5.6211-16.055 17.922-19.328 0.17969-0.046875 0.35938-0.089844 0.53906-0.13281-0.16016-0.039063-0.31641-0.078125-0.47656-0.11719l-0.0625-0.015625c-12.324-3.2891-15.395-6.1094-17.93-19.32-2.543 13.23-5.6172 16.055-17.918 19.328-0.17969 0.042968-0.35938 0.085937-0.53906 0.13281z"/>
  <path d="m856.37 709.45c-12.004-3.1992-13.531-5.125-16.051-20.355-3.5898-23.348-1.9805-23.352-5.5586 0-2.5234 15.227-4.0391 17.168-16.043 20.363-18.406 4.5508-18.406 2.5156 0 7.0508 12 3.2031 13.531 5.1289 16.051 20.359 3.5859 23.348 1.9805 23.352 5.5547 0 2.5234-15.23 4.043-17.172 16.047-20.367 18.402-4.5508 18.406-2.5117 0-7.0508z"/>
  <path d="m626.81 1113.5c-7.3047-1.9492-8.2344-3.1211-9.7656-12.387-2.1836-14.211-1.207-14.211-3.3828 0-1.5352 9.2656-2.457 10.445-9.7617 12.391-11.199 2.7695-11.203 1.5312 0 4.293 7.3008 1.9453 8.2344 3.1172 9.7656 12.387 2.1836 14.207 1.207 14.211 3.3828 0 1.5352-9.2695 2.457-10.449 9.7617-12.395 11.199-2.7695 11.203-1.5273 0-4.2891z"/>
  <path d="m895.05 644.24c-7.3047-1.9492-8.2344-3.1211-9.7695-12.387-2.1797-14.211-1.2031-14.211-3.3789 0-1.5352 9.2656-2.4609 10.445-9.7656 12.391-11.199 2.7695-11.199 1.5273 0 4.2891 7.3047 1.9492 8.2344 3.1211 9.7695 12.387 2.1797 14.211 1.2031 14.211 3.3789 0 1.5352-9.2656 2.4609-10.445 9.7656-12.391 11.199-2.7695 11.199-1.5273 0-4.2891z"/>
 </g>
</svg>
