<?xml version="1.0" encoding="UTF-8"?>
<svg width="2e3" height="2e3" version="1.0" viewBox="0 0 1500 1500" xmlns="http://www.w3.org/2000/svg" zoomAndPan="magnify">
 <defs>
  <clipPath id="083141f5df">
   <path d="m376.73 322.95h746.25v995.25h-746.25z"/>
  </clipPath>
  <clipPath>
   <path d="m403.56 358.73h693v924h-693z"/>
  </clipPath>
  <clipPath id="b785cd16a3">
   <path d="m635 683.8h219v337.5h-219z"/>
  </clipPath>
  <clipPath id="b76118f961">
   <path d="m612.7 150h274.5v141h-274.5z"/>
  </clipPath>
  <clipPath>
   <path d="m376.73 322.95h746.25v995.25h-746.25z"/>
  </clipPath>
  <clipPath id="083141f5df-5">
   <path d="m376.73 322.95h746.25v995.25h-746.25z"/>
  </clipPath>
  <clipPath>
   <path d="m376.73 322.95h746.25v995.25h-746.25z"/>
  </clipPath>
 </defs>
 <g transform="translate(2.906 40.015)">
  <g transform="translate(0 -55.822)">
   <path d="m1128.1 460.32c-70.766 4.3826-176.66 31.585-286.16 60.042l0.0762 0.20508c161.04-37.758 291.84-52.283 342.16-28.014 73.628 35.527-38.692 136.78-259.91 247.42l0.45996 1.2246c252.87-122.28 387.69-233.73 312.33-270.1-21.847-10.538-59.403-13.846-108.96-10.777zm-490.85 115.77c-28.837 8.8849-58.135 18.375-87.814 28.509 29.762-10.055 58.926-19.302 87.605-27.952zm-175.32 59.902c-1.3007 0.46395-2.3494 0.60084-3.6841 1.1104-13.574 5.1914-27.222 10.473-40.824 15.844 13.816-5.3945 27.585-10.679 41.281-15.875 1.1006-0.41558 2.1357-0.68566 3.227-1.0796zm42.023 295.65c-209.95 108.97-315.32 204.19-246.72 237.29 27.771 13.387 83.57 12.532 157.09 1.79l4.6304-12.352c-49.018 2.9975-86.72-0.2019-108.89-10.887-65.742-31.726 16.709-115.81 192.52-212.2h1e-3zm522.07 74.807c-0.542 0.2004-1.0842 0.4007-1.6259 0.6006 0.5415-0.2008 1.0829-0.4023 1.6245-0.6035z"/>
  </g>
  <path d="m436.93 535c-5.5508 113.92-10.047 118.42-123.91 123.98 113.86 5.5508 118.36 10.051 123.91 123.97 5.5469-113.92 10.047-118.42 123.91-123.97-113.86-5.5547-118.36-10.055-123.91-123.98z" fill="#231f20"/>
  <path d="m1131.8 881.85c-3.4375 70.605-6.2226 73.395-76.793 76.836 70.57 3.4414 73.356 6.2305 76.793 76.836 3.4414-70.605 6.2266-73.394 76.797-76.836-70.57-3.4414-73.356-6.2305-76.797-76.836z" fill="#231f20"/>
  <g clip-path="url(#083141f5df)">
   <path d="m749.85 322.95-373.12 995.25 373.12-248.81 373.12 248.81zm0.14063 35.782 346.44 923.83-346.43-230.96-346.44 230.95z"/>
  </g>
  <g transform="translate(.1484 -76.74)" clip-path="url(#083141f5df-5)">
   <path d="m749.85 322.95-373.12 995.25 73.799-49.212 299.33-798.4 299.33 798.4 73.799 49.212z"/>
  </g>
  <g transform="translate(-8.2765 -7.6398)">
   <path d="m609.46 914.98c2.6055 14.305 67.324-14.18 144.55-63.617 0.4961-0.30859 0.98438-0.63281 1.4766-0.9414-1.1211 0.72265-2.25 1.4531-3.3867 2.1797-83.16 53.324-152.38 84.758-154.62 70.207-2.1094-13.672 55.746-63.102 131.78-113.27-69.742 46.234-122.22 92.094-119.79 105.44z" fill="#231f20"/>
   <path d="m895.72 789.27c1.9102 12.434-45.75 54.449-111.6 99.684 60.734-41.965 104.34-81.297 102.11-93.488-2.4844-13.68-61.754 11.762-134.46 57.242 78.324-49.176 141.8-77.359 143.95-63.438z" fill="#231f20"/>
   <g clip-path="url(#b785cd16a3)">
    <path d="m831.66 855c7.2969-0.75781 14.609-1.5 21.906-2.4453-14.328-1.8398-29.391-3.0781-43.715-4.8789-13.492-1.9141-27.582-3.6641-39.328-10.855 7.9766-14.152 19.348-26.223 29.086-39.188-12.629 9.9648-25.137 21.672-39.254 29.496-1.1055-2.0078-1.9688-4.2734-2.6992-6.5742-2.6133-8.6562-3.7695-17.715-4.8867-26.723-2.6836-23.93-3.8672-49.078-5.4414-73.195-0.77343-12.238-1.5703-24.48-2.6406-36.719-3.1836 36.426-4.1133 73.594-8.0742 109.91-0.69922 6.0547-1.5703 12.078-2.7266 18-1.082 5.1719-2.3516 10.684-4.8789 15.277-14.129-7.8242-26.586-19.512-39.234-29.469 9.75 12.957 21.117 25.027 29.098 39.188-5.457 3.3945-11.703 5.6016-17.945 7.1055-13.871 3.3555-28.965 4.6055-43.211 6.168-7.2969 0.75781-14.602 1.4961-21.898 2.4531 14.316 1.8281 29.391 3.0703 43.715 4.8672 13.492 1.9141 27.582 3.668 39.328 10.867-7.9766 14.145-19.355 26.211-29.094 39.18 12.629-9.9648 25.145-21.664 39.25-29.5 1.1172 2.0078 1.9727 4.2734 2.7109 6.5742 2.6133 8.6602 3.7617 17.715 4.8867 26.723 2.6719 23.93 3.8672 49.082 5.4297 73.199 0.78515 12.238 1.582 24.477 2.6445 36.715 3.1914-36.422 4.1211-73.594 8.082-109.91 0.69922-6.0508 1.5703-12.078 2.7266-17.996 1.082-5.1719 2.3398-10.676 4.8789-15.281 14.117 7.8359 26.586 19.516 39.234 29.473-9.75-12.961-21.117-25.027-29.105-39.191 5.4648-3.3906 11.711-5.5977 17.945-7.1055 13.879-3.3516 28.961-4.5938 43.211-6.1641zm-86.973 23.719c-6.6406-14.133-12.031-19.523-26.168-26.164 14.137-6.6484 19.527-12.039 26.168-26.172 6.6484 14.133 12.039 19.523 26.168 26.172-14.129 6.6406-19.52 12.031-26.168 26.164z" fill="#231f20"/>
   </g>
   <g fill="#231f20">
    <path d="m692.95 978.54c-1.8047 0-2.1172-1.8281-2.2539-2.6094-0.11328-0.66407-0.24219-1.6055-0.42187-2.9102-0.20703-1.5234-0.4961-3.6094-0.88282-6.1406-1.3398-8.0781-1.8164-8.3906-7.6797-9.9531-1.9414-0.47656-3.5156-0.82422-4.7774-1.1016-3.2266-0.71094-4.5586-1.0039-4.5625-2.832 0-1.8242 1.3359-2.1172 4.5586-2.832 1.2656-0.27735 2.8359-0.625 4.8203-1.1133 5.8203-1.5508 6.293-1.8594 7.6406-9.9726 0.38282-2.5039 0.66797-4.5938 0.875-6.1172 0.17969-1.3008 0.3086-2.2461 0.42188-2.9102 0.13672-0.78125 0.44922-2.6094 2.25-2.6094 1.8047 0 2.1172 1.8281 2.2539 2.6094 0.11328 0.66407 0.24218 1.6055 0.42187 2.9102 0.21094 1.5234 0.49609 3.6094 0.88672 6.1406 1.332 8.0703 1.8086 8.3906 7.6562 9.9492 1.9727 0.48438 3.5391 0.82813 4.8008 1.1055 3.2227 0.71094 4.5586 1.0039 4.5586 2.832 0 1.8242-1.3359 2.1172-4.5586 2.8281-1.2617 0.28125-2.8359 0.62891-4.8164 1.1172-5.8203 1.5508-6.2969 1.8594-7.6406 9.9726-0.38672 2.5039-0.67188 4.5898-0.87891 6.1133-0.17968 1.3047-0.30859 2.25-0.42187 2.9141-0.13281 0.78125-0.44922 2.6094-2.25 2.6094zm-10.516-25.551c0.0899 0.0234 0.17969 0.0469 0.27344 0.0703 7.0469 1.875 8.7969 3.4805 10.238 11 1.4492-7.5312 3.1992-9.1328 10.199-10.996 0.10547-0.0273 0.20703-0.0508 0.30859-0.0742-0.0898-0.0234-0.17968-0.0469-0.26953-0.0703l-0.0391-8e-3c-7.0117-1.8711-8.7578-3.4766-10.203-10.992-1.4492 7.5273-3.1992 9.1367-10.199 10.996-0.10547 0.0274-0.20703 0.0508-0.3086 0.0742z"/>
    <path d="m807.05 756.56c-6.832-1.8203-7.7031-2.9141-9.1367-11.582-2.0391-13.281-1.125-13.285-3.1641 0-1.4336 8.6641-2.2969 9.7695-9.1289 11.586-10.477 2.5898-10.48 1.4297-4e-3 4.0117 6.832 1.8203 7.7031 2.918 9.1367 11.582 2.043 13.285 1.1289 13.285 3.1641 0 1.4375-8.6641 2.3008-9.7695 9.1328-11.586 10.477-2.5898 10.477-1.4297 0-4.0117z"/>
    <path d="m676.39 986.42c-4.1602-1.1094-4.6875-1.7734-5.5586-7.0469-1.2461-8.082-0.6875-8.0859-1.9258 0-0.875 5.2734-1.4023 5.9453-5.5586 7.0508-6.375 1.5742-6.375 0.8711 0 2.4414 4.1562 1.1094 4.6875 1.7734 5.5586 7.0469 1.2422 8.082 0.6875 8.0859 1.9258 0 0.875-5.2734 1.3984-5.9453 5.5586-7.0508 6.375-1.5742 6.375-0.87109 0-2.4414z"/>
    <path d="m829.07 719.46c-4.1562-1.1094-4.6875-1.7734-5.5586-7.0469-1.2422-8.0859-0.6875-8.0859-1.9258 0-0.875 5.2695-1.3984 5.9414-5.5586 7.0469-6.3711 1.5781-6.375 0.87109 0 2.4414 4.1602 1.1094 4.6875 1.7774 5.5625 7.0469 1.2422 8.0859 0.68359 8.0859 1.9219 0 0.875-5.2695 1.4024-5.9414 5.5586-7.0469 6.375-1.5781 6.375-0.87109 0-2.4414z"/>
   </g>
  </g>
  <g transform="translate(0 -48.385)" clip-path="url(#b76118f961)">
   <path d="m612.59 221.27v-1.0938c127.04 0 136.27-10.59 136.27-70.02h2.1133c0 59.43 9.2461 70.02 136.29 70.02v1.0938c-127.04 0-136.29 10.57-136.29 70h-2.1133c0-59.43-9.2305-70-136.27-70" fill-rule="evenodd"/>
  </g>
 </g>
</svg>
